Pliska-Regular.ufo
<glyph name="dollar" format="2">
  <advance width="500"/>
  <unicode hex="0024"/>
  <outline>
    <contour>
      <point x="44" y="51" type="curve"/>
      <point x="44" y="73.7576"/>
      <point x="44" y="154.111"/>
      <point x="44" y="181" type="curve"/>
      <point x="59" y="181" type="line"/>
      <point x="83" y="76"/>
      <point x="136" y="28"/>
      <point x="230" y="28" type="curve"/>
      <point x="230" y="310" type="line"/>
      <point x="95.65" y="378.152"/>
      <point x="52" y="428.457"/>
      <point x="52" y="515.138" type="curve" smooth="yes"/>
      <point x="52" y="597.783"/>
      <point x="116.037" y="651.337"/>
      <point x="230" y="664" type="curve"/>
      <point x="230" y="727" type="line"/>
      <point x="238.85" y="727"/>
      <point x="258.096" y="727"/>
      <point x="264" y="727" type="curve"/>
      <point x="264" y="664" type="line"/>
      <point x="348" y="654"/>
      <point x="391" y="639"/>
      <point x="425" y="611" type="curve"/>
      <point x="425" y="591.549"/>
      <point x="425" y="526.303"/>
      <point x="425" y="500" type="curve"/>
      <point x="410" y="500" type="line"/>
      <point x="393.028" y="584.861"/>
      <point x="348.138" y="626.984"/>
      <point x="264" y="637" type="curve"/>
      <point x="264" y="391" type="line"/>
      <point x="409.219" y="314.333"/>
      <point x="457" y="260.813"/>
      <point x="457" y="174.821" type="curve" smooth="yes"/>
      <point x="457" y="77.3608"/>
      <point x="395.057" y="21.2525"/>
      <point x="264" y="0" type="curve"/>
      <point x="264" y="-87" type="line"/>
      <point x="255.895" y="-87"/>
      <point x="235.477" y="-87"/>
      <point x="230" y="-87" type="curve"/>
      <point x="230" y="0" type="line"/>
      <point x="146" y="3"/>
      <point x="104" y="14"/>
    </contour>
    <contour>
      <point x="126" y="531.84" type="curve" smooth="yes"/>
      <point x="126" y="487.62"/>
      <point x="146.706" y="462.523"/>
      <point x="229" y="407" type="curve"/>
      <point x="229" y="637" type="line"/>
      <point x="159.564" y="622.912"/>
      <point x="126" y="588.643"/>
    </contour>
    <contour>
      <point x="264" y="28" type="line"/>
      <point x="343.299" y="43.2497"/>
      <point x="378" y="81.1693"/>
      <point x="378" y="152.572" type="curve" smooth="yes"/>
      <point x="378" y="208.566"/>
      <point x="356.07" y="235.58"/>
      <point x="264" y="293" type="curve"/>
    </contour>
  </outline>
</glyph>
<glyph name="percent" format="1">
  <advance width="833"/>
  <unicode hex="0025"/>
  <outline>
    <contour>
      <point x="61" y="416" type="curve" smooth="yes"/>
      <point x="61" y="543"/>
      <point x="168" y="662"/>
      <point x="282" y="662" type="curve" smooth="yes"/>
      <point x="313" y="662"/>
      <point x="326" y="657"/>
      <point x="352" y="635" type="curve" smooth="yes"/>
      <point x="376" y="615"/>
      <point x="399" y="608"/>
      <point x="439" y="608" type="curve" smooth="yes"/>
      <point x="501" y="608"/>
      <point x="541" y="625"/>
      <point x="595" y="676" type="curve"/>
      <point x="634" y="676" type="line"/>
      <point x="249" y="-13" type="line"/>
      <point x="201" y="-13" type="line"/>
      <point x="552" y="613" type="line"/>
      <point x="512" y="590"/>
      <point x="486" y="583"/>
      <point x="442" y="583" type="curve" smooth="yes"/>
      <point x="413" y="583"/>
      <point x="395" y="586"/>
      <point x="377" y="593" type="curve"/>
      <point x="382" y="575"/>
      <point x="384" y="563"/>
      <point x="384" y="549" type="curve" smooth="yes"/>
      <point x="384" y="476"/>
      <point x="352" y="397"/>
      <point x="300" y="344" type="curve" smooth="yes"/>
      <point x="267" y="309"/>
      <point x="222" y="289"/>
      <point x="179" y="289" type="curve" smooth="yes"/>
      <point x="114" y="289"/>
      <point x="61" y="346"/>
    </contour>
    <contour>
      <point x="137" y="384" type="curve" smooth="yes"/>
      <point x="137" y="348"/>
      <point x="161" y="323"/>
      <point x="196" y="323" type="curve" smooth="yes"/>
      <point x="277" y="323"/>
      <point x="359" y="438"/>
      <point x="359" y="551" type="curve" smooth="yes"/>
      <point x="359" y="565"/>
      <point x="356" y="580"/>
      <point x="350" y="600" type="curve"/>
      <point x="321" y="608"/>
      <point x="309" y="613"/>
      <point x="295" y="626" type="curve" smooth="yes"/>
      <point x="289" y="631"/>
      <point x="287" y="632"/>
      <point x="282" y="632" type="curve" smooth="yes"/>
      <point x="251" y="632"/>
      <point x="213" y="598"/>
      <point x="184" y="544" type="curve" smooth="yes"/>
      <point x="157" y="494"/>
      <point x="137" y="426"/>
    </contour>
    <contour>
      <point x="449" y="129" type="curve" smooth="yes"/>
      <point x="449" y="254"/>
      <point x="556" y="371"/>
      <point x="669" y="371" type="curve" smooth="yes"/>
      <point x="734" y="371"/>
      <point x="772" y="332"/>
      <point x="772" y="264" type="curve" smooth="yes"/>
      <point x="772" y="186"/>
      <point x="739" y="105"/>
      <point x="686" y="51" type="curve" smooth="yes"/>
      <point x="651" y="16"/>
      <point x="614" y="0"/>
      <point x="569" y="0" type="curve" smooth="yes"/>
      <point x="497" y="0"/>
      <point x="449" y="51"/>
    </contour>
    <contour>
      <point x="525" y="94" type="curve" smooth="yes"/>
      <point x="525" y="56"/>
      <point x="550" y="30"/>
      <point x="586" y="30" type="curve" smooth="yes"/>
      <point x="622" y="30"/>
      <point x="651" y="47"/>
      <point x="683" y="87" type="curve" smooth="yes"/>
      <point x="721" y="134"/>
      <point x="746" y="202"/>
      <point x="746" y="259" type="curve" smooth="yes"/>
      <point x="746" y="303"/>
      <point x="714" y="339"/>
      <point x="676" y="339" type="curve" smooth="yes"/>
      <point x="645" y="339"/>
      <point x="617" y="321"/>
      <point x="590" y="281" type="curve" smooth="yes"/>
      <point x="553" y="229"/>
      <point x="525" y="147"/>
    </contour>
  </outline>
</glyph>
<glyph name="ampersand" format="1">
  <advance width="778"/>
  <unicode hex="0026"/>
  <outline>
    <contour>
      <point x="42" y="139" type="curve" smooth="yes"/>
      <point x="42" y="223"/>
      <point x="93" y="294"/>
      <point x="199" y="355" type="curve" smooth="yes"/>
      <point x="237" y="377" type="line"/>
      <point x="210" y="452"/>
      <point x="202" y="484"/>
      <point x="202" y="522" type="curve" smooth="yes"/>
      <point x="202" y="608"/>
      <point x="270" y="676"/>
      <point x="356" y="676" type="curve" smooth="yes"/>
      <point x="435" y="676"/>
      <point x="491" y="626"/>
      <point x="491" y="555" type="curve" smooth="yes"/>
      <point x="491" y="522"/>
      <point x="478" y="487"/>
      <point x="457" y="464" type="curve" smooth="yes"/>
      <point x="429" y="433"/>
      <point x="404" y="416"/>
      <point x="336" y="384" type="curve"/>
      <point x="380" y="298"/>
      <point x="412" y="247"/>
      <point x="468" y="178" type="curve"/>
      <point x="532" y="263"/>
      <point x="559" y="317"/>
      <point x="559" y="360" type="curve" smooth="yes"/>
      <point x="559" y="390"/>
      <point x="545" y="400"/>
      <point x="495" y="405" type="curve"/>
      <point x="495" y="426" type="line"/>
      <point x="711" y="426" type="line"/>
      <point x="711" y="405" type="line"/>
      <point x="661" y="399"/>
      <point x="641" y="387"/>
      <point x="617" y="346" type="curve" smooth="yes"/>
      <point x="591" y="300" type="line" smooth="yes"/>
      <point x="560" y="246"/>
      <point x="535" y="209"/>
      <point x="491" y="150" type="curve"/>
      <point x="537" y="89"/>
      <point x="589" y="58"/>
      <point x="645" y="58" type="curve" smooth="yes"/>
      <point x="681" y="58"/>
      <point x="703" y="71"/>
      <point x="735" y="111" type="curve"/>
      <point x="750" y="100" type="line"/>
      <point x="720" y="29"/>
      <point x="663" y="-13"/>
      <point x="599" y="-13" type="curve" smooth="yes"/>
      <point x="541" y="-13"/>
      <point x="492" y="13"/>
      <point x="429" y="78" type="curve"/>
      <point x="354" y="12"/>
      <point x="294" y="-13"/>
      <point x="213" y="-13" type="curve" smooth="yes"/>
      <point x="107" y="-13"/>
      <point x="42" y="44"/>
    </contour>
    <contour>
      <point x="134" y="180" type="curve" smooth="yes"/>
      <point x="134" y="103"/>
      <point x="193" y="39"/>
      <point x="263" y="39" type="curve" smooth="yes"/>
      <point x="305" y="39"/>
      <point x="345" y="57"/>
      <point x="404" y="104" type="curve"/>
      <point x="347" y="174"/>
      <point x="312" y="229"/>
      <point x="252" y="343" type="curve"/>
      <point x="165" y="287"/>
      <point x="134" y="244"/>
    </contour>
    <contour>
      <point x="281" y="562" type="curve" smooth="yes"/>
      <point x="281" y="517"/>
      <point x="291" y="479"/>
      <point x="321" y="416" type="curve"/>
      <point x="403" y="460"/>
      <point x="438" y="503"/>
      <point x="438" y="559" type="curve" smooth="yes"/>
      <point x="438" y="608"/>
      <point x="404" y="644"/>
      <point x="358" y="644" type="curve" smooth="yes"/>
      <point x="312" y="644"/>
      <point x="281" y="610"/>
    </contour>
  </outline>
</glyph>
<glyph name="quotesingle" format="2">
  <advance width="180"/>
  <unicode hex="0027"/>
  <outline>
    <contour>
      <point x="48" y="635" type="curve" smooth="yes"/>
      <point x="48" y="658"/>
      <point x="67" y="676"/>
      <point x="91" y="676" type="curve" smooth="yes"/>
      <point x="114" y="676"/>
      <point x="133" y="658"/>
      <point x="133" y="636" type="curve" smooth="yes"/>
      <point x="133" y="607"/>
      <point x="124" y="547"/>
      <point x="108" y="471" type="curve"/>
      <point x="101" y="431" type="line"/>
      <point x="96.3985" y="431"/>
      <point x="81.5073" y="431"/>
      <point x="80" y="431" type="curve"/>
      <point x="63" y="521"/>
      <point x="48" y="619"/>
    </contour>
  </outline>
</glyph>
<glyph name="parenleft" format="2">
  <advance width="333"/>
  <unicode hex="0028"/>
  <outline>
    <contour>
      <point x="48" y="252" type="curve" smooth="yes"/>
      <point x="48" y="369"/>
      <point x="83" y="469"/>
      <point x="154" y="556" type="curve" smooth="yes"/>
      <point x="191" y="602"/>
      <point x="221" y="628"/>
      <point x="295" y="676" type="curve"/>
      <point x="304" y="660" type="line"/>
      <point x="232" y="602"/>
      <point x="202" y="566"/>
      <point x="174" y="504" type="curve" smooth="yes"/>
      <point x="147" y="442"/>
      <point x="134" y="360"/>
      <point x="134" y="255" type="curve" smooth="yes"/>
      <point x="134" y="155"/>
      <point x="145" y="79"/>
      <point x="169" y="12" type="curve" smooth="yes"/>
      <point x="196" y="-63"/>
      <point x="224" y="-98"/>
      <point x="304" y="-161" type="curve"/>
      <point x="292" y="-177" type="line"/>
      <point x="240" y="-145"/>
      <point x="214" y="-123"/>
      <point x="173" y="-75" type="curve" smooth="yes"/>
      <point x="85" y="27"/>
      <point x="48" y="125"/>
    </contour>
  </outline>
</glyph>
<glyph name="asterisk" format="2">
  <advance width="500"/>
  <unicode hex="002A"/>
  <outline>
    <contour>
      <point x="69" y="385" type="curve" smooth="yes"/>
      <point x="69" y="410"/>
      <point x="86" y="422"/>
      <point x="131" y="430" type="curve" smooth="yes"/>
      <point x="177" y="439"/>
      <point x="193" y="442"/>
      <point x="234" y="467" type="curve"/>
      <point x="234" y="467.966"/>
      <point x="234" y="470.111"/>
      <point x="234" y="471" type="curve"/>
      <point x="215" y="484"/>
      <point x="174" y="500"/>
      <point x="133.747" y="507.577" type="curve" smooth="yes"/>
      <point x="89" y="516"/>
      <point x="69" y="530"/>
      <point x="69" y="554" type="curve" smooth="yes"/>
      <point x="69" y="574"/>
      <point x="84" y="590"/>
      <point x="104.202" y="590" type="curve" smooth="yes"/>
      <point x="119" y="590"/>
      <point x="130.317" y="581.414"/>
      <point x="151" y="558" type="curve" smooth="yes"/>
      <point x="183.331" y="521.398"/>
      <point x="202" y="502"/>
      <point x="240" y="481" type="curve"/>
      <point x="240.269" y="481.269"/>
      <point x="241.469" y="482.469"/>
      <point x="242" y="483" type="curve"/>
      <point x="242" y="510"/>
      <point x="236" y="556"/>
      <point x="224.717" y="594.081" type="curve" smooth="yes"/>
      <point x="220" y="610"/>
      <point x="216" y="628"/>
      <point x="216" y="638.897" type="curve" smooth="yes"/>
      <point x="216" y="660"/>
      <point x="231" y="675"/>
      <point x="251" y="675" type="curve" smooth="yes"/>
      <point x="271" y="675"/>
      <point x="287" y="659"/>
      <point x="287" y="638" type="curve" smooth="yes"/>
      <point x="287" y="627"/>
      <point x="283.462" y="610.848"/>
      <point x="275.255" y="586.909" type="curve" smooth="yes"/>
      <point x="262.229" y="548.917"/>
      <point x="260" y="527.724"/>
      <point x="260" y="483" type="curve"/>
      <point x="260.459" y="482.541"/>
      <point x="261.583" y="481.417"/>
      <point x="262" y="481" type="curve"/>
      <point x="284" y="493"/>
      <point x="314" y="521"/>
      <point x="339" y="551" type="curve" smooth="yes"/>
      <point x="363" y="579"/>
      <point x="380" y="592"/>
      <point x="397.066" y="592" type="curve" smooth="yes"/>
      <point x="416" y="592"/>
      <point x="431" y="576"/>
      <point x="431" y="551.142" type="curve" smooth="yes"/>
      <point x="431" y="528"/>
      <point x="418" y="517"/>
      <point x="380" y="511" type="curve" smooth="yes"/>
      <point x="336" y="504"/>
      <point x="317" y="499"/>
      <point x="268" y="471" type="curve"/>
      <point x="268" y="469.998"/>
      <point x="268" y="467.769"/>
      <point x="268" y="467" type="curve"/>
      <point x="294" y="451"/>
      <point x="334" y="436"/>
      <point x="375.601" y="429.484" type="curve" smooth="yes"/>
      <point x="417" y="423"/>
      <point x="432" y="412"/>
      <point x="432" y="387.586" type="curve" smooth="yes"/>
      <point x="432" y="364"/>
      <point x="418" y="349"/>
      <point x="397" y="349" type="curve" smooth="yes"/>
      <point x="379" y="349"/>
      <point x="362" y="361"/>
      <point x="337" y="392" type="curve" smooth="yes"/>
      <point x="310" y="425"/>
      <point x="284" y="446"/>
      <point x="262" y="455" type="curve"/>
      <point x="261.752" y="454.752"/>
      <point x="260.596" y="453.596"/>
      <point x="260" y="453" type="curve"/>
      <point x="260" y="411.961"/>
      <point x="265.661" y="374.605"/>
      <point x="278.783" y="339.59" type="curve" smooth="yes"/>
      <point x="285" y="323"/>
      <point x="288" y="310"/>
      <point x="288" y="302.173" type="curve" smooth="yes"/>
      <point x="288" y="283"/>
      <point x="270" y="264"/>
      <point x="249" y="264" type="curve" smooth="yes"/>
      <point x="230" y="264"/>
      <point x="214" y="281"/>
      <point x="214" y="301" type="curve" smooth="yes"/>
      <point x="214" y="312"/>
      <point x="218" y="329"/>
      <point x="223.699" y="344.194" type="curve" smooth="yes"/>
      <point x="235.81" y="376.481"/>
      <point x="242" y="421.597"/>
      <point x="242" y="453" type="curve"/>
      <point x="241.588" y="453.412"/>
      <point x="240.472" y="454.528"/>
      <point x="240" y="455" type="curve"/>
      <point x="191.208" y="424.33"/>
      <point x="184.733" y="416.938"/>
      <point x="147" y="374" type="curve" smooth="yes"/>
      <point x="130" y="355"/>
      <point x="121" y="350"/>
      <point x="106.454" y="350" type="curve" smooth="yes"/>
      <point x="83" y="350"/>
      <point x="69" y="363"/>
    </contour>
  </outline>
</glyph>
<glyph name="one" format="1">
  <advance width="500"/>
  <unicode hex="0031"/>
  <outline>
    <contour>
      <point x="111" y="571" type="curve"/>
      <point x="111" y="585" type="line"/>
      <point x="291" y="676" type="line"/>
      <point x="299" y="674" type="line"/>
      <point x="299" y="74" type="line" smooth="yes"/>
      <point x="299" y="26"/>
      <point x="319" y="15"/>
      <point x="394" y="15" type="curve"/>
      <point x="394" y="0" type="line"/>
      <point x="118" y="0" type="line"/>
      <point x="118" y="15" type="line"/>
      <point x="176" y="17"/>
      <point x="213" y="19"/>
      <point x="213" y="93" type="curve" smooth="yes"/>
      <point x="213" y="546" type="line" smooth="yes"/>
      <point x="213" y="567"/>
      <point x="213" y="593"/>
      <point x="179" y="593" type="curve" smooth="yes"/>
      <point x="167" y="593"/>
      <point x="167" y="593"/>
    </contour>
  </outline>
</glyph>
<glyph name="five" format="1">
  <advance width="500"/>
  <unicode hex="0035"/>
  <outline>
    <contour>
      <point x="32" y="46" type="curve" smooth="yes"/>
      <point x="32" y="56"/>
      <point x="32" y="85"/>
      <point x="72" y="85" type="curve" smooth="yes"/>
      <point x="136" y="85"/>
      <point x="163" y="23"/>
      <point x="217" y="23" type="curve" smooth="yes"/>
      <point x="282" y="23"/>
      <point x="356" y="79"/>
      <point x="356" y="201" type="curve" smooth="yes"/>
      <point x="356" y="361"/>
      <point x="179" y="408"/>
      <point x="71" y="412" type="curve" smooth="yes"/>
      <point x="65" y="412"/>
      <point x="62" y="418"/>
      <point x="65" y="425" type="curve" smooth="yes"/>
      <point x="174" y="662" type="line"/>
      <point x="383" y="662" type="line" smooth="yes"/>
      <point x="409" y="662"/>
      <point x="418" y="673"/>
      <point x="429" y="688" type="curve"/>
      <point x="438" y="681" type="line"/>
      <point x="400" y="592" type="line" smooth="yes"/>
      <point x="396" y="583"/>
      <point x="388" y="583"/>
      <point x="377" y="583" type="curve" smooth="yes"/>
      <point x="181" y="583" type="line"/>
      <point x="139" y="498" type="line"/>
      <point x="219" y="484"/>
      <point x="313" y="467"/>
      <point x="372" y="395" type="curve" smooth="yes"/>
      <point x="415" y="343"/>
      <point x="426" y="314"/>
      <point x="426" y="225" type="curve" smooth="yes"/>
      <point x="426" y="92"/>
      <point x="316" y="-14"/>
      <point x="158" y="-14" type="curve" smooth="yes"/>
      <point x="79" y="-14"/>
      <point x="32" y="10"/>
    </contour>
  </outline>
</glyph>
<glyph name="equal" format="1">
  <advance width="564"/>
  <unicode hex="003D"/>
  <outline>
    <contour>
      <point x="30" y="120" type="line"/>
      <point x="30" y="186" type="line"/>
      <point x="534" y="186" type="line"/>
      <point x="534" y="120" type="line"/>
    </contour>
    <contour>
      <point x="30" y="320" type="line"/>
      <point x="30" y="386" type="line"/>
      <point x="534" y="386" type="line"/>
      <point x="534" y="320" type="line"/>
    </contour>
  </outline>
</glyph>
<glyph name="question" format="1">
  <advance width="444"/>
  <unicode hex="003F"/>
  <outline>
    <contour>
      <point x="68" y="531" type="curve" smooth="yes"/>
      <point x="68" y="614"/>
      <point x="138" y="676"/>
      <point x="230" y="676" type="curve" smooth="yes"/>
      <point x="327" y="676"/>
      <point x="414" y="618"/>
      <point x="414" y="521" type="curve" smooth="yes"/>
      <point x="414" y="445"/>
      <point x="365" y="386"/>
      <point x="309" y="318" type="curve" smooth="yes"/>
      <point x="272" y="271"/>
      <point x="255" y="231"/>
      <point x="244" y="164" type="curve"/>
      <point x="227" y="164" type="line"/>
      <point x="228" y="208"/>
      <point x="236" y="258"/>
      <point x="257" y="306" type="curve" smooth="yes"/>
      <point x="285" y="370" type="line" smooth="yes"/>
      <point x="309" y="425"/>
      <point x="322" y="480"/>
      <point x="322" y="526" type="curve" smooth="yes"/>
      <point x="322" y="593"/>
      <point x="274" y="646"/>
      <point x="214" y="646" type="curve" smooth="yes"/>
      <point x="165" y="646"/>
      <point x="119" y="616"/>
      <point x="119" y="584" type="curve" smooth="yes"/>
      <point x="119" y="576"/>
      <point x="124" y="567"/>
      <point x="136" y="553" type="curve" smooth="yes"/>
      <point x="151" y="536"/>
      <point x="157" y="524"/>
      <point x="157" y="510" type="curve" smooth="yes"/>
      <point x="157" y="486"/>
      <point x="140" y="469"/>
      <point x="116" y="469" type="curve" smooth="yes"/>
      <point x="85" y="469"/>
      <point x="68" y="491"/>
    </contour>
    <contour>
      <point x="184" y="43" type="curve" smooth="yes"/>
      <point x="184" y="75"/>
      <point x="207" y="99"/>
      <point x="237" y="99" type="curve" smooth="yes"/>
      <point x="266" y="99"/>
      <point x="291" y="74"/>
      <point x="291" y="44" type="curve" smooth="yes"/>
      <point x="291" y="14"/>
      <point x="268" y="-8"/>
      <point x="236" y="-8" type="curve" smooth="yes"/>
      <point x="206" y="-8"/>
      <point x="184" y="14"/>
    </contour>
  </outline>
</glyph>
<glyph name="at" format="1">
  <advance width="921"/>
  <unicode hex="0040"/>
  <outline>
    <contour>
      <point x="116" y="326" type="curve" smooth="yes"/>
      <point x="116" y="521"/>
      <point x="278" y="676"/>
      <point x="481" y="676" type="curve" smooth="yes"/>
      <point x="666" y="676"/>
      <point x="809" y="548"/>
      <point x="809" y="383" type="curve" smooth="yes"/>
      <point x="809" y="254"/>
      <point x="724" y="143"/>
      <point x="625" y="143" type="curve" smooth="yes"/>
      <point x="577" y="143"/>
      <point x="540" y="172"/>
      <point x="534" y="216" type="curve"/>
      <point x="500" y="171"/>
      <point x="453" y="144"/>
      <point x="409" y="144" type="curve" smooth="yes"/>
      <point x="360" y="144"/>
      <point x="321" y="193"/>
      <point x="321" y="256" type="curve" smooth="yes"/>
      <point x="321" y="329"/>
      <point x="352" y="405"/>
      <point x="405" y="458" type="curve" smooth="yes"/>
      <point x="439" y="492"/>
      <point x="474" y="508"/>
      <point x="517" y="508" type="curve" smooth="yes"/>
      <point x="552" y="508"/>
      <point x="567" y="497"/>
      <point x="589" y="456" type="curve"/>
      <point x="599" y="494" type="line"/>
      <point x="668" y="494" type="line"/>
      <point x="603" y="240" type="line" smooth="yes"/>
      <point x="602" y="234"/>
      <point x="601" y="229"/>
      <point x="601" y="222" type="curve" smooth="yes"/>
      <point x="601" y="191"/>
      <point x="614" y="176"/>
      <point x="640" y="176" type="curve" smooth="yes"/>
      <point x="706" y="176"/>
      <point x="769" y="273"/>
      <point x="769" y="373" type="curve" smooth="yes"/>
      <point x="769" y="522"/>
      <point x="639" y="645"/>
      <point x="482" y="645" type="curve" smooth="yes"/>
      <point x="409" y="645"/>
      <point x="342" y="618"/>
      <point x="293" y="569" type="curve" smooth="yes"/>
      <point x="236" y="510"/>
      <point x="200" y="416"/>
      <point x="200" y="323" type="curve" smooth="yes"/>
      <point x="200" y="149"/>
      <point x="322" y="25"/>
      <point x="492" y="25" type="curve" smooth="yes"/>
      <point x="559" y="25"/>
      <point x="610" y="38"/>
      <point x="688" y="73" type="curve"/>
      <point x="700" y="43" type="line"/>
      <point x="603" y="-1"/>
      <point x="553" y="-14"/>
      <point x="483" y="-14" type="curve" smooth="yes"/>
      <point x="276" y="-14"/>
      <point x="116" y="134"/>
    </contour>
    <contour>
      <point x="392" y="273" type="curve" smooth="yes"/>
      <point x="392" y="221"/>
      <point x="415" y="188"/>
      <point x="452" y="188" type="curve" smooth="yes"/>
      <point x="479" y="188"/>
      <point x="508" y="210"/>
      <point x="527" y="246" type="curve" smooth="yes"/>
      <point x="553" y="293"/>
      <point x="570" y="352"/>
      <point x="572" y="400" type="curve" smooth="yes"/>
      <point x="572" y="406" type="line" smooth="yes"/>
      <point x="572" y="441"/>
      <point x="557" y="462"/>
      <point x="531" y="464" type="curve"/>
      <point x="531" y="466" type="line"/>
      <point x="528" y="466" type="line" smooth="yes"/>
      <point x="504" y="466"/>
      <point x="471" y="446"/>
      <point x="444" y="415" type="curve" smooth="yes"/>
      <point x="410" y="377"/>
      <point x="392" y="327"/>
    </contour>
  </outline>
</glyph>
<glyph name="C" format="2">
  <advance width="667"/>
  <unicode hex="0043"/>
  <outline>
    <contour>
      <point x="28" y="331" type="curve" smooth="yes"/>
      <point x="28" y="529.611"/>
      <point x="169.306" y="676"/>
      <point x="369" y="676" type="curve" smooth="yes"/>
      <point x="466" y="676"/>
      <point x="519" y="643"/>
      <point x="553" y="643" type="curve" smooth="yes"/>
      <point x="576" y="643"/>
      <point x="592" y="653"/>
      <point x="599" y="676" type="curve"/>
      <point x="620" y="676" type="line"/>
      <point x="620" y="451" type="line"/>
      <point x="597" y="451" type="line"/>
      <point x="571" y="562"/>
      <point x="494" y="636"/>
      <point x="377" y="636" type="curve" smooth="yes"/>
      <point x="213.735" y="636"/>
      <point x="144" y="476.411"/>
      <point x="144" y="329" type="curve" smooth="yes"/>
      <point x="144" y="174"/>
      <point x="217" y="30"/>
      <point x="389" y="30" type="curve" smooth="yes"/>
      <point x="482" y="30"/>
      <point x="551" y="68"/>
      <point x="615" y="131" type="curve"/>
      <point x="633" y="113" type="line"/>
      <point x="577" y="30"/>
      <point x="458" y="-14"/>
      <point x="362" y="-14" type="curve" smooth="yes"/>
      <point x="155" y="-14"/>
      <point x="28" y="126"/>
    </contour>
  </outline>
</glyph>
<glyph name="D" format="2">
  <advance width="718"/>
  <unicode hex="0044"/>
  <outline>
    <contour>
      <point x="16" y="0" type="line"/>
      <point x="16" y="19" type="line"/>
      <point x="88" y="19"/>
      <point x="104" y="38"/>
      <point x="104" y="109" type="curve" smooth="yes"/>
      <point x="104" y="553" type="line" smooth="yes"/>
      <point x="104" y="627"/>
      <point x="90" y="639"/>
      <point x="16" y="643" type="curve"/>
      <point x="16" y="662" type="line"/>
      <point x="286" y="662" type="line" smooth="yes"/>
      <point x="504" y="662"/>
      <point x="685" y="570"/>
      <point x="685" y="336.201" type="curve" smooth="yes"/>
      <point x="685" y="105"/>
      <point x="508" y="0"/>
      <point x="300" y="0" type="curve" smooth="yes"/>
    </contour>
    <contour>
      <point x="204" y="78" type="line" smooth="yes"/>
      <point x="204" y="38"/>
      <point x="227" y="37"/>
      <point x="260" y="37" type="curve" smooth="yes"/>
      <point x="450" y="37"/>
      <point x="574" y="123"/>
      <point x="574" y="321.525" type="curve" smooth="yes"/>
      <point x="574" y="531.398"/>
      <point x="442.125" y="625"/>
      <point x="251" y="625" type="curve" smooth="yes"/>
      <point x="218" y="625"/>
      <point x="204" y="619"/>
      <point x="204" y="586" type="curve" smooth="yes"/>
    </contour>
  </outline>
</glyph>
<glyph name="J" format="2">
  <advance width="351"/>
  <unicode hex="004A"/>
  <outline>
    <contour>
      <point x="12" y="50.0988" type="curve" smooth="yes"/>
      <point x="12" y="85"/>
      <point x="34" y="108"/>
      <point x="63.4982" y="108" type="curve" smooth="yes"/>
      <point x="87" y="108"/>
      <point x="113" y="93.4006"/>
      <point x="113" y="62.437" type="curve" smooth="yes"/>
      <point x="113" y="43.75"/>
      <point x="102.703" y="32.9897"/>
      <point x="98.124" y="27.9718" type="curve"/>
      <point x="96.8022" y="26.5233"/>
      <point x="95.9569" y="25.5533"/>
      <point x="95.9735" y="25.0093" type="curve"/>
      <point x="95.9955" y="24.2862"/>
      <point x="97.1455" y="24"/>
      <point x="100" y="24" type="curve" smooth="yes"/>
      <point x="126" y="24"/>
      <point x="138" y="45"/>
      <point x="138" y="90" type="curve" smooth="yes"/>
      <point x="138" y="553" type="line" smooth="yes"/>
      <point x="138" y="626"/>
      <point x="127" y="637"/>
      <point x="45" y="643" type="curve"/>
      <point x="45" y="662" type="line"/>
      <point x="332" y="662" type="line"/>
      <point x="332" y="643" type="line"/>
      <point x="251" y="637"/>
      <point x="240" y="626"/>
      <point x="240" y="553" type="curve" smooth="yes"/>
      <point x="240" y="183" type="line" smooth="yes"/>
      <point x="240" y="58"/>
      <point x="199" y="-14"/>
      <point x="98.1186" y="-14" type="curve" smooth="yes"/>
      <point x="33" y="-14"/>
      <point x="12" y="16"/>
    </contour>
  </outline>
</glyph>
<glyph name="Q" format="2">
  <advance width="722"/>
  <unicode hex="0051"/>
  <outline>
    <component base="O"/>
    <contour>
      <point x="254.692" y="9.63684" type="curve"/>
      <point x="412.969" y="9.90164" type="line"/>
      <point x="476.75" y="-72.8272"/>
      <point x="557.351" y="-153.045"/>
      <point x="667.484" y="-153.065" type="curve" smooth="yes"/>
      <point x="681.348" y="-153.067"/>
      <point x="691.746" y="-151.798"/>
      <point x="701" y="-149" type="curve"/>
      <point x="701" y="-167" type="line"/>
      <point x="689.43" y="-172.785"/>
      <point x="659" y="-178"/>
      <point x="643" y="-178" type="curve" smooth="yes"/>
      <point x="446.215" y="-178"/>
      <point x="352.869" y="-138.065"/>
    </contour>
  </outline>
</glyph>
<glyph name="S" format="2">
  <advance width="556"/>
  <unicode hex="0053"/>
  <outline>
    <contour>
      <point x="42" y="-13" type="line"/>
      <point x="42" y="199" type="line"/>
      <point x="65" y="199" type="line"/>
      <point x="102" y="107"/>
      <point x="159" y="22"/>
      <point x="261.849" y="22" type="curve" smooth="yes"/>
      <point x="335" y="22"/>
      <point x="390" y="65"/>
      <point x="390" y="135.178" type="curve" smooth="yes"/>
      <point x="390" y="208.949"/>
      <point x="329.224" y="250.223"/>
      <point x="260.728" y="289.836" type="curve" smooth="yes"/>
      <point x="240.874" y="301.205" type="line" smooth="yes"/>
      <point x="157.821" y="348.534"/>
      <point x="71" y="403.009"/>
      <point x="71" y="509.132" type="curve" smooth="yes"/>
      <point x="71" y="611"/>
      <point x="151" y="676"/>
      <point x="246.287" y="676" type="curve" smooth="yes"/>
      <point x="314.542" y="676"/>
      <point x="347.956" y="663.095"/>
      <point x="372.183" y="652.723" type="curve" smooth="yes"/>
      <point x="387.546" y="646.145"/>
      <point x="398.543" y="642"/>
      <point x="410.687" y="642" type="curve" smooth="yes"/>
      <point x="433" y="642"/>
      <point x="447" y="657"/>
      <point x="448" y="676" type="curve"/>
      <point x="469" y="676" type="line"/>
      <point x="469" y="463" type="line"/>
      <point x="444" y="463" type="line"/>
      <point x="425" y="554"/>
      <point x="356" y="635"/>
      <point x="263.684" y="635" type="curve" smooth="yes"/>
      <point x="203" y="635"/>
      <point x="157" y="600"/>
      <point x="157" y="543.088" type="curve" smooth="yes"/>
      <point x="157" y="472.259"/>
      <point x="228.246" y="430.676"/>
      <point x="304.928" y="385.921" type="curve" smooth="yes"/>
      <point x="320.528" y="376.795" type="line" smooth="yes"/>
      <point x="405.169" y="327.044"/>
      <point x="491" y="270.922"/>
      <point x="491" y="167" type="curve" smooth="yes"/>
      <point x="491" y="52"/>
      <point x="387" y="-13"/>
      <point x="285.063" y="-13" type="curve" smooth="yes"/>
      <point x="219.253" y="-13"/>
      <point x="187.121" y="-1.92088"/>
      <point x="159.51" y="7.58858" type="curve" smooth="yes"/>
      <point x="138.752" y="14.7379"/>
      <point x="120.548" y="21"/>
      <point x="101.023" y="21" type="curve" smooth="yes"/>
      <point x="71.7308" y="21"/>
      <point x="64" y="6.90495"/>
      <point x="64" y="-13" type="curve"/>
    </contour>
  </outline>
</glyph>
<glyph name="V" format="2">
  <advance width="722"/>
  <unicode hex="0056"/>
  <outline>
    <contour>
      <point x="16" y="643" type="curve"/>
      <point x="16" y="662" type="line"/>
      <point x="282" y="662" type="line"/>
      <point x="282" y="643" type="line"/>
      <point x="268" y="642"/>
      <point x="257" y="641"/>
      <point x="253" y="641" type="curve"/>
      <point x="221" y="639"/>
      <point x="207" y="629"/>
      <point x="207" y="610" type="curve" smooth="yes"/>
      <point x="207" y="595"/>
      <point x="215" y="572"/>
      <point x="248" y="499" type="curve" smooth="yes"/>
      <point x="399" y="161" type="line"/>
      <point x="546" y="528" type="line" smooth="yes"/>
      <point x="558" y="558"/>
      <point x="565" y="585"/>
      <point x="565" y="601" type="curve" smooth="yes"/>
      <point x="565" y="629"/>
      <point x="547" y="640"/>
      <point x="492" y="643" type="curve"/>
      <point x="492" y="662" type="line"/>
      <point x="697" y="662" type="line"/>
      <point x="697" y="643" type="line"/>
      <point x="649" y="640"/>
      <point x="637" y="630"/>
      <point x="605" y="550" type="curve" smooth="yes"/>
      <point x="383" y="-11" type="line"/>
      <point x="368" y="-11" type="line"/>
      <point x="122" y="538" type="line" smooth="yes"/>
      <point x="82" y="628"/>
      <point x="65" y="641"/>
    </contour>
  </outline>
</glyph>
<glyph name="X" format="2">
  <advance width="722"/>
  <unicode hex="0058"/>
  <outline>
    <contour>
      <point x="10" y="0" type="line"/>
      <point x="10" y="19" type="line"/>
      <point x="61" y="23"/>
      <point x="68" y="26"/>
      <point x="155" y="133" type="curve" smooth="yes"/>
      <point x="312" y="326" type="line"/>
      <point x="150.142" y="560.732" type="line" smooth="yes"/>
      <point x="114.101" y="613"/>
      <point x="87" y="640"/>
      <point x="22" y="643" type="curve"/>
      <point x="22" y="662" type="line"/>
      <point x="324" y="662" type="line"/>
      <point x="324" y="643" type="line"/>
      <point x="267.976" y="639.515"/>
      <point x="248" y="638.268"/>
      <point x="248" y="613" type="curve" smooth="yes"/>
      <point x="248" y="598.085"/>
      <point x="255.254" y="579.016"/>
      <point x="270.036" y="557.412" type="curve" smooth="yes"/>
      <point x="375" y="404" type="line"/>
      <point x="511.549" y="571.86" type="line" smooth="yes"/>
      <point x="520.849" y="583.292"/>
      <point x="528" y="596"/>
      <point x="528" y="611" type="curve" smooth="yes"/>
      <point x="528" y="634"/>
      <point x="512" y="641"/>
      <point x="458" y="643" type="curve"/>
      <point x="458" y="662" type="line"/>
      <point x="696" y="662" type="line"/>
      <point x="696" y="643" type="line"/>
      <point x="635.81" y="638.314"/>
      <point x="604.09" y="616.559"/>
      <point x="584.776" y="592.825" type="curve" smooth="yes"/>
      <point x="401" y="367" type="line"/>
      <point x="593" y="93" type="line" smooth="yes"/>
      <point x="634" y="34"/>
      <point x="651" y="25"/>
      <point x="704" y="19" type="curve"/>
      <point x="704" y="0" type="line"/>
      <point x="407" y="0" type="line"/>
      <point x="407" y="19" type="line"/>
      <point x="453.429" y="21.8028"/>
      <point x="484" y="34.1825"/>
      <point x="484" y="51.6199" type="curve" smooth="yes"/>
      <point x="484" y="65"/>
      <point x="466" y="99"/>
      <point x="433" y="148" type="curve" smooth="yes"/>
      <point x="338" y="288" type="line"/>
      <point x="219" y="140" type="line" smooth="yes"/>
      <point x="182" y="94"/>
      <point x="167" y="69"/>
      <point x="167" y="50.8654" type="curve" smooth="yes"/>
      <point x="167" y="31"/>
      <point x="185" y="23"/>
      <point x="243" y="19" type="curve"/>
      <point x="243" y="0" type="line"/>
    </contour>
  </outline>
</glyph>
<glyph name="bracketleft" format="1">
  <advance width="333"/>
  <unicode hex="005B"/>
  <outline>
    <contour>
      <point x="88" y="-156" type="line"/>
      <point x="88" y="662" type="line"/>
      <point x="299" y="662" type="line"/>
      <point x="299" y="637" type="line"/>
      <point x="209" y="637" type="line" smooth="yes"/>
      <point x="177" y="637"/>
      <point x="164" y="624"/>
      <point x="164" y="593" type="curve" smooth="yes"/>
      <point x="164" y="-79" type="line" smooth="yes"/>
      <point x="164" y="-114"/>
      <point x="180" y="-131"/>
      <point x="213" y="-131" type="curve" smooth="yes"/>
      <point x="299" y="-131" type="line"/>
      <point x="299" y="-156" type="line"/>
    </contour>
  </outline>
</glyph>
<glyph name="e" format="2">
  <advance width="444"/>
  <unicode hex="0065"/>
  <outline>
    <contour>
      <point x="25" y="212.307" type="curve" smooth="yes"/>
      <point x="25" y="363"/>
      <point x="113" y="460"/>
      <point x="237.198" y="460" type="curve" smooth="yes"/>
      <point x="350.858" y="460"/>
      <point x="392.475" y="378.762"/>
      <point x="405" y="277" type="curve"/>
      <point x="97" y="277" type="line"/>
      <point x="97" y="180.146"/>
      <point x="132.811" y="59"/>
      <point x="256.489" y="59" type="curve" smooth="yes"/>
      <point x="317" y="59"/>
      <point x="360" y="88"/>
      <point x="408" y="164" type="curve"/>
      <point x="424" y="157" type="line"/>
      <point x="382" y="49"/>
      <point x="307" y="-10"/>
      <point x="212" y="-10" type="curve" smooth="yes"/>
      <point x="97" y="-10"/>
      <point x="25" y="76"/>
    </contour>
    <contour>
      <point x="99" y="309" type="curve"/>
      <point x="303" y="309" type="line"/>
      <point x="302.541" y="324" type="line" smooth="yes"/>
      <point x="300.202" y="400.394"/>
      <point x="262.347" y="424"/>
      <point x="209.794" y="424" type="curve" smooth="yes"/>
      <point x="144" y="424"/>
      <point x="110" y="387"/>
    </contour>
  </outline>
</glyph>
<glyph name="f" format="1">
  <advance width="333"/>
  <unicode hex="0066"/>
  <outline>
    <contour>
      <point x="20" y="0" type="line"/>
      <point x="20" y="15" type="line"/>
      <point x="92" y="19"/>
      <point x="103" y="31"/>
      <point x="103" y="104" type="curve" smooth="yes"/>
      <point x="103" y="418" type="line"/>
      <point x="21" y="418" type="line"/>
      <point x="21" y="450" type="line"/>
      <point x="103" y="450" type="line"/>
      <point x="104" y="530"/>
      <point x="112" y="566"/>
      <point x="138" y="610" type="curve" smooth="yes"/>
      <point x="164" y="656"/>
      <point x="217" y="683"/>
      <point x="279" y="683" type="curve" smooth="yes"/>
      <point x="339" y="683"/>
      <point x="383" y="657"/>
      <point x="383" y="621" type="curve" smooth="yes"/>
      <point x="383" y="598"/>
      <point x="364" y="580"/>
      <point x="341" y="580" type="curve" smooth="yes"/>
      <point x="324" y="580"/>
      <point x="312" y="590"/>
      <point x="296" y="616" type="curve" smooth="yes"/>
      <point x="278" y="645"/>
      <point x="264" y="655"/>
      <point x="243" y="655" type="curve" smooth="yes"/>
      <point x="205" y="655"/>
      <point x="186" y="624"/>
      <point x="186" y="566" type="curve" smooth="yes"/>
      <point x="186" y="450" type="line"/>
      <point x="309" y="450" type="line"/>
      <point x="309" y="418" type="line"/>
      <point x="187" y="418" type="line"/>
      <point x="187" y="104" type="line" smooth="yes"/>
      <point x="187" y="29"/>
      <point x="198" y="18"/>
      <point x="280" y="15" type="curve"/>
      <point x="280" y="0" type="line"/>
    </contour>
  </outline>
</glyph>
<glyph name="h" format="2">
  <advance width="525"/>
  <unicode hex="0068"/>
  <outline>
    <component base="l" xOffset="-3"/>
    <contour>
      <point x="141" y="338" type="line"/>
      <point x="186" y="379" type="line" smooth="yes"/>
      <point x="255.027" y="441.891"/>
      <point x="285" y="460"/>
      <point x="328.502" y="460" type="curve" smooth="yes"/>
      <point x="405" y="460"/>
      <point x="449" y="404"/>
      <point x="449" y="310" type="curve" smooth="yes"/>
      <point x="449" y="88" type="line" smooth="yes"/>
      <point x="449" y="32"/>
      <point x="461" y="21"/>
      <point x="513" y="15" type="curve"/>
      <point x="513" y="0" type="line"/>
      <point x="301" y="0" type="line"/>
      <point x="301" y="15" type="line"/>
      <point x="353" y="21"/>
      <point x="365" y="32"/>
      <point x="365" y="88" type="curve" smooth="yes"/>
      <point x="365" y="308" type="line" smooth="yes"/>
      <point x="365" y="374"/>
      <point x="341" y="405"/>
      <point x="287.634" y="405" type="curve" smooth="yes"/>
      <point x="259" y="405"/>
      <point x="233.919" y="396.075"/>
      <point x="189" y="348" type="curve" smooth="yes"/>
      <point x="141.272" y="296.919" type="line"/>
    </contour>
  </outline>
</glyph>
<glyph name="j" format="2">
  <advance width="278"/>
  <unicode hex="006A"/>
  <outline>
    <contour>
      <point x="-32.9845" y="-163" type="curve" smooth="yes"/>
      <point x="-32.9845" y="-140.983"/>
      <point x="-17.5266" y="-124"/>
      <point x="2.51262" y="-124" type="curve" smooth="yes"/>
      <point x="23.8169" y="-124"/>
      <point x="38.8582" y="-137.191"/>
      <point x="39" y="-156" type="curve" smooth="yes"/>
      <point x="39.0671" y="-164.898"/>
      <point x="35.0144" y="-175.284"/>
      <point x="29.6211" y="-180.985" type="curve"/>
      <point x="32.8221" y="-187"/>
      <point x="45.5869" y="-190.24"/>
      <point x="56.3458" y="-190.24" type="curve" smooth="yes"/>
      <point x="92.1614" y="-190.24"/>
      <point x="109" y="-143.793"/>
      <point x="109" y="-45" type="curve" smooth="yes"/>
      <point x="109" y="388" type="line" smooth="yes"/>
      <point x="109" y="419.905"/>
      <point x="81.8159" y="439.675"/>
      <point x="32" y="444" type="curve"/>
      <point x="32" y="460" type="line"/>
      <point x="193" y="460" type="line"/>
      <point x="193" y="0" type="line" smooth="yes"/>
      <point x="193" y="-152.92"/>
      <point x="149.306" y="-218"/>
      <point x="46.6371" y="-218" type="curve" smooth="yes"/>
      <point x="5.62571" y="-218"/>
      <point x="-32.9845" y="-191.329"/>
    </contour>
    <contour>
      <point x="92" y="633" type="curve" smooth="yes"/>
      <point x="92" y="659"/>
      <point x="115" y="682"/>
      <point x="140" y="682" type="curve" smooth="yes"/>
      <point x="168" y="682"/>
      <point x="191" y="659"/>
      <point x="191" y="632" type="curve" smooth="yes"/>
      <point x="191" y="605"/>
      <point x="168" y="583"/>
      <point x="140" y="583" type="curve" smooth="yes"/>
      <point x="113" y="583"/>
      <point x="92" y="605"/>
    </contour>
  </outline>
</glyph>
<glyph name="l" format="1">
  <advance width="278"/>
  <unicode hex="006C"/>
  <outline>
    <contour>
      <point x="19" y="623" type="line"/>
      <point x="19" y="639" type="line"/>
      <point x="88" y="656"/>
      <point x="126" y="666"/>
      <point x="178" y="683" type="curve"/>
      <point x="182" y="681" type="line"/>
      <point x="182" y="84" type="line" smooth="yes"/>
      <point x="182" y="29"/>
      <point x="194" y="19"/>
      <point x="257" y="15" type="curve"/>
      <point x="257" y="0" type="line"/>
      <point x="21" y="0" type="line"/>
      <point x="21" y="15" type="line"/>
      <point x="84" y="20"/>
      <point x="98" y="33"/>
      <point x="98" y="87" type="curve" smooth="yes"/>
      <point x="98" y="564" type="line" smooth="yes"/>
      <point x="98" y="611"/>
      <point x="88" y="625"/>
      <point x="56" y="625" type="curve" smooth="yes"/>
      <point x="48" y="625"/>
      <point x="36" y="624"/>
      <point x="25" y="623" type="curve" smooth="yes"/>
    </contour>
  </outline>
</glyph>
<glyph name="n" format="2">
  <advance width="500"/>
  <unicode hex="006E"/>
  <outline>
    <component base="dotlessi" xOffset="-15"/>
    <contour>
      <point x="116" y="338" type="line"/>
      <point x="161" y="379" type="line" smooth="yes"/>
      <point x="230.027" y="441.891"/>
      <point x="260" y="460"/>
      <point x="303.502" y="460" type="curve" smooth="yes"/>
      <point x="380" y="460"/>
      <point x="424" y="404"/>
      <point x="424" y="310" type="curve" smooth="yes"/>
      <point x="424" y="88" type="line" smooth="yes"/>
      <point x="424" y="32"/>
      <point x="436" y="21"/>
      <point x="488" y="15" type="curve"/>
      <point x="488" y="0" type="line"/>
      <point x="276" y="0" type="line"/>
      <point x="276" y="15" type="line"/>
      <point x="328" y="21"/>
      <point x="340" y="32"/>
      <point x="340" y="88" type="curve" smooth="yes"/>
      <point x="340" y="308" type="line" smooth="yes"/>
      <point x="340" y="374"/>
      <point x="316" y="405"/>
      <point x="262.634" y="405" type="curve" smooth="yes"/>
      <point x="234" y="405"/>
      <point x="208.919" y="396.075"/>
      <point x="164" y="348" type="curve" smooth="yes"/>
      <point x="116.272" y="296.919" type="line"/>
    </contour>
  </outline>
</glyph>
<glyph name="o" format="2">
  <advance width="500"/>
  <unicode hex="006F"/>
  <outline>
    <contour>
      <point x="29" y="225" type="curve" smooth="yes"/>
      <point x="29" y="365"/>
      <point x="115" y="460"/>
      <point x="245" y="460" type="curve" smooth="yes"/>
      <point x="375" y="460"/>
      <point x="461" y="365"/>
      <point x="461" y="225" type="curve" smooth="yes"/>
      <point x="461" y="85"/>
      <point x="375" y="-10"/>
      <point x="245" y="-10" type="curve" smooth="yes"/>
      <point x="115" y="-10"/>
      <point x="29" y="85"/>
    </contour>
    <contour>
      <point x="119" y="225" type="curve" smooth="yes"/>
      <point x="119" y="105"/>
      <point x="165" y="18"/>
      <point x="245" y="18" type="curve" smooth="yes"/>
      <point x="325" y="18"/>
      <point x="371" y="105"/>
      <point x="371" y="225" type="curve" smooth="yes"/>
      <point x="371" y="345"/>
      <point x="325" y="432"/>
      <point x="245" y="432" type="curve" smooth="yes"/>
      <point x="165" y="432"/>
      <point x="119" y="345"/>
    </contour>
  </outline>
</glyph>
<glyph name="p" format="2">
  <advance width="500"/>
  <unicode hex="0070"/>
  <outline>
    <contour>
      <point x="5" y="-200" type="line"/>
      <point x="64" y="-194"/>
      <point x="75" y="-183"/>
      <point x="75" y="-131" type="curve" smooth="yes"/>
      <point x="75" y="388" type="line" smooth="yes"/>
      <point x="75" y="419.715"/>
      <point x="54.3807" y="437.598"/>
      <point x="9" y="444" type="curve"/>
      <point x="9" y="460" type="line"/>
      <point x="159" y="460" type="line"/>
      <point x="159" y="381" type="line"/>
      <point x="203.391" y="435"/>
      <point x="247.782" y="460"/>
      <point x="301.075" y="460" type="curve" smooth="yes"/>
      <point x="401.628" y="460"/>
      <point x="470" y="371"/>
      <point x="470" y="245.747" type="curve" smooth="yes"/>
      <point x="470" y="102"/>
      <point x="379.947" y="-10"/>
      <point x="255.662" y="-10" type="curve" smooth="yes"/>
      <point x="218.524" y="-10"/>
      <point x="194.311" y="0"/>
      <point x="159" y="33" type="curve"/>
      <point x="159" y="-124" type="line" smooth="yes"/>
      <point x="159" y="-187"/>
      <point x="172.116" y="-199"/>
      <point x="247.782" y="-199" type="curve"/>
      <point x="247.782" y="-217" type="line"/>
      <point x="5" y="-217" type="line"/>
    </contour>
    <contour>
      <point x="159" y="88" type="line" smooth="yes"/>
      <point x="159" y="58"/>
      <point x="216.507" y="22"/>
      <point x="265.643" y="22" type="curve" smooth="yes"/>
      <point x="336.564" y="22"/>
      <point x="386" y="97"/>
      <point x="386" y="210.5" type="curve" smooth="yes"/>
      <point x="386" y="324"/>
      <point x="336.564" y="400"/>
      <point x="264.853" y="400" type="curve" smooth="yes"/>
      <point x="215.498" y="400"/>
      <point x="159" y="364"/>
      <point x="159" y="334" type="curve" smooth="yes"/>
    </contour>
  </outline>
</glyph>
<glyph name="q" format="2">
  <advance width="500"/>
  <unicode hex="0071"/>
  <outline>
    <contour>
      <point x="24" y="202.067" type="curve" smooth="yes"/>
      <point x="24" y="339"/>
      <point x="111.026" y="460"/>
      <point x="250.636" y="460" type="curve" smooth="yes"/>
      <point x="294.602" y="460"/>
      <point x="319.818" y="448"/>
      <point x="360" y="425" type="curve"/>
      <point x="421" y="460" type="line"/>
      <point x="425" y="460" type="line"/>
      <point x="425" y="-141" type="line" smooth="yes"/>
      <point x="425" y="-189"/>
      <point x="445" y="-194"/>
      <point x="488" y="-203" type="curve"/>
      <point x="488" y="-217" type="line"/>
      <point x="251.229" y="-217" type="line"/>
      <point x="251.229" y="-200" type="line"/>
      <point x="310.74" y="-198"/>
      <point x="341" y="-187"/>
      <point x="341" y="-124" type="curve" smooth="yes"/>
      <point x="341" y="62" type="line"/>
      <point x="316.792" y="21"/>
      <point x="232.065" y="-10"/>
      <point x="186.675" y="-10" type="curve" smooth="yes"/>
      <point x="65.0233" y="-10"/>
      <point x="24" y="108"/>
    </contour>
    <contour>
      <point x="108" y="241" type="curve" smooth="yes"/>
      <point x="108" y="159"/>
      <point x="140.277" y="51"/>
      <point x="243.744" y="51" type="curve" smooth="yes"/>
      <point x="287.344" y="51"/>
      <point x="319.967" y="70.1773"/>
      <point x="341" y="111.735" type="curve"/>
      <point x="341" y="333" type="line" smooth="yes"/>
      <point x="341" y="397"/>
      <point x="312.758" y="432"/>
      <point x="250.372" y="432" type="curve" smooth="yes"/>
      <point x="140.277" y="432"/>
      <point x="108" y="323"/>
    </contour>
  </outline>
</glyph>
<glyph name="r" format="2">
  <advance width="344"/>
  <unicode hex="0072"/>
  <outline>
    <contour>
      <point x="16" y="0" type="line"/>
      <point x="16" y="15" type="line"/>
      <point x="80" y="27"/>
      <point x="87" y="34"/>
      <point x="87" y="84" type="curve" smooth="yes"/>
      <point x="87" y="388" type="line" smooth="yes"/>
      <point x="87" y="417.131"/>
      <point x="59.0346" y="439.827"/>
      <point x="18" y="444" type="curve"/>
      <point x="18" y="460" type="line"/>
      <point x="171" y="460" type="line"/>
      <point x="171" y="366" type="line"/>
      <point x="220" y="437"/>
      <point x="249" y="460"/>
      <point x="288.327" y="460" type="curve" smooth="yes"/>
      <point x="325" y="460"/>
      <point x="346" y="440"/>
      <point x="346" y="407" type="curve" smooth="yes"/>
      <point x="346" y="379"/>
      <point x="331" y="362"/>
      <point x="307" y="362" type="curve" smooth="yes"/>
      <point x="294" y="362"/>
      <point x="283" y="368"/>
      <point x="268.723" y="380.691" type="curve" smooth="yes"/>
      <point x="256" y="392"/>
      <point x="247" y="397"/>
      <point x="239.072" y="397" type="curve" smooth="yes"/>
      <point x="214" y="397"/>
      <point x="171" y="347"/>
      <point x="171" y="315" type="curve" smooth="yes"/>
      <point x="171" y="90" type="line" smooth="yes"/>
      <point x="171" y="33"/>
      <point x="188" y="18"/>
      <point x="256" y="15" type="curve"/>
      <point x="256" y="0" type="line"/>
    </contour>
  </outline>
</glyph>
<glyph name="v" format="2">
  <advance width="500"/>
  <unicode hex="0076"/>
  <outline>
    <contour>
      <point x="19" y="435" type="curve"/>
      <point x="19" y="450" type="line"/>
      <point x="215" y="450" type="line"/>
      <point x="215" y="435" type="line"/>
      <point x="195" y="434"/>
      <point x="169" y="431"/>
      <point x="169" y="405" type="curve" smooth="yes"/>
      <point x="169" y="398.136"/>
      <point x="172.954" y="380.89"/>
      <point x="181.835" y="358.869" type="curve" smooth="yes"/>
      <point x="284.743" y="103.7" type="line"/>
      <point x="276.08" y="103.7" type="line"/>
      <point x="375.526" y="361.854" type="line" smooth="yes"/>
      <point x="382.46" y="379.852"/>
      <point x="385" y="394.479"/>
      <point x="385" y="402" type="curve" smooth="yes"/>
      <point x="385" y="427"/>
      <point x="358" y="434"/>
      <point x="338" y="435" type="curve"/>
      <point x="338" y="450" type="line"/>
      <point x="477" y="450" type="line"/>
      <point x="477" y="435" type="line"/>
      <point x="442.676" y="432.548"/>
      <point x="425.518" y="390.798"/>
      <point x="412" y="357" type="curve" smooth="yes"/>
      <point x="265.272" y="-9.86105" type="line"/>
      <point x="243" y="-10" type="line"/>
      <point x="87.5513" y="371.251" type="line" smooth="yes"/>
      <point x="74.5468" y="403.145"/>
      <point x="54.6805" y="429.229"/>
    </contour>
  </outline>
</glyph>
<glyph name="w" format="2">
  <advance width="722"/>
  <unicode hex="0077"/>
  <outline>
    <contour>
      <point x="21" y="435" type="curve"/>
      <point x="21" y="450" type="line"/>
      <point x="201" y="450" type="line"/>
      <point x="201" y="435" type="line"/>
      <point x="167" y="431"/>
      <point x="155" y="423"/>
      <point x="155" y="400.987" type="curve" smooth="yes"/>
      <point x="155" y="392"/>
      <point x="157" y="382"/>
      <point x="161" y="372" type="curve" smooth="yes"/>
      <point x="260" y="111" type="line"/>
      <point x="351" y="310" type="line"/>
      <point x="331" y="366" type="line" smooth="yes"/>
      <point x="311" y="420"/>
      <point x="299" y="431"/>
      <point x="262" y="435" type="curve"/>
      <point x="262" y="450" type="line"/>
      <point x="465" y="450" type="line"/>
      <point x="465" y="435" type="line"/>
      <point x="418" y="428"/>
      <point x="407" y="421"/>
      <point x="407" y="406.615" type="curve" smooth="yes"/>
      <point x="407" y="389"/>
      <point x="423.493" y="346.848"/>
      <point x="426" y="340" type="curve" smooth="yes"/>
      <point x="508" y="116" type="line"/>
      <point x="598" y="338" type="line" smooth="yes"/>
      <point x="609" y="365"/>
      <point x="615" y="389"/>
      <point x="615" y="402.968" type="curve" smooth="yes"/>
      <point x="615" y="421"/>
      <point x="605" y="428"/>
      <point x="571" y="435" type="curve"/>
      <point x="571" y="450" type="line"/>
      <point x="694" y="450" type="line"/>
      <point x="694" y="435" type="line"/>
      <point x="674" y="428"/>
      <point x="669.938" y="423.44"/>
      <point x="653" y="381" type="curve" smooth="yes"/>
      <point x="496.838" y="-10.2848" type="line"/>
      <point x="477" y="-10" type="line"/>
      <point x="372" y="265" type="line"/>
      <point x="244.414" y="-10.4696" type="line"/>
      <point x="224" y="-10" type="line"/>
      <point x="74" y="372" type="line" smooth="yes"/>
      <point x="53.6366" y="423.859"/>
      <point x="44" y="433"/>
    </contour>
  </outline>
</glyph>
<glyph name="exclamdown" format="2">
  <advance width="333"/>
  <unicode hex="00A1"/>
  <outline>
    <contour>
      <point x="95" y="417" type="curve" smooth="yes"/>
      <point x="95" y="447"/>
      <point x="119.208" y="469"/>
      <point x="150.5" y="469" type="curve" smooth="yes"/>
      <point x="181.792" y="469"/>
      <point x="205" y="447"/>
      <point x="205" y="417" type="curve" smooth="yes"/>
      <point x="205" y="387"/>
      <point x="180.783" y="362"/>
      <point x="150.5" y="362" type="curve" smooth="yes"/>
      <point x="120.217" y="362"/>
      <point x="95" y="386"/>
    </contour>
    <contour>
      <point x="90" y="-150" type="curve" smooth="yes"/>
      <point x="90" y="-80.1962"/>
      <point x="99.3763" y="-8.69148"/>
      <point x="108.94" y="52.7863" type="curve" smooth="yes"/>
      <point x="121.579" y="134.035"/>
      <point x="131.22" y="207.919"/>
      <point x="131.434" y="284" type="curve"/>
      <point x="168.557" y="284" type="line"/>
      <point x="168.722" y="208.236"/>
      <point x="178.258" y="135.319"/>
      <point x="189.664" y="63.0917" type="curve" smooth="yes"/>
      <point x="200.792" y="-7.37835"/>
      <point x="210" y="-80.4963"/>
      <point x="210" y="-150" type="curve" smooth="yes"/>
      <point x="210" y="-199.82"/>
      <point x="183.295" y="-216"/>
      <point x="149.603" y="-216" type="curve" smooth="yes"/>
      <point x="114.084" y="-216"/>
      <point x="90" y="-196.862"/>
    </contour>
  </outline>
</glyph>
<glyph name="sterling" format="1">
  <advance width="500"/>
  <unicode hex="00A3"/>
  <outline>
    <contour>
      <point x="12" y="54" type="curve" smooth="yes"/>
      <point x="12" y="100"/>
      <point x="49" y="130"/>
      <point x="103" y="130" type="curve" smooth="yes"/>
      <point x="118" y="130"/>
      <point x="130" y="129"/>
      <point x="149" y="125" type="curve"/>
      <point x="152" y="133"/>
      <point x="153" y="139"/>
      <point x="153" y="146" type="curve" smooth="yes"/>
      <point x="153" y="164"/>
      <point x="151" y="181"/>
      <point x="131" y="328" type="curve"/>
      <point x="23" y="328" type="line"/>
      <point x="23" y="373" type="line"/>
      <point x="130" y="373" type="line"/>
      <point x="125" y="399"/>
      <point x="123" y="418"/>
      <point x="123" y="442" type="curve" smooth="yes"/>
      <point x="123" y="585"/>
      <point x="199" y="676"/>
      <point x="318" y="676" type="curve" smooth="yes"/>
      <point x="392" y="676"/>
      <point x="448" y="636"/>
      <point x="448" y="583" type="curve" smooth="yes"/>
      <point x="448" y="552"/>
      <point x="427" y="530"/>
      <point x="398" y="530" type="curve" smooth="yes"/>
      <point x="368" y="530"/>
      <point x="360" y="544"/>
      <point x="359" y="597" type="curve" smooth="yes"/>
      <point x="358" y="632"/>
      <point x="340" y="649"/>
      <point x="303" y="649" type="curve" smooth="yes"/>
      <point x="243" y="649"/>
      <point x="208" y="598"/>
      <point x="208" y="510" type="curve" smooth="yes"/>
      <point x="208" y="474"/>
      <point x="211" y="441"/>
      <point x="219" y="373" type="curve"/>
      <point x="344" y="373" type="line"/>
      <point x="344" y="328" type="line"/>
      <point x="223" y="328" type="line"/>
      <point x="223" y="301" type="line"/>
      <point x="224" y="273" type="line" smooth="yes"/>
      <point x="224" y="238"/>
      <point x="223" y="233"/>
      <point x="199" y="111" type="curve"/>
      <point x="264" y="84"/>
      <point x="299" y="76"/>
      <point x="348" y="76" type="curve" smooth="yes"/>
      <point x="394" y="76"/>
      <point x="429" y="91"/>
      <point x="461" y="125" type="curve" smooth="yes"/>
      <point x="471" y="136"/>
      <point x="479" y="141"/>
      <point x="484" y="141" type="curve" smooth="yes"/>
      <point x="488" y="141"/>
      <point x="490" y="139"/>
      <point x="490" y="136" type="curve" smooth="yes"/>
      <point x="490" y="119"/>
      <point x="468" y="75"/>
      <point x="447" y="51" type="curve" smooth="yes"/>
      <point x="415" y="14"/>
      <point x="370" y="-7"/>
      <point x="322" y="-7" type="curve" smooth="yes"/>
      <point x="279" y="-7"/>
      <point x="246" y="7"/>
      <point x="178" y="54" type="curve"/>
      <point x="138" y="7"/>
      <point x="115" y="-8"/>
      <point x="80" y="-8" type="curve" smooth="yes"/>
      <point x="39" y="-8"/>
      <point x="12" y="16"/>
    </contour>
    <contour>
      <point x="38" y="57" type="curve" smooth="yes"/>
      <point x="38" y="35"/>
      <point x="55" y="20"/>
      <point x="79" y="20" type="curve" smooth="yes"/>
      <point x="99" y="20"/>
      <point x="111" y="26"/>
      <point x="125" y="43" type="curve" smooth="yes"/>
      <point x="136" y="56"/>
      <point x="142" y="68"/>
      <point x="142" y="76" type="curve" smooth="yes"/>
      <point x="142" y="84"/>
      <point x="113" y="94"/>
      <point x="89" y="94" type="curve" smooth="yes"/>
      <point x="56" y="94"/>
      <point x="38" y="81"/>
    </contour>
  </outline>
</glyph>
<glyph name="currency" format="1">
  <advance width="500"/>
  <unicode hex="00A4"/>
  <outline>
    <contour>
      <point x="-22" y="108" type="line"/>
      <point x="76" y="204" type="line"/>
      <point x="47" y="246"/>
      <point x="35" y="283"/>
      <point x="35" y="330" type="curve" smooth="yes"/>
      <point x="35" y="378"/>
      <point x="47" y="416"/>
      <point x="76" y="456" type="curve"/>
      <point x="-22" y="554" type="line"/>
      <point x="28" y="602" type="line"/>
      <point x="124" y="506" type="line"/>
      <point x="169" y="535"/>
      <point x="202" y="545"/>
      <point x="251" y="545" type="curve" smooth="yes"/>
      <point x="299" y="545"/>
      <point x="337" y="533"/>
      <point x="376" y="506" type="curve"/>
      <point x="474" y="602" type="line"/>
      <point x="522" y="554" type="line"/>
      <point x="426" y="456" type="line"/>
      <point x="455" y="413"/>
      <point x="465" y="380"/>
      <point x="465" y="331" type="curve" smooth="yes"/>
      <point x="465" y="283"/>
      <point x="455" y="249"/>
      <point x="426" y="204" type="curve"/>
      <point x="522" y="108" type="line"/>
      <point x="474" y="58" type="line"/>
      <point x="376" y="156" type="line"/>
      <point x="337" y="128"/>
      <point x="298" y="115"/>
      <point x="251" y="115" type="curve" smooth="yes"/>
      <point x="205" y="115"/>
      <point x="166" y="128"/>
      <point x="124" y="156" type="curve"/>
      <point x="28" y="58" type="line"/>
    </contour>
    <contour>
      <point x="103" y="330" type="curve" smooth="yes"/>
      <point x="103" y="247"/>
      <point x="169" y="179"/>
      <point x="251" y="179" type="curve" smooth="yes"/>
      <point x="332" y="179"/>
      <point x="397" y="246"/>
      <point x="397" y="331" type="curve" smooth="yes"/>
      <point x="397" y="413"/>
      <point x="332" y="481"/>
      <point x="253" y="481" type="curve" smooth="yes"/>
      <point x="169" y="481"/>
      <point x="103" y="414"/>
    </contour>
  </outline>
</glyph>
<glyph name="section" format="1">
  <advance width="500"/>
  <unicode hex="00A7"/>
  <outline>
    <contour>
      <point x="70" y="286" type="curve" smooth="yes"/>
      <point x="70" y="354"/>
      <point x="119" y="405"/>
      <point x="185" y="405" type="curve" smooth="yes"/>
      <point x="191" y="405"/>
      <point x="200" y="405"/>
      <point x="210" y="404" type="curve"/>
      <point x="130" y="470"/>
      <point x="110" y="500"/>
      <point x="110" y="554" type="curve" smooth="yes"/>
      <point x="110" y="626"/>
      <point x="166" y="676"/>
      <point x="249" y="676" type="curve" smooth="yes"/>
      <point x="322" y="676"/>
      <point x="377" y="634"/>
      <point x="377" y="578" type="curve" smooth="yes"/>
      <point x="377" y="545"/>
      <point x="358" y="525"/>
      <point x="326" y="525" type="curve" smooth="yes"/>
      <point x="299" y="525"/>
      <point x="279" y="543"/>
      <point x="279" y="568" type="curve" smooth="yes"/>
      <point x="279" y="584"/>
      <point x="289" y="600"/>
      <point x="305" y="612" type="curve" smooth="yes"/>
      <point x="310" y="617"/>
      <point x="313" y="620"/>
      <point x="313" y="623" type="curve" smooth="yes"/>
      <point x="313" y="641"/>
      <point x="285" y="655"/>
      <point x="251" y="655" type="curve" smooth="yes"/>
      <point x="200" y="655"/>
      <point x="166" y="626"/>
      <point x="166" y="584" type="curve" smooth="yes"/>
      <point x="166" y="559"/>
      <point x="180" y="530"/>
      <point x="200" y="513" type="curve" smooth="yes"/>
      <point x="337" y="400" type="line" smooth="yes"/>
      <point x="395" y="352"/>
      <point x="426" y="298"/>
      <point x="426" y="245" type="curve" smooth="yes"/>
      <point x="426" y="175"/>
      <point x="378" y="125"/>
      <point x="310" y="125" type="curve" smooth="yes"/>
      <point x="292" y="125" type="line"/>
      <point x="367" y="60"/>
      <point x="386" y="30"/>
      <point x="386" y="-21" type="curve" smooth="yes"/>
      <point x="386" y="-97"/>
      <point x="329" y="-148"/>
      <point x="242" y="-148" type="curve" smooth="yes"/>
      <point x="164" y="-148"/>
      <point x="104" y="-104"/>
      <point x="104" y="-48" type="curve" smooth="yes"/>
      <point x="104" y="-17"/>
      <point x="127" y="6"/>
      <point x="158" y="6" type="curve" smooth="yes"/>
      <point x="185" y="6"/>
      <point x="206" y="-12"/>
      <point x="206" y="-36" type="curve" smooth="yes"/>
      <point x="206" y="-50"/>
      <point x="199" y="-63"/>
      <point x="183" y="-77" type="curve" smooth="yes"/>
      <point x="176" y="-83"/>
      <point x="172" y="-88"/>
      <point x="172" y="-92" type="curve" smooth="yes"/>
      <point x="172" y="-110"/>
      <point x="206" y="-127"/>
      <point x="243" y="-127" type="curve" smooth="yes"/>
      <point x="296" y="-127"/>
      <point x="330" y="-97"/>
      <point x="330" y="-50" type="curve" smooth="yes"/>
      <point x="330" y="-11"/>
      <point x="305" y="21"/>
      <point x="241" y="65" type="curve" smooth="yes"/>
      <point x="119" y="149"/>
      <point x="70" y="213"/>
    </contour>
    <contour>
      <point x="123" y="316" type="curve" smooth="yes"/>
      <point x="123" y="286"/>
      <point x="135" y="263"/>
      <point x="169" y="229" type="curve" smooth="yes"/>
      <point x="229" y="169"/>
      <point x="267" y="146"/>
      <point x="305" y="146" type="curve" smooth="yes"/>
      <point x="342" y="146"/>
      <point x="374" y="177"/>
      <point x="374" y="212" type="curve" smooth="yes"/>
      <point x="374" y="238"/>
      <point x="355" y="271"/>
      <point x="321" y="305" type="curve" smooth="yes"/>
      <point x="275" y="351"/>
      <point x="222" y="383"/>
      <point x="191" y="383" type="curve" smooth="yes"/>
      <point x="152" y="383"/>
      <point x="123" y="355"/>
    </contour>
  </outline>
</glyph>
<glyph name="dieresis" format="2">
  <advance width="333"/>
  <unicode hex="00A8"/>
  <outline>
    <contour>
      <point x="18" y="573" type="curve" smooth="yes"/>
      <point x="18" y="599"/>
      <point x="41" y="622"/>
      <point x="66" y="622" type="curve" smooth="yes"/>
      <point x="94" y="622"/>
      <point x="117" y="599"/>
      <point x="117" y="572" type="curve" smooth="yes"/>
      <point x="117" y="545"/>
      <point x="94" y="523"/>
      <point x="66" y="523" type="curve" smooth="yes"/>
      <point x="39" y="523"/>
      <point x="18" y="545"/>
    </contour>
    <contour>
      <point x="217" y="573" type="curve" smooth="yes"/>
      <point x="217" y="599"/>
      <point x="240" y="622"/>
      <point x="265" y="622" type="curve" smooth="yes"/>
      <point x="293" y="622"/>
      <point x="316" y="599"/>
      <point x="316" y="572" type="curve" smooth="yes"/>
      <point x="316" y="545"/>
      <point x="293" y="523"/>
      <point x="265" y="523" type="curve" smooth="yes"/>
      <point x="238" y="523"/>
      <point x="217" y="545"/>
    </contour>
  </outline>
</glyph>
<glyph name="ordfeminine" format="2">
  <advance width="276"/>
  <unicode hex="00AA"/>
  <outline>
    <contour>
      <point x="4" y="462" type="curve" smooth="yes"/>
      <point x="4" y="482"/>
      <point x="13" y="502"/>
      <point x="26" y="513" type="curve" smooth="yes"/>
      <point x="53" y="536"/>
      <point x="66" y="543"/>
      <point x="157" y="576" type="curve"/>
      <point x="157" y="606" type="line" smooth="yes"/>
      <point x="157" y="633"/>
      <point x="144" y="648"/>
      <point x="121" y="648" type="curve" smooth="yes"/>
      <point x="99" y="648"/>
      <point x="76" y="636"/>
      <point x="76" y="625" type="curve" smooth="yes"/>
      <point x="76" y="621"/>
      <point x="77" y="616"/>
      <point x="78" y="611" type="curve"/>
      <point x="79" y="608"/>
      <point x="79" y="605"/>
      <point x="79" y="603" type="curve"/>
      <point x="79" y="590"/>
      <point x="64" y="578"/>
      <point x="48" y="578" type="curve" smooth="yes"/>
      <point x="30" y="578"/>
      <point x="16" y="592"/>
      <point x="16" y="609" type="curve" smooth="yes"/>
      <point x="16" y="648"/>
      <point x="62" y="676"/>
      <point x="124" y="676" type="curve" smooth="yes"/>
      <point x="194" y="676"/>
      <point x="229" y="644"/>
      <point x="229" y="580" type="curve" smooth="yes"/>
      <point x="229" y="465" type="line" smooth="yes"/>
      <point x="229" y="436"/>
      <point x="231" y="430"/>
      <point x="242" y="430" type="curve" smooth="yes"/>
      <point x="252" y="430"/>
      <point x="260" y="434"/>
      <point x="270" y="442" type="curve"/>
      <point x="270" y="424" type="line"/>
      <point x="247" y="401"/>
      <point x="233" y="394"/>
      <point x="211" y="394" type="curve" smooth="yes"/>
      <point x="184" y="394"/>
      <point x="172" y="406"/>
      <point x="166" y="438" type="curve"/>
      <point x="133" y="408"/>
      <point x="105" y="394"/>
      <point x="75" y="394" type="curve" smooth="yes"/>
      <point x="34" y="394"/>
      <point x="4" y="422"/>
    </contour>
    <contour>
      <point x="67" y="485" type="curve" smooth="yes"/>
      <point x="67" y="461"/>
      <point x="84" y="441"/>
      <point x="105" y="441" type="curve" smooth="yes"/>
      <point x="118" y="441"/>
      <point x="130" y="444"/>
      <point x="147" y="452" type="curve"/>
      <point x="155" y="459"/>
      <point x="158" y="466"/>
      <point x="158" y="474" type="curve" smooth="yes"/>
      <point x="158" y="551" type="line"/>
      <point x="88" y="526"/>
      <point x="67" y="511"/>
    </contour>
  </outline>
</glyph>
<glyph name="registered" format="1">
  <advance width="760"/>
  <unicode hex="00AE"/>
  <outline>
    <contour>
      <point x="38" y="330" type="curve" smooth="yes"/>
      <point x="38" y="523"/>
      <point x="190" y="676"/>
      <point x="381" y="676" type="curve" smooth="yes"/>
      <point x="573" y="676"/>
      <point x="722" y="523"/>
      <point x="722" y="325" type="curve" smooth="yes"/>
      <point x="722" y="138"/>
      <point x="569" y="-14"/>
      <point x="381" y="-14" type="curve" smooth="yes"/>
      <point x="190" y="-14"/>
      <point x="38" y="138"/>
    </contour>
    <contour>
      <point x="93" y="330" type="curve" smooth="yes"/>
      <point x="93" y="166"/>
      <point x="224" y="28"/>
      <point x="381" y="28" type="curve" smooth="yes"/>
      <point x="535" y="28"/>
      <point x="667" y="166"/>
      <point x="667" y="326" type="curve" smooth="yes"/>
      <point x="667" y="497"/>
      <point x="539" y="634"/>
      <point x="381" y="634" type="curve" smooth="yes"/>
      <point x="224" y="634"/>
      <point x="93" y="496"/>
    </contour>
    <contour>
      <point x="219" y="152" type="line"/>
      <point x="219" y="167" type="line"/>
      <point x="268" y="172"/>
      <point x="268" y="172"/>
      <point x="268" y="215" type="curve" smooth="yes"/>
      <point x="268" y="456" type="line" smooth="yes"/>
      <point x="268" y="500"/>
      <point x="268" y="500"/>
      <point x="219" y="505" type="curve"/>
      <point x="219" y="520" type="line"/>
      <point x="396" y="520" type="line" smooth="yes"/>
      <point x="466" y="520"/>
      <point x="511" y="484"/>
      <point x="511" y="428" type="curve" smooth="yes"/>
      <point x="511" y="380"/>
      <point x="484" y="345"/>
      <point x="432" y="324" type="curve"/>
      <point x="489" y="245" type="line" smooth="yes"/>
      <point x="517" y="206"/>
      <point x="541" y="180"/>
      <point x="565" y="160" type="curve"/>
      <point x="565" y="152" type="line"/>
      <point x="501" y="152" type="line" smooth="yes"/>
      <point x="484" y="152"/>
      <point x="460" y="180"/>
      <point x="432" y="231" type="curve" smooth="yes"/>
      <point x="421" y="251"/>
      <point x="417" y="258"/>
      <point x="380" y="314" type="curve"/>
      <point x="332" y="314" type="line"/>
      <point x="332" y="215" type="line" smooth="yes"/>
      <point x="332" y="172"/>
      <point x="332" y="172"/>
      <point x="381" y="167" type="curve"/>
      <point x="381" y="152" type="line"/>
    </contour>
    <contour>
      <point x="332" y="333" type="line"/>
      <point x="375" y="333" type="line" smooth="yes"/>
      <point x="419" y="333"/>
      <point x="444" y="365"/>
      <point x="444" y="422" type="curve" smooth="yes"/>
      <point x="444" y="474"/>
      <point x="420" y="501"/>
      <point x="373" y="501" type="curve" smooth="yes"/>
      <point x="332" y="501" type="line"/>
    </contour>
  </outline>
</glyph>
<glyph name="degree" format="2">
  <advance width="400"/>
  <unicode hex="00B0"/>
  <outline>
    <contour>
      <point x="57" y="533" type="curve" smooth="yes"/>
      <point x="57" y="613"/>
      <point x="120" y="676"/>
      <point x="200" y="676" type="curve" smooth="yes"/>
      <point x="280" y="676"/>
      <point x="343" y="613"/>
      <point x="343" y="532" type="curve" smooth="yes"/>
      <point x="343" y="452"/>
      <point x="279" y="390"/>
      <point x="198" y="390" type="curve" smooth="yes"/>
      <point x="120" y="390"/>
      <point x="57" y="454"/>
    </contour>
    <contour>
      <point x="96" y="533" type="curve" smooth="yes"/>
      <point x="96" y="474"/>
      <point x="143" y="424"/>
      <point x="199" y="424" type="curve" smooth="yes"/>
      <point x="257" y="424"/>
      <point x="304" y="473"/>
      <point x="304" y="533" type="curve" smooth="yes"/>
      <point x="304" y="592"/>
      <point x="256" y="642"/>
      <point x="200" y="642" type="curve" smooth="yes"/>
      <point x="143" y="642"/>
      <point x="96" y="592"/>
    </contour>
  </outline>
</glyph>
<glyph name="acute" format="1">
  <advance width="364"/>
  <unicode hex="00B4"/>
  <outline>
    <contour>
      <point x="70" y="507" type="line"/>
      <point x="217" y="655" type="line" smooth="yes"/>
      <point x="235" y="673"/>
      <point x="244" y="678"/>
      <point x="259" y="678" type="curve" smooth="yes"/>
      <point x="281" y="678"/>
      <point x="294" y="666"/>
      <point x="294" y="646" type="curve" smooth="yes"/>
      <point x="294" y="630"/>
      <point x="285" y="617"/>
      <point x="264" y="604" type="curve" smooth="yes"/>
      <point x="110" y="507" type="line"/>
    </contour>
  </outline>
</glyph>
<glyph name="mu" format="2">
  <advance width="500"/>
  <unicode hex="00B5"/>
  <outline>
    <contour>
      <point x="36" y="-148" type="curve" smooth="yes"/>
      <point x="36" y="-127"/>
      <point x="41" y="-83"/>
      <point x="48" y="-43" type="curve" smooth="yes"/>
      <point x="58" y="13"/>
      <point x="60" y="32"/>
      <point x="60" y="54" type="curve" smooth="yes"/>
      <point x="60" y="450" type="line"/>
      <point x="148" y="450" type="line"/>
      <point x="148" y="144" type="line" smooth="yes"/>
      <point x="148" y="87"/>
      <point x="180" y="52"/>
      <point x="232" y="52" type="curve" smooth="yes"/>
      <point x="278" y="52"/>
      <point x="318" y="75"/>
      <point x="342" y="115" type="curve"/>
      <point x="342" y="450" type="line"/>
      <point x="430" y="450" type="line"/>
      <point x="430" y="92" type="line" smooth="yes"/>
      <point x="430" y="46"/>
      <point x="440" y="27"/>
      <point x="462" y="27" type="curve" smooth="yes"/>
      <point x="477" y="27"/>
      <point x="489" y="34"/>
      <point x="512" y="55" type="curve"/>
      <point x="512" y="47" type="line"/>
      <point x="479" y="4"/>
      <point x="456" y="-10"/>
      <point x="418" y="-10" type="curve" smooth="yes"/>
      <point x="370" y="-10"/>
      <point x="347" y="18"/>
      <point x="345" y="80" type="curve"/>
      <point x="305" y="18"/>
      <point x="263" y="-10"/>
      <point x="208" y="-10" type="curve" smooth="yes"/>
      <point x="157" y="-10"/>
      <point x="121" y="13"/>
      <point x="91" y="64" type="curve"/>
      <point x="95" y="27"/>
      <point x="97" y="17"/>
      <point x="110" y="-33" type="curve" smooth="yes"/>
      <point x="123" y="-85"/>
      <point x="128" y="-113"/>
      <point x="128" y="-141" type="curve" smooth="yes"/>
      <point x="128" y="-192"/>
      <point x="113" y="-218"/>
      <point x="82" y="-218" type="curve" smooth="yes"/>
      <point x="53" y="-218"/>
      <point x="36" y="-192"/>
    </contour>
  </outline>
</glyph>
<glyph name="cedilla" format="1">
  <advance width="333"/>
  <unicode hex="00B8"/>
  <outline>
    <contour>
      <point x="52" y="-199" type="curve"/>
      <point x="66" y="-168" type="line"/>
      <point x="94" y="-177"/>
      <point x="110" y="-180"/>
      <point x="131" y="-180" type="curve" smooth="yes"/>
      <point x="165" y="-180"/>
      <point x="186" y="-163"/>
      <point x="186" y="-136" type="curve" smooth="yes"/>
      <point x="186" y="-110"/>
      <point x="171" y="-100"/>
      <point x="133" y="-100" type="curve" smooth="yes"/>
      <point x="122" y="-100"/>
      <point x="113" y="-101"/>
      <point x="105" y="-104" type="curve"/>
      <point x="98" y="-99" type="line"/>
      <point x="139" y="0" type="line"/>
      <point x="174" y="0" type="line"/>
      <point x="149" y="-65" type="line"/>
      <point x="159" y="-63"/>
      <point x="165" y="-62"/>
      <point x="175" y="-62" type="curve" smooth="yes"/>
      <point x="229" y="-62"/>
      <point x="261" y="-88"/>
      <point x="261" y="-131" type="curve" smooth="yes"/>
      <point x="261" y="-183"/>
      <point x="213" y="-215"/>
      <point x="136" y="-215" type="curve" smooth="yes"/>
      <point x="104" y="-215"/>
      <point x="81" y="-211"/>
    </contour>
  </outline>
</glyph>
<glyph name="ordmasculine" format="1">
  <advance width="310"/>
  <unicode hex="00BA"/>
  <outline>
    <contour>
      <point x="6" y="533" type="curve" smooth="yes"/>
      <point x="6" y="618"/>
      <point x="68" y="676"/>
      <point x="159" y="676" type="curve" smooth="yes"/>
      <point x="244" y="676"/>
      <point x="304" y="621"/>
      <point x="304" y="542" type="curve" smooth="yes"/>
      <point x="304" y="458"/>
      <point x="238" y="394"/>
      <point x="151" y="394" type="curve" smooth="yes"/>
      <point x="67" y="394"/>
      <point x="6" y="453"/>
    </contour>
    <contour>
      <point x="79" y="569" type="curve" smooth="yes"/>
      <point x="79" y="530"/>
      <point x="88" y="490"/>
      <point x="104" y="461" type="curve" smooth="yes"/>
      <point x="116" y="439"/>
      <point x="135" y="427"/>
      <point x="160" y="427" type="curve" smooth="yes"/>
      <point x="206" y="427"/>
      <point x="231" y="458"/>
      <point x="231" y="514" type="curve" smooth="yes"/>
      <point x="231" y="589"/>
      <point x="198" y="643"/>
      <point x="150" y="643" type="curve" smooth="yes"/>
      <point x="107" y="643"/>
      <point x="79" y="614"/>
    </contour>
  </outline>
</glyph>
<glyph name="guillemotright" format="1">
  <advance width="500"/>
  <unicode hex="00BB"/>
  <outline>
    <contour>
      <point x="44" y="405" type="curve" smooth="yes"/>
      <point x="44" y="412"/>
      <point x="49" y="416"/>
      <point x="55" y="416" type="curve" smooth="yes"/>
      <point x="63" y="416"/>
      <point x="118" y="353"/>
      <point x="182" y="297" type="curve" smooth="yes"/>
      <point x="192" y="288"/>
      <point x="266" y="224"/>
      <point x="266" y="222" type="curve" smooth="yes"/>
      <point x="235" y="195" type="line" smooth="yes"/>
      <point x="202" y="167"/>
      <point x="135" y="108"/>
      <point x="71" y="45" type="curve" smooth="yes"/>
      <point x="59" y="33"/>
      <point x="59" y="33"/>
      <point x="55" y="33" type="curve" smooth="yes"/>
      <point x="47" y="33"/>
      <point x="45" y="37"/>
      <point x="45" y="44" type="curve" smooth="yes"/>
      <point x="45" y="58"/>
      <point x="151" y="195"/>
      <point x="173" y="224" type="curve"/>
      <point x="151" y="254"/>
      <point x="112" y="298"/>
      <point x="90" y="328" type="curve" smooth="yes"/>
      <point x="72" y="352"/>
      <point x="44" y="392"/>
    </contour>
    <contour>
      <point x="236" y="405" type="curve" smooth="yes"/>
      <point x="236" y="412"/>
      <point x="241" y="416"/>
      <point x="247" y="416" type="curve" smooth="yes"/>
      <point x="255" y="416"/>
      <point x="310" y="353"/>
      <point x="374" y="297" type="curve" smooth="yes"/>
      <point x="384" y="288"/>
      <point x="458" y="224"/>
      <point x="458" y="222" type="curve" smooth="yes"/>
      <point x="427" y="195" type="line" smooth="yes"/>
      <point x="394" y="167"/>
      <point x="327" y="108"/>
      <point x="263" y="45" type="curve" smooth="yes"/>
      <point x="251" y="33"/>
      <point x="251" y="33"/>
      <point x="247" y="33" type="curve" smooth="yes"/>
      <point x="239" y="33"/>
      <point x="237" y="37"/>
      <point x="237" y="44" type="curve" smooth="yes"/>
      <point x="237" y="58"/>
      <point x="343" y="195"/>
      <point x="365" y="224" type="curve"/>
      <point x="343" y="254"/>
      <point x="304" y="298"/>
      <point x="282" y="328" type="curve" smooth="yes"/>
      <point x="264" y="352"/>
      <point x="236" y="392"/>
    </contour>
  </outline>
</glyph>
<glyph name="onehalf" format="2">
  <advance width="750"/>
  <unicode hex="00BD"/>
  <outline>
    <contour>
      <point x="31" y="270" type="line"/>
      <point x="31" y="294" type="line"/>
      <point x="74" y="297"/>
      <point x="84" y="303"/>
      <point x="84" y="326" type="curve" smooth="yes"/>
      <point x="84" y="583" type="line" smooth="yes"/>
      <point x="84" y="605"/>
      <point x="82" y="611"/>
      <point x="76" y="611" type="curve" smooth="yes"/>
      <point x="70" y="611"/>
      <point x="70" y="611"/>
      <point x="33" y="598" type="curve"/>
      <point x="33" y="621" type="line"/>
      <point x="151" y="676" type="line"/>
      <point x="165" y="673" type="line"/>
      <point x="165" y="330" type="line" smooth="yes"/>
      <point x="165" y="304"/>
      <point x="176" y="297"/>
      <point x="222" y="294" type="curve"/>
      <point x="222" y="270" type="line"/>
    </contour>
    <contour>
      <point x="101" y="-14" type="line"/>
      <point x="554" y="676" type="line"/>
      <point x="600" y="676" type="line"/>
      <point x="150" y="-14" type="line"/>
    </contour>
    <contour>
      <point x="451" y="287" type="line"/>
      <point x="467" y="333"/>
      <point x="477" y="352"/>
      <point x="498" y="371" type="curve"/>
      <point x="521" y="394"/>
      <point x="556" y="406"/>
      <point x="596" y="406" type="curve" smooth="yes"/>
      <point x="674" y="406"/>
      <point x="727" y="363"/>
      <point x="727" y="300" type="curve" smooth="yes"/>
      <point x="727" y="251"/>
      <point x="704" y="210"/>
      <point x="643" y="150" type="curve" smooth="yes"/>
      <point x="557" y="65" type="line"/>
      <point x="678" y="65" type="line" smooth="yes"/>
      <point x="705" y="65"/>
      <point x="714" y="70"/>
      <point x="729" y="92" type="curve"/>
      <point x="746" y="85" type="line"/>
      <point x="709" y="0" type="line"/>
      <point x="456" y="0" type="line"/>
      <point x="456" y="23" type="line"/>
      <point x="554" y="130" type="line" smooth="yes"/>
      <point x="604" y="184"/>
      <point x="635" y="237"/>
      <point x="635" y="267" type="curve" smooth="yes"/>
      <point x="635" y="309"/>
      <point x="602" y="343"/>
      <point x="562" y="343" type="curve" smooth="yes"/>
      <point x="525" y="343"/>
      <point x="498" y="321"/>
      <point x="476" y="273" type="curve"/>
    </contour>
  </outline>
</glyph>
<glyph name="threequarters" format="1">
  <advance width="750"/>
  <unicode hex="00BE"/>
  <outline>
    <contour>
      <point x="14" y="312" type="curve" smooth="yes"/>
      <point x="14" y="333"/>
      <point x="29" y="349"/>
      <point x="49" y="349" type="curve" smooth="yes"/>
      <point x="60" y="349"/>
      <point x="71" y="344"/>
      <point x="90" y="330" type="curve" smooth="yes"/>
      <point x="112" y="314"/>
      <point x="123" y="310"/>
      <point x="142" y="310" type="curve" smooth="yes"/>
      <point x="183" y="310"/>
      <point x="210" y="337"/>
      <point x="210" y="378" type="curve" smooth="yes"/>
      <point x="210" y="409"/>
      <point x="196" y="434"/>
      <point x="169" y="449" type="curve" smooth="yes"/>
      <point x="155" y="457"/>
      <point x="134" y="463"/>
      <point x="121" y="463" type="curve" smooth="yes"/>
      <point x="116" y="463" type="line"/>
      <point x="93" y="460" type="line"/>
      <point x="93" y="489" type="line"/>
      <point x="162" y="513"/>
      <point x="188" y="535"/>
      <point x="188" y="571" type="curve" smooth="yes"/>
      <point x="188" y="602"/>
      <point x="166" y="620"/>
      <point x="130" y="620" type="curve" smooth="yes"/>
      <point x="96" y="620"/>
      <point x="76" y="606"/>
      <point x="46" y="563" type="curve"/>
      <point x="21" y="581" type="line"/>
      <point x="56" y="649"/>
      <point x="95" y="676"/>
      <point x="156" y="676" type="curve" smooth="yes"/>
      <point x="216" y="676"/>
      <point x="264" y="639"/>
      <point x="264" y="593" type="curve" smooth="yes"/>
      <point x="264" y="565"/>
      <point x="247" y="542"/>
      <point x="204" y="511" type="curve"/>
      <point x="262" y="488"/>
      <point x="291" y="450"/>
      <point x="291" y="398" type="curve" smooth="yes"/>
      <point x="291" y="320"/>
      <point x="208" y="262"/>
      <point x="97" y="262" type="curve" smooth="yes"/>
      <point x="45" y="262"/>
      <point x="14" y="280"/>
    </contour>
    <contour>
      <point x="138" y="-14" type="line"/>
      <point x="591" y="676" type="line"/>
      <point x="637" y="676" type="line"/>
      <point x="187" y="-14" type="line"/>
    </contour>
    <contour>
      <point x="413" y="90" type="line"/>
      <point x="413" y="139" type="line"/>
      <point x="616" y="405" type="line"/>
      <point x="663" y="405" type="line"/>
      <point x="663" y="147" type="line"/>
      <point x="718" y="147" type="line"/>
      <point x="718" y="90" type="line"/>
      <point x="663" y="90" type="line"/>
      <point x="663" y="0" type="line"/>
      <point x="593" y="0" type="line"/>
      <point x="593" y="90" type="line"/>
    </contour>
    <contour>
      <point x="458" y="147" type="line"/>
      <point x="593" y="147" type="line"/>
      <point x="593" y="326" type="line"/>
    </contour>
  </outline>
</glyph>
<glyph name="Atilde" format="1">
  <advance width="722"/>
  <unicode hex="00C3"/>
  <outline>
    <contour>
      <point x="15" y="0" type="line"/>
      <point x="15" y="19" type="line"/>
      <point x="63" y="21"/>
      <point x="77" y="36"/>
      <point x="139" y="183" type="curve" smooth="yes"/>
      <point x="347" y="674" type="line"/>
      <point x="367" y="674" type="line"/>
      <point x="616" y="106" type="line" smooth="yes"/>
      <point x="649" y="31"/>
      <point x="661" y="22"/>
      <point x="706" y="19" type="curve"/>
      <point x="706" y="0" type="line"/>
      <point x="451" y="0" type="line"/>
      <point x="451" y="19" type="line"/>
      <point x="504" y="20"/>
      <point x="521" y="28"/>
      <point x="521" y="53" type="curve" smooth="yes"/>
      <point x="521" y="67"/>
      <point x="514" y="93"/>
      <point x="502" y="120" type="curve" smooth="yes"/>
      <point x="461" y="216" type="line"/>
      <point x="199" y="216" type="line"/>
      <point x="153" y="99" type="line" smooth="yes"/>
      <point x="148" y="86"/>
      <point x="145" y="72"/>
      <point x="145" y="60" type="curve" smooth="yes"/>
      <point x="145" y="32"/>
      <point x="165" y="19"/>
      <point x="213" y="19" type="curve"/>
      <point x="213" y="0" type="line"/>
    </contour>
    <contour>
      <point x="195" y="744" type="line"/>
      <point x="210" y="809"/>
      <point x="246" y="845"/>
      <point x="296" y="845" type="curve" smooth="yes"/>
      <point x="318" y="845"/>
      <point x="343" y="839"/>
      <point x="366" y="827" type="curve" smooth="yes"/>
      <point x="390" y="815" type="line" smooth="yes"/>
      <point x="409" y="806"/>
      <point x="428" y="800"/>
      <point x="443" y="800" type="curve" smooth="yes"/>
      <point x="466" y="800"/>
      <point x="479" y="812"/>
      <point x="496" y="850" type="curve"/>
      <point x="525" y="850" type="line"/>
      <point x="504" y="774"/>
      <point x="475" y="744"/>
      <point x="420" y="744" type="curve" smooth="yes"/>
      <point x="395" y="744"/>
      <point x="380" y="748"/>
      <point x="339" y="768" type="curve" smooth="yes"/>
      <point x="316" y="779" type="line" smooth="yes"/>
      <point x="301" y="786"/>
      <point x="287" y="790"/>
      <point x="275" y="790" type="curve" smooth="yes"/>
      <point x="252" y="790"/>
      <point x="235" y="775"/>
      <point x="224" y="744" type="curve"/>
    </contour>
    <contour>
      <point x="216" y="257" type="line"/>
      <point x="447" y="257" type="line"/>
      <point x="331" y="532" type="line"/>
    </contour>
  </outline>
</glyph>
<glyph name="Igrave" format="1">
  <advance width="333"/>
  <unicode hex="00CC"/>
  <outline>
    <contour>
      <point x="12" y="0" type="line"/>
      <point x="12" y="19" type="line"/>
      <point x="96" y="22"/>
      <point x="109" y="34"/>
      <point x="109" y="109" type="curve" smooth="yes"/>
      <point x="109" y="553" type="line" smooth="yes"/>
      <point x="109" y="627"/>
      <point x="97" y="638"/>
      <point x="12" y="643" type="curve"/>
      <point x="12" y="662" type="line"/>
      <point x="309" y="662" type="line"/>
      <point x="309" y="643" type="line"/>
      <point x="225" y="639"/>
      <point x="211" y="626"/>
      <point x="211" y="553" type="curve" smooth="yes"/>
      <point x="211" y="109" type="line" smooth="yes"/>
      <point x="211" y="36"/>
      <point x="227" y="22"/>
      <point x="309" y="19" type="curve"/>
      <point x="309" y="0" type="line"/>
    </contour>
    <contour>
      <point x="13" y="860" type="curve" smooth="yes"/>
      <point x="13" y="879"/>
      <point x="26" y="891"/>
      <point x="47" y="891" type="curve" smooth="yes"/>
      <point x="62" y="891"/>
      <point x="71" y="886"/>
      <point x="89" y="868" type="curve" smooth="yes"/>
      <point x="236" y="720" type="line"/>
      <point x="196" y="720" type="line"/>
      <point x="42" y="817" type="line" smooth="yes"/>
      <point x="24" y="829"/>
      <point x="13" y="844"/>
    </contour>
  </outline>
</glyph>
<glyph name="Ntilde" format="1">
  <advance width="722"/>
  <unicode hex="00D1"/>
  <outline>
    <contour>
      <point x="12" y="0" type="line"/>
      <point x="12" y="19" type="line"/>
      <point x="95" y="25"/>
      <point x="109" y="44"/>
      <point x="109" y="147" type="curve" smooth="yes"/>
      <point x="109" y="588" type="line"/>
      <point x="69" y="635"/>
      <point x="55" y="643"/>
      <point x="12" y="643" type="curve"/>
      <point x="12" y="662" type="line"/>
      <point x="183" y="662" type="line"/>
      <point x="568" y="178" type="line"/>
      <point x="568" y="515" type="line" smooth="yes"/>
      <point x="568" y="577"/>
      <point x="559" y="613"/>
      <point x="539" y="627" type="curve" smooth="yes"/>
      <point x="524" y="636"/>
      <point x="510" y="640"/>
      <point x="472" y="643" type="curve"/>
      <point x="472" y="662" type="line"/>
      <point x="707" y="662" type="line"/>
      <point x="707" y="643" type="line"/>
      <point x="669" y="639"/>
      <point x="655" y="635"/>
      <point x="641" y="625" type="curve" smooth="yes"/>
      <point x="622" y="612"/>
      <point x="612" y="575"/>
      <point x="612" y="515" type="curve" smooth="yes"/>
      <point x="612" y="-11" type="line"/>
      <point x="595" y="-11" type="line"/>
      <point x="153" y="539" type="line"/>
      <point x="153" y="147" type="line" smooth="yes"/>
      <point x="153" y="46"/>
      <point x="170" y="23"/>
      <point x="247" y="19" type="curve"/>
      <point x="247" y="0" type="line"/>
    </contour>
    <contour>
      <point x="196" y="744" type="line"/>
      <point x="211" y="809"/>
      <point x="247" y="845"/>
      <point x="297" y="845" type="curve" smooth="yes"/>
      <point x="319" y="845"/>
      <point x="344" y="839"/>
      <point x="367" y="827" type="curve" smooth="yes"/>
      <point x="391" y="815" type="line" smooth="yes"/>
      <point x="410" y="806"/>
      <point x="429" y="800"/>
      <point x="444" y="800" type="curve" smooth="yes"/>
      <point x="467" y="800"/>
      <point x="480" y="812"/>
      <point x="497" y="850" type="curve"/>
      <point x="526" y="850" type="line"/>
      <point x="505" y="774"/>
      <point x="476" y="744"/>
      <point x="421" y="744" type="curve" smooth="yes"/>
      <point x="396" y="744"/>
      <point x="381" y="748"/>
      <point x="340" y="768" type="curve" smooth="yes"/>
      <point x="317" y="779" type="line" smooth="yes"/>
      <point x="302" y="786"/>
      <point x="288" y="790"/>
      <point x="276" y="790" type="curve" smooth="yes"/>
      <point x="253" y="790"/>
      <point x="236" y="775"/>
      <point x="225" y="744" type="curve"/>
    </contour>
  </outline>
</glyph>
<glyph name="Oacute" format="1">
  <advance width="722"/>
  <unicode hex="00D3"/>
  <outline>
    <contour>
      <point x="34" y="330" type="curve" smooth="yes"/>
      <point x="34" y="524"/>
      <point x="162" y="676"/>
      <point x="361" y="676" type="curve" smooth="yes"/>
      <point x="560" y="676"/>
      <point x="688" y="524"/>
      <point x="688" y="330" type="curve" smooth="yes"/>
      <point x="688" y="136"/>
      <point x="560" y="-14"/>
      <point x="361" y="-14" type="curve" smooth="yes"/>
      <point x="162" y="-14"/>
      <point x="34" y="136"/>
    </contour>
    <contour>
      <point x="148" y="331" type="curve" smooth="yes"/>
      <point x="148" y="195"/>
      <point x="195" y="22"/>
      <point x="361" y="22" type="curve" smooth="yes"/>
      <point x="527" y="22"/>
      <point x="574" y="195"/>
      <point x="574" y="331" type="curve" smooth="yes"/>
      <point x="574" y="465"/>
      <point x="525" y="640"/>
      <point x="361" y="640" type="curve" smooth="yes"/>
      <point x="197" y="640"/>
      <point x="148" y="465"/>
    </contour>
    <contour>
      <point x="288" y="719" type="line"/>
      <point x="435" y="867" type="line" smooth="yes"/>
      <point x="453" y="885"/>
      <point x="462" y="890"/>
      <point x="477" y="890" type="curve" smooth="yes"/>
      <point x="499" y="890"/>
      <point x="512" y="878"/>
      <point x="512" y="858" type="curve" smooth="yes"/>
      <point x="512" y="842"/>
      <point x="503" y="829"/>
      <point x="482" y="816" type="curve" smooth="yes"/>
      <point x="328" y="719" type="line"/>
    </contour>
  </outline>
</glyph>
<glyph name="Oslash" format="2">
  <advance width="722"/>
  <unicode hex="00D8"/>
  <outline>
    <component base="O"/>
    <contour>
      <point x="525.561" y="610" type="line"/>
      <point x="609" y="734" type="line"/>
      <point x="658" y="734" type="line"/>
      <point x="558.561" y="587" type="line"/>
    </contour>
    <contour>
      <point x="179.882" y="102.305" type="line"/>
      <point x="514.067" y="592.169" type="line"/>
      <point x="539.067" y="557.169" type="line"/>
      <point x="204.882" y="67.3046" type="line"/>
    </contour>
    <contour>
      <point x="56" y="-80" type="line"/>
      <point x="162.989" y="76.6498" type="line"/>
      <point x="195.989" y="53.6498" type="line"/>
      <point x="105" y="-80" type="line"/>
    </contour>
  </outline>
</glyph>
<glyph name="Uacute" format="1">
  <advance width="722"/>
  <unicode hex="00DA"/>
  <outline>
    <contour>
      <point x="14" y="643" type="curve"/>
      <point x="14" y="662" type="line"/>
      <point x="297" y="662" type="line"/>
      <point x="297" y="643" type="line"/>
      <point x="217" y="636"/>
      <point x="206" y="625"/>
      <point x="206" y="553" type="curve" smooth="yes"/>
      <point x="206" y="233" type="line" smooth="yes"/>
      <point x="206" y="170"/>
      <point x="213" y="133"/>
      <point x="231" y="101" type="curve" smooth="yes"/>
      <point x="258" y="54"/>
      <point x="307" y="30"/>
      <point x="378" y="30" type="curve" smooth="yes"/>
      <point x="453" y="30"/>
      <point x="517" y="61"/>
      <point x="544" y="109" type="curve" smooth="yes"/>
      <point x="560" y="139"/>
      <point x="567" y="177"/>
      <point x="567" y="245" type="curve" smooth="yes"/>
      <point x="567" y="515" type="line" smooth="yes"/>
      <point x="567" y="615"/>
      <point x="551" y="637"/>
      <point x="473" y="643" type="curve"/>
      <point x="473" y="662" type="line"/>
      <point x="705" y="662" type="line"/>
      <point x="705" y="643" type="line"/>
      <point x="623" y="633"/>
      <point x="611" y="617"/>
      <point x="611" y="515" type="curve" smooth="yes"/>
      <point x="611" y="254" type="line" smooth="yes"/>
      <point x="611" y="177"/>
      <point x="602" y="131"/>
      <point x="578" y="89" type="curve" smooth="yes"/>
      <point x="539" y="21"/>
      <point x="464" y="-14"/>
      <point x="355" y="-14" type="curve" smooth="yes"/>
      <point x="185" y="-14"/>
      <point x="104" y="68"/>
      <point x="104" y="241" type="curve" smooth="yes"/>
      <point x="104" y="553" type="line" smooth="yes"/>
      <point x="104" y="626"/>
      <point x="93" y="637"/>
    </contour>
    <contour>
      <point x="305" y="719" type="line"/>
      <point x="452" y="867" type="line" smooth="yes"/>
      <point x="470" y="885"/>
      <point x="479" y="890"/>
      <point x="494" y="890" type="curve" smooth="yes"/>
      <point x="516" y="890"/>
      <point x="529" y="878"/>
      <point x="529" y="858" type="curve" smooth="yes"/>
      <point x="529" y="842"/>
      <point x="520" y="829"/>
      <point x="499" y="816" type="curve" smooth="yes"/>
      <point x="345" y="719" type="line"/>
    </contour>
  </outline>
</glyph>
<glyph name="germandbls" format="1">
  <advance width="500"/>
  <unicode hex="00DF"/>
  <outline>
    <contour>
      <point x="12" y="0" type="line"/>
      <point x="12" y="15" type="line"/>
      <point x="62" y="19"/>
      <point x="73" y="31"/>
      <point x="73" y="84" type="curve" smooth="yes"/>
      <point x="73" y="454" type="line" smooth="yes"/>
      <point x="73" y="524"/>
      <point x="82" y="569"/>
      <point x="103" y="606" type="curve" smooth="yes"/>
      <point x="132" y="657"/>
      <point x="183" y="683"/>
      <point x="251" y="683" type="curve" smooth="yes"/>
      <point x="355" y="683"/>
      <point x="421" y="623"/>
      <point x="421" y="531" type="curve" smooth="yes"/>
      <point x="421" y="459"/>
      <point x="391" y="426"/>
      <point x="284" y="377" type="curve"/>
      <point x="345" y="365"/>
      <point x="374" y="354"/>
      <point x="406" y="326" type="curve" smooth="yes"/>
      <point x="446" y="292"/>
      <point x="468" y="242"/>
      <point x="468" y="186" type="curve" smooth="yes"/>
      <point x="468" y="77"/>
      <point x="389" y="-9"/>
      <point x="289" y="-9" type="curve" smooth="yes"/>
      <point x="232" y="-9"/>
      <point x="192" y="21"/>
      <point x="192" y="64" type="curve" smooth="yes"/>
      <point x="192" y="91"/>
      <point x="211" y="112"/>
      <point x="237" y="112" type="curve" smooth="yes"/>
      <point x="259" y="112"/>
      <point x="277" y="95"/>
      <point x="279" y="72" type="curve" smooth="yes"/>
      <point x="281" y="50" type="line" smooth="yes"/>
      <point x="283" y="28"/>
      <point x="291" y="20"/>
      <point x="310" y="20" type="curve" smooth="yes"/>
      <point x="352" y="20"/>
      <point x="374" y="65"/>
      <point x="374" y="150" type="curve" smooth="yes"/>
      <point x="374" y="285"/>
      <point x="330" y="354"/>
      <point x="242" y="357" type="curve" smooth="yes"/>
      <point x="219" y="358"/>
      <point x="210" y="363"/>
      <point x="210" y="374" type="curve" smooth="yes"/>
      <point x="210" y="383"/>
      <point x="218" y="387"/>
      <point x="239" y="389" type="curve" smooth="yes"/>
      <point x="304" y="396"/>
      <point x="334" y="437"/>
      <point x="334" y="517" type="curve" smooth="yes"/>
      <point x="334" y="604"/>
      <point x="300" y="656"/>
      <point x="243" y="656" type="curve" smooth="yes"/>
      <point x="191" y="656"/>
      <point x="157" y="614"/>
      <point x="157" y="549" type="curve" smooth="yes"/>
      <point x="157" y="0" type="line"/>
    </contour>
  </outline>
</glyph>
<glyph name="acircumflex" format="1">
  <advance width="444"/>
  <unicode hex="00E2"/>
  <outline>
    <contour>
      <point x="37" y="95" type="curve" smooth="yes"/>
      <point x="37" y="215"/>
      <point x="197" y="258"/>
      <point x="287" y="293" type="curve"/>
      <point x="287" y="354" type="line" smooth="yes"/>
      <point x="287" y="405"/>
      <point x="262" y="437"/>
      <point x="210" y="437" type="curve" smooth="yes"/>
      <point x="182" y="437"/>
      <point x="139" y="422"/>
      <point x="139" y="388" type="curve" smooth="yes"/>
      <point x="139" y="375"/>
      <point x="144" y="362"/>
      <point x="144" y="349" type="curve" smooth="yes"/>
      <point x="144" y="325"/>
      <point x="122" y="306"/>
      <point x="99" y="306" type="curve" smooth="yes"/>
      <point x="75" y="306"/>
      <point x="56" y="326"/>
      <point x="56" y="350" type="curve" smooth="yes"/>
      <point x="56" y="427"/>
      <point x="157" y="461"/>
      <point x="219" y="461" type="curve" smooth="yes"/>
      <point x="336" y="461"/>
      <point x="368" y="407"/>
      <point x="368" y="301" type="curve" smooth="yes"/>
      <point x="368" y="106" type="line"/>
      <point x="368" y="97" type="line" smooth="yes"/>
      <point x="368" y="75"/>
      <point x="370" y="47"/>
      <point x="397" y="47" type="curve" smooth="yes"/>
      <point x="415" y="47"/>
      <point x="429" y="55"/>
      <point x="442" y="66" type="curve"/>
      <point x="442" y="41" type="line"/>
      <point x="418" y="13"/>
      <point x="391" y="-9"/>
      <point x="353" y="-9" type="curve" smooth="yes"/>
      <point x="307" y="-9"/>
      <point x="291" y="20"/>
      <point x="288" y="64" type="curve"/>
      <point x="249" y="29"/>
      <point x="198" y="-9"/>
      <point x="143" y="-9" type="curve" smooth="yes"/>
      <point x="83" y="-9"/>
      <point x="37" y="34"/>
    </contour>
    <contour>
      <point x="67" y="508" type="line"/>
      <point x="191" y="675" type="line"/>
      <point x="253" y="675" type="line"/>
      <point x="378" y="508" type="line"/>
      <point x="344" y="508" type="line"/>
      <point x="222" y="611" type="line"/>
      <point x="101" y="508" type="line"/>
    </contour>
    <contour>
      <point x="125" y="127" type="curve" smooth="yes"/>
      <point x="125" y="88"/>
      <point x="148" y="49"/>
      <point x="191" y="49" type="curve" smooth="yes"/>
      <point x="209" y="49"/>
      <point x="237" y="59"/>
      <point x="253" y="67" type="curve" smooth="yes"/>
      <point x="282" y="82"/>
      <point x="287" y="92"/>
      <point x="287" y="124" type="curve" smooth="yes"/>
      <point x="287" y="269" type="line"/>
      <point x="221" y="247"/>
      <point x="125" y="210"/>
    </contour>
  </outline>
</glyph>
<glyph name="ae" format="2">
  <advance width="667"/>
  <unicode hex="00E6"/>
  <outline>
    <contour>
      <point x="38" y="95" type="curve" smooth="yes"/>
      <point x="38" y="197"/>
      <point x="177.097" y="249.381"/>
      <point x="276" y="280" type="curve"/>
      <point x="276" y="339.726" type="line" smooth="yes"/>
      <point x="276" y="387.339"/>
      <point x="273" y="435"/>
      <point x="213" y="435" type="curve" smooth="yes"/>
      <point x="181" y="435"/>
      <point x="145" y="422.056"/>
      <point x="145" y="388.672" type="curve" smooth="yes"/>
      <point x="145" y="378.907"/>
      <point x="148.08" y="371.88"/>
      <point x="151.16" y="364.852" type="curve" smooth="yes"/>
      <point x="154.24" y="357.825"/>
      <point x="157.32" y="350.797"/>
      <point x="157.32" y="340.768" type="curve" smooth="yes"/>
      <point x="157.32" y="315.583"/>
      <point x="137.895" y="303"/>
      <point x="112.333" y="303" type="curve" smooth="yes"/>
      <point x="77.8954" y="303"/>
      <point x="63.8954" y="325.839"/>
      <point x="63.8954" y="354.22" type="curve" smooth="yes"/>
      <point x="63.8954" y="427.016"/>
      <point x="156" y="459"/>
      <point x="225.456" y="459" type="curve" smooth="yes"/>
      <point x="268" y="459"/>
      <point x="300" y="447"/>
      <point x="337" y="413.129" type="curve"/>
      <point x="377" y="446"/>
      <point x="408" y="459"/>
      <point x="454.756" y="459" type="curve" smooth="yes"/>
      <point x="574" y="459"/>
      <point x="608" y="374.444"/>
      <point x="616" y="276" type="curve"/>
      <point x="561.329" y="276"/>
      <point x="401.305" y="276"/>
      <point x="354" y="276" type="curve"/>
      <point x="354" y="240" type="line" smooth="yes"/>
      <point x="354" y="145"/>
      <point x="357" y="57"/>
      <point x="482" y="57" type="curve" smooth="yes"/>
      <point x="542" y="57"/>
      <point x="591" y="107"/>
      <point x="620" y="154" type="curve"/>
      <point x="622.022" y="153.157"/>
      <point x="629.447" y="150.064"/>
      <point x="632" y="149" type="curve"/>
      <point x="632" y="148" type="line"/>
      <point x="598" y="66"/>
      <point x="535" y="-11"/>
      <point x="431.385" y="-11" type="curve" smooth="yes"/>
      <point x="376" y="-11"/>
      <point x="339" y="11"/>
      <point x="306" y="62" type="curve"/>
      <point x="259" y="23"/>
      <point x="217" y="-11"/>
      <point x="157.799" y="-11" type="curve" smooth="yes"/>
      <point x="92" y="-11"/>
      <point x="38" y="31"/>
    </contour>
    <contour>
      <point x="125" y="123.894" type="curve" smooth="yes"/>
      <point x="125" y="78"/>
      <point x="153" y="38"/>
      <point x="202.293" y="38" type="curve" smooth="yes"/>
      <point x="239" y="38"/>
      <point x="266.32" y="60.1808"/>
      <point x="293" y="88" type="curve"/>
      <point x="276.73" y="138.172"/>
      <point x="273" y="197.805"/>
      <point x="273" y="253" type="curve"/>
      <point x="202" y="228"/>
      <point x="125" y="200"/>
    </contour>
    <contour>
      <point x="357" y="306" type="curve"/>
      <point x="521" y="306" type="line"/>
      <point x="520.968" y="327.771" type="line"/>
      <point x="520.862" y="398.705"/>
      <point x="491.218" y="429"/>
      <point x="440.291" y="429" type="curve" smooth="yes"/>
      <point x="385" y="429"/>
      <point x="360" y="393.29"/>
    </contour>
  </outline>
</glyph>
<glyph name="eth" format="1">
  <advance width="500"/>
  <unicode hex="00F0"/>
  <outline>
    <contour>
      <point x="29" y="220" type="curve" smooth="yes"/>
      <point x="29" y="348"/>
      <point x="110" y="460"/>
      <point x="245" y="460" type="curve" smooth="yes"/>
      <point x="294" y="460"/>
      <point x="330" y="436"/>
      <point x="364" y="403" type="curve"/>
      <point x="366" y="405" type="line"/>
      <point x="355" y="470"/>
      <point x="317" y="530"/>
      <point x="270" y="575" type="curve"/>
      <point x="147" y="510" type="line"/>
      <point x="114" y="540" type="line"/>
      <point x="235" y="604" type="line"/>
      <point x="196" y="633"/>
      <point x="150" y="653"/>
      <point x="102" y="660" type="curve"/>
      <point x="144" y="683" type="line"/>
      <point x="197" y="679"/>
      <point x="251" y="665"/>
      <point x="296" y="636" type="curve"/>
      <point x="391" y="686" type="line"/>
      <point x="424" y="656" type="line"/>
      <point x="333" y="608" type="line"/>
      <point x="426" y="530"/>
      <point x="471" y="403"/>
      <point x="471" y="284" type="curve" smooth="yes"/>
      <point x="471" y="151"/>
      <point x="403" y="-10"/>
      <point x="249" y="-10" type="curve" smooth="yes"/>
      <point x="120" y="-10"/>
      <point x="29" y="94"/>
    </contour>
    <contour>
      <point x="119" y="278" type="curve" smooth="yes"/>
      <point x="119" y="190"/>
      <point x="147" y="18"/>
      <point x="263" y="18" type="curve" smooth="yes"/>
      <point x="357" y="18"/>
      <point x="381" y="124"/>
      <point x="381" y="199" type="curve" smooth="yes"/>
      <point x="381" y="285"/>
      <point x="349" y="432"/>
      <point x="238" y="432" type="curve" smooth="yes"/>
      <point x="154" y="432"/>
      <point x="119" y="351"/>
    </contour>
  </outline>
</glyph>
<glyph name="ntilde" format="1">
  <advance width="500"/>
  <unicode hex="00F1"/>
  <outline>
    <contour>
      <point x="16" y="0" type="line"/>
      <point x="16" y="15" type="line"/>
      <point x="68" y="21"/>
      <point x="80" y="32"/>
      <point x="80" y="88" type="curve" smooth="yes"/>
      <point x="80" y="338" type="line" smooth="yes"/>
      <point x="80" y="387"/>
      <point x="71" y="402"/>
      <point x="43" y="402" type="curve" smooth="yes"/>
      <point x="32" y="402"/>
      <point x="22" y="401"/>
      <point x="16" y="398" type="curve"/>
      <point x="16" y="415" type="line"/>
      <point x="71" y="431"/>
      <point x="105" y="442"/>
      <point x="154" y="460" type="curve"/>
      <point x="161" y="458" type="line"/>
      <point x="161" y="379" type="line"/>
      <point x="229" y="443"/>
      <point x="260" y="460"/>
      <point x="306" y="460" type="curve" smooth="yes"/>
      <point x="380" y="460"/>
      <point x="424" y="404"/>
      <point x="424" y="310" type="curve" smooth="yes"/>
      <point x="424" y="88" type="line" smooth="yes"/>
      <point x="424" y="32"/>
      <point x="436" y="21"/>
      <point x="488" y="15" type="curve"/>
      <point x="488" y="0" type="line"/>
      <point x="276" y="0" type="line"/>
      <point x="276" y="15" type="line"/>
      <point x="328" y="21"/>
      <point x="340" y="32"/>
      <point x="340" y="88" type="curve" smooth="yes"/>
      <point x="340" y="308" type="line" smooth="yes"/>
      <point x="340" y="374"/>
      <point x="316" y="405"/>
      <point x="267" y="405" type="curve" smooth="yes"/>
      <point x="234" y="405"/>
      <point x="212" y="393"/>
      <point x="164" y="348" type="curve"/>
      <point x="164" y="88" type="line" smooth="yes"/>
      <point x="164" y="32"/>
      <point x="176" y="21"/>
      <point x="228" y="15" type="curve"/>
      <point x="228" y="0" type="line"/>
    </contour>
    <contour>
      <point x="85" y="532" type="line"/>
      <point x="100" y="597"/>
      <point x="136" y="633"/>
      <point x="186" y="633" type="curve" smooth="yes"/>
      <point x="208" y="633"/>
      <point x="233" y="627"/>
      <point x="256" y="615" type="curve" smooth="yes"/>
      <point x="280" y="603" type="line" smooth="yes"/>
      <point x="299" y="594"/>
      <point x="318" y="588"/>
      <point x="333" y="588" type="curve" smooth="yes"/>
      <point x="356" y="588"/>
      <point x="369" y="600"/>
      <point x="386" y="638" type="curve"/>
      <point x="415" y="638" type="line"/>
      <point x="394" y="562"/>
      <point x="365" y="532"/>
      <point x="310" y="532" type="curve" smooth="yes"/>
      <point x="285" y="532"/>
      <point x="270" y="536"/>
      <point x="229" y="556" type="curve" smooth="yes"/>
      <point x="206" y="567" type="line" smooth="yes"/>
      <point x="191" y="574"/>
      <point x="177" y="578"/>
      <point x="165" y="578" type="curve" smooth="yes"/>
      <point x="142" y="578"/>
      <point x="125" y="563"/>
      <point x="114" y="532" type="curve"/>
    </contour>
  </outline>
</glyph>
<glyph name="thorn" format="2">
  <advance width="500"/>
  <unicode hex="00FE"/>
  <outline>
    <contour>
      <point x="5" y="-199" type="line"/>
      <point x="64" y="-194"/>
      <point x="75" y="-183"/>
      <point x="75" y="-131" type="curve" smooth="yes"/>
      <point x="75" y="573" type="line" smooth="yes"/>
      <point x="75" y="615"/>
      <point x="66" y="624"/>
      <point x="26" y="624" type="curve" smooth="yes"/>
      <point x="19" y="624"/>
      <point x="15" y="624"/>
      <point x="9" y="623" type="curve"/>
      <point x="9" y="639" type="line"/>
      <point x="78" y="658"/>
      <point x="106" y="666"/>
      <point x="154" y="683" type="curve"/>
      <point x="159" y="680" type="line"/>
      <point x="159" y="382" type="line"/>
      <point x="204" y="436"/>
      <point x="248" y="460"/>
      <point x="303" y="460" type="curve" smooth="yes"/>
      <point x="400" y="460"/>
      <point x="470" y="371"/>
      <point x="470" y="247" type="curve" smooth="yes"/>
      <point x="470" y="102"/>
      <point x="378" y="-10"/>
      <point x="260" y="-10" type="curve" smooth="yes"/>
      <point x="218" y="-10"/>
      <point x="194" y="0"/>
      <point x="159" y="33" type="curve"/>
      <point x="159" y="-124" type="line" smooth="yes"/>
      <point x="159" y="-187"/>
      <point x="172" y="-198"/>
      <point x="247" y="-199" type="curve"/>
      <point x="247" y="-217" type="line"/>
      <point x="5" y="-217" type="line"/>
    </contour>
    <contour>
      <point x="159" y="88" type="line" smooth="yes"/>
      <point x="159" y="58"/>
      <point x="216" y="22"/>
      <point x="263" y="22" type="curve" smooth="yes"/>
      <point x="335" y="22"/>
      <point x="384" y="97"/>
      <point x="384" y="208" type="curve" smooth="yes"/>
      <point x="384" y="324"/>
      <point x="335" y="400"/>
      <point x="261" y="400" type="curve" smooth="yes"/>
      <point x="215" y="400"/>
      <point x="159" y="364"/>
      <point x="159" y="334" type="curve" smooth="yes"/>
    </contour>
  </outline>
</glyph>
<glyph name="ydieresis" format="1">
  <advance width="500"/>
  <unicode hex="00FF"/>
  <outline>
    <contour>
      <point x="13" y="436" type="curve"/>
      <point x="13" y="450" type="line"/>
      <point x="219" y="450" type="line"/>
      <point x="219" y="435" type="line"/>
      <point x="176" y="433"/>
      <point x="161" y="426"/>
      <point x="161" y="408" type="curve" smooth="yes"/>
      <point x="161" y="397"/>
      <point x="165" y="384"/>
      <point x="171" y="370" type="curve" smooth="yes"/>
      <point x="286" y="117" type="line"/>
      <point x="383" y="393" type="line" smooth="yes"/>
      <point x="386" y="400"/>
      <point x="387" y="406"/>
      <point x="387" y="410" type="curve" smooth="yes"/>
      <point x="387" y="426"/>
      <point x="371" y="435"/>
      <point x="339" y="435" type="curve"/>
      <point x="339" y="450" type="line"/>
      <point x="474" y="450" type="line"/>
      <point x="474" y="435" type="line"/>
      <point x="450" y="432"/>
      <point x="439" y="422"/>
      <point x="426" y="390" type="curve" smooth="yes"/>
      <point x="272" y="-18" type="line" smooth="yes"/>
      <point x="218" y="-162"/>
      <point x="170" y="-218"/>
      <point x="103" y="-218" type="curve" smooth="yes"/>
      <point x="61" y="-218"/>
      <point x="29" y="-193"/>
      <point x="29" y="-160" type="curve" smooth="yes"/>
      <point x="29" y="-136"/>
      <point x="49" y="-116"/>
      <point x="72" y="-116" type="curve" smooth="yes"/>
      <point x="110" y="-116"/>
      <point x="134" y="-134"/>
      <point x="151" y="-134" type="curve" smooth="yes"/>
      <point x="165" y="-134"/>
      <point x="187" y="-115"/>
      <point x="201" y="-89" type="curve" smooth="yes"/>
      <point x="217" y="-61"/>
      <point x="241" y="-10"/>
      <point x="241" y="22" type="curve" smooth="yes"/>
      <point x="241" y="33"/>
      <point x="231" y="50"/>
      <point x="225" y="65" type="curve" smooth="yes"/>
      <point x="65" y="404" type="line"/>
      <point x="64" y="404" type="line"/>
      <point x="56" y="421"/>
      <point x="39" y="432"/>
    </contour>
    <contour>
      <point x="113" y="573" type="curve" smooth="yes"/>
      <point x="113" y="599"/>
      <point x="136" y="622"/>
      <point x="161" y="622" type="curve" smooth="yes"/>
      <point x="189" y="622"/>
      <point x="212" y="599"/>
      <point x="212" y="572" type="curve" smooth="yes"/>
      <point x="212" y="545"/>
      <point x="189" y="523"/>
      <point x="161" y="523" type="curve" smooth="yes"/>
      <point x="134" y="523"/>
      <point x="113" y="545"/>
    </contour>
    <contour>
      <point x="312" y="573" type="curve" smooth="yes"/>
      <point x="312" y="599"/>
      <point x="335" y="622"/>
      <point x="360" y="622" type="curve" smooth="yes"/>
      <point x="388" y="622"/>
      <point x="411" y="599"/>
      <point x="411" y="572" type="curve" smooth="yes"/>
      <point x="411" y="545"/>
      <point x="388" y="523"/>
      <point x="360" y="523" type="curve" smooth="yes"/>
      <point x="333" y="523"/>
      <point x="312" y="545"/>
    </contour>
  </outline>
</glyph>
<glyph name="Abreve" format="1">
  <advance width="722"/>
  <unicode hex="0102"/>
  <outline>
    <contour>
      <point x="15" y="0" type="line"/>
      <point x="15" y="19" type="line"/>
      <point x="63" y="21"/>
      <point x="77" y="36"/>
      <point x="139" y="183" type="curve" smooth="yes"/>
      <point x="347" y="674" type="line"/>
      <point x="367" y="674" type="line"/>
      <point x="616" y="106" type="line" smooth="yes"/>
      <point x="649" y="31"/>
      <point x="661" y="22"/>
      <point x="706" y="19" type="curve"/>
      <point x="706" y="0" type="line"/>
      <point x="451" y="0" type="line"/>
      <point x="451" y="19" type="line"/>
      <point x="504" y="20"/>
      <point x="521" y="28"/>
      <point x="521" y="53" type="curve" smooth="yes"/>
      <point x="521" y="67"/>
      <point x="514" y="93"/>
      <point x="502" y="120" type="curve" smooth="yes"/>
      <point x="461" y="216" type="line"/>
      <point x="199" y="216" type="line"/>
      <point x="153" y="99" type="line" smooth="yes"/>
      <point x="148" y="86"/>
      <point x="145" y="72"/>
      <point x="145" y="60" type="curve" smooth="yes"/>
      <point x="145" y="32"/>
      <point x="165" y="19"/>
      <point x="213" y="19" type="curve"/>
      <point x="213" y="0" type="line"/>
    </contour>
    <contour>
      <point x="216" y="257" type="line"/>
      <point x="447" y="257" type="line"/>
      <point x="331" y="532" type="line"/>
    </contour>
    <contour>
      <point x="221" y="876" type="curve"/>
      <point x="250" y="876" type="line"/>
      <point x="260" y="815"/>
      <point x="299" y="779"/>
      <point x="361" y="779" type="curve" smooth="yes"/>
      <point x="431" y="779"/>
      <point x="451" y="817"/>
      <point x="473" y="876" type="curve"/>
      <point x="502" y="876" type="line"/>
      <point x="494" y="790"/>
      <point x="455" y="719"/>
      <point x="359" y="719" type="curve" smooth="yes"/>
      <point x="265" y="719"/>
      <point x="221" y="789"/>
    </contour>
  </outline>
</glyph>
<glyph name="Aogonek" format="1">
  <advance width="722"/>
  <unicode hex="0104"/>
  <outline>
    <contour>
      <point x="15" y="0" type="line"/>
      <point x="15" y="19" type="line"/>
      <point x="63" y="21"/>
      <point x="75" y="37"/>
      <point x="139" y="183" type="curve" smooth="yes"/>
      <point x="347" y="674" type="line"/>
      <point x="367" y="674" type="line"/>
      <point x="616" y="106" type="line" smooth="yes"/>
      <point x="651" y="32"/>
      <point x="661" y="22"/>
      <point x="706" y="19" type="curve"/>
      <point x="706" y="0" type="line"/>
      <point x="684" y="-5"/>
      <point x="657" y="-44"/>
      <point x="657" y="-69" type="curve" smooth="yes"/>
      <point x="657" y="-92"/>
      <point x="673" y="-109"/>
      <point x="695" y="-109" type="curve" smooth="yes"/>
      <point x="716" y="-109"/>
      <point x="735" y="-99"/>
      <point x="766" y="-73" type="curve"/>
      <point x="786" y="-89" type="line"/>
      <point x="749" y="-142"/>
      <point x="715" y="-165"/>
      <point x="674" y="-165" type="curve" smooth="yes"/>
      <point x="633" y="-165"/>
      <point x="601" y="-132"/>
      <point x="601" y="-89" type="curve" smooth="yes"/>
      <point x="601" y="-56"/>
      <point x="616" y="-32"/>
      <point x="655" y="0" type="curve"/>
      <point x="451" y="0" type="line"/>
      <point x="451" y="19" type="line"/>
      <point x="504" y="20"/>
      <point x="521" y="28"/>
      <point x="521" y="53" type="curve" smooth="yes"/>
      <point x="521" y="67"/>
      <point x="514" y="93"/>
      <point x="502" y="120" type="curve" smooth="yes"/>
      <point x="461" y="216" type="line"/>
      <point x="199" y="216" type="line"/>
      <point x="153" y="99" type="line" smooth="yes"/>
      <point x="148" y="86"/>
      <point x="145" y="72"/>
      <point x="145" y="60" type="curve" smooth="yes"/>
      <point x="145" y="32"/>
      <point x="165" y="19"/>
      <point x="213" y="19" type="curve"/>
      <point x="213" y="0" type="line"/>
    </contour>
    <contour>
      <point x="216" y="257" type="line"/>
      <point x="447" y="257" type="line"/>
      <point x="331" y="532" type="line"/>
    </contour>
  </outline>
</glyph>
<glyph name="aogonek" format="1">
  <advance width="444"/>
  <unicode hex="0105"/>
  <outline>
    <contour>
      <point x="37" y="97" type="curve" smooth="yes"/>
      <point x="37" y="205"/>
      <point x="163" y="242"/>
      <point x="287" y="292" type="curve"/>
      <point x="287" y="353" type="line" smooth="yes"/>
      <point x="287" y="407"/>
      <point x="260" y="436"/>
      <point x="211" y="436" type="curve" smooth="yes"/>
      <point x="171" y="436"/>
      <point x="139" y="414"/>
      <point x="139" y="387" type="curve" smooth="yes"/>
      <point x="139" y="386" type="line" smooth="yes"/>
      <point x="139" y="372"/>
      <point x="144" y="356"/>
      <point x="144" y="347" type="curve" smooth="yes"/>
      <point x="144" y="325"/>
      <point x="123" y="305"/>
      <point x="99" y="305" type="curve" smooth="yes"/>
      <point x="76" y="305"/>
      <point x="56" y="325"/>
      <point x="56" y="348" type="curve" smooth="yes"/>
      <point x="56" y="411"/>
      <point x="130" y="460"/>
      <point x="224" y="460" type="curve" smooth="yes"/>
      <point x="283" y="460"/>
      <point x="326" y="441"/>
      <point x="348" y="405" type="curve" smooth="yes"/>
      <point x="363" y="381"/>
      <point x="368" y="352"/>
      <point x="368" y="300" type="curve" smooth="yes"/>
      <point x="368" y="105" type="line" smooth="yes"/>
      <point x="368" y="61"/>
      <point x="375" y="47"/>
      <point x="398" y="47" type="curve" smooth="yes"/>
      <point x="413" y="47"/>
      <point x="425" y="52"/>
      <point x="442" y="66" type="curve"/>
      <point x="442" y="40" type="line"/>
      <point x="407" y="2"/>
      <point x="396" y="-4"/>
      <point x="355" y="-11" type="curve" smooth="yes"/>
      <point x="331" y="-16"/>
      <point x="315" y="-38"/>
      <point x="315" y="-66" type="curve" smooth="yes"/>
      <point x="315" y="-92"/>
      <point x="330" y="-109"/>
      <point x="353" y="-109" type="curve" smooth="yes"/>
      <point x="374" y="-109"/>
      <point x="393" y="-99"/>
      <point x="424" y="-73" type="curve"/>
      <point x="444" y="-89" type="line"/>
      <point x="407" y="-142"/>
      <point x="373" y="-165"/>
      <point x="332" y="-165" type="curve" smooth="yes"/>
      <point x="291" y="-165"/>
      <point x="259" y="-132"/>
      <point x="259" y="-89" type="curve" smooth="yes"/>
      <point x="259" y="-57"/>
      <point x="275" y="-30"/>
      <point x="313" y="0" type="curve"/>
      <point x="297" y="15"/>
      <point x="291" y="30"/>
      <point x="288" y="63" type="curve"/>
      <point x="227" y="11"/>
      <point x="186" y="-10"/>
      <point x="142" y="-10" type="curve" smooth="yes"/>
      <point x="81" y="-10"/>
      <point x="37" y="34"/>
    </contour>
    <contour>
      <point x="125" y="126" type="curve" smooth="yes"/>
      <point x="125" y="87"/>
      <point x="148" y="48"/>
      <point x="191" y="48" type="curve" smooth="yes"/>
      <point x="209" y="48"/>
      <point x="237" y="58"/>
      <point x="253" y="66" type="curve" smooth="yes"/>
      <point x="282" y="81"/>
      <point x="287" y="91"/>
      <point x="287" y="123" type="curve" smooth="yes"/>
      <point x="287" y="268" type="line"/>
      <point x="221" y="246"/>
      <point x="125" y="209"/>
    </contour>
  </outline>
</glyph>
<glyph name="cacute" format="1">
  <advance width="444"/>
  <unicode hex="0107"/>
  <outline>
    <contour>
      <point x="25" y="213" type="curve" smooth="yes"/>
      <point x="25" y="367"/>
      <point x="133" y="460"/>
      <point x="244" y="460" type="curve" smooth="yes"/>
      <point x="328" y="460"/>
      <point x="398" y="413"/>
      <point x="398" y="357" type="curve" smooth="yes"/>
      <point x="398" y="334"/>
      <point x="376" y="315"/>
      <point x="350" y="315" type="curve" smooth="yes"/>
      <point x="329" y="315"/>
      <point x="311" y="333"/>
      <point x="303" y="361" type="curve" smooth="yes"/>
      <point x="297" y="383" type="line" smooth="yes"/>
      <point x="287" y="420"/>
      <point x="274" y="431"/>
      <point x="238" y="431" type="curve" smooth="yes"/>
      <point x="157" y="431"/>
      <point x="102" y="360"/>
      <point x="102" y="257" type="curve" smooth="yes"/>
      <point x="102" y="142"/>
      <point x="166" y="62"/>
      <point x="257" y="62" type="curve" smooth="yes"/>
      <point x="314" y="62"/>
      <point x="350" y="86"/>
      <point x="398" y="156" type="curve"/>
      <point x="412" y="147" type="line"/>
      <point x="391" y="106"/>
      <point x="338" y="-10"/>
      <point x="215" y="-10" type="curve" smooth="yes"/>
      <point x="104" y="-10"/>
      <point x="25" y="83"/>
    </contour>
    <contour>
      <point x="177" y="507" type="line"/>
      <point x="324" y="655" type="line" smooth="yes"/>
      <point x="342" y="673"/>
      <point x="351" y="678"/>
      <point x="366" y="678" type="curve" smooth="yes"/>
      <point x="388" y="678"/>
      <point x="401" y="666"/>
      <point x="401" y="646" type="curve" smooth="yes"/>
      <point x="401" y="630"/>
      <point x="392" y="617"/>
      <point x="371" y="604" type="curve" smooth="yes"/>
      <point x="217" y="507" type="line"/>
    </contour>
  </outline>
</glyph>
<glyph name="dcaron" format="1">
  <advance width="610"/>
  <unicode hex="010F"/>
  <outline>
    <contour>
      <point x="27" y="205" type="curve" smooth="yes"/>
      <point x="27" y="347"/>
      <point x="120" y="460"/>
      <point x="235" y="460" type="curve" smooth="yes"/>
      <point x="275" y="460"/>
      <point x="302" y="449"/>
      <point x="340" y="417" type="curve"/>
      <point x="340" y="573" type="line" smooth="yes"/>
      <point x="340" y="614"/>
      <point x="331" y="624"/>
      <point x="294" y="624" type="curve" smooth="yes"/>
      <point x="286" y="624"/>
      <point x="280" y="624"/>
      <point x="272" y="623" type="curve"/>
      <point x="272" y="639" type="line"/>
      <point x="336" y="656"/>
      <point x="371" y="666"/>
      <point x="419" y="683" type="curve"/>
      <point x="424" y="681" type="line"/>
      <point x="424" y="114" type="line" smooth="yes"/>
      <point x="424" y="68"/>
      <point x="432" y="57"/>
      <point x="468" y="57" type="curve" smooth="yes"/>
      <point x="471" y="57"/>
      <point x="473" y="57"/>
      <point x="491" y="58" type="curve"/>
      <point x="491" y="42" type="line"/>
      <point x="344" y="-10" type="line"/>
      <point x="340" y="-7" type="line"/>
      <point x="340" y="57" type="line"/>
      <point x="306" y="10"/>
      <point x="268" y="-10"/>
      <point x="212" y="-10" type="curve" smooth="yes"/>
      <point x="102" y="-10"/>
      <point x="27" y="77"/>
    </contour>
    <contour>
      <point x="113" y="245" type="curve" smooth="yes"/>
      <point x="113" y="122"/>
      <point x="168" y="42"/>
      <point x="251" y="42" type="curve" smooth="yes"/>
      <point x="280" y="42"/>
      <point x="305" y="52"/>
      <point x="323" y="72" type="curve" smooth="yes"/>
      <point x="333" y="83"/>
      <point x="340" y="95"/>
      <point x="340" y="102" type="curve" smooth="yes"/>
      <point x="340" y="332" type="line" smooth="yes"/>
      <point x="340" y="385"/>
      <point x="291" y="432"/>
      <point x="238" y="432" type="curve" smooth="yes"/>
      <point x="162" y="432"/>
      <point x="113" y="358"/>
    </contour>
    <contour>
      <point x="460" y="640" type="curve" smooth="yes"/>
      <point x="460" y="673"/>
      <point x="486" y="697"/>
      <point x="519" y="697" type="curve" smooth="yes"/>
      <point x="564" y="697"/>
      <point x="598" y="658"/>
      <point x="598" y="608" type="curve" smooth="yes"/>
      <point x="598" y="545"/>
      <point x="556" y="502"/>
      <point x="486" y="477" type="curve"/>
      <point x="477" y="496" type="line"/>
      <point x="532" y="518"/>
      <point x="559" y="547"/>
      <point x="559" y="579" type="curve" smooth="yes"/>
      <point x="559" y="587"/>
      <point x="553" y="593"/>
      <point x="545" y="593" type="curve" smooth="yes"/>
      <point x="544" y="593"/>
      <point x="540" y="593"/>
      <point x="533" y="591" type="curve" smooth="yes"/>
      <point x="527" y="590"/>
      <point x="525" y="589"/>
      <point x="519" y="589" type="curve" smooth="yes"/>
      <point x="486" y="589"/>
      <point x="460" y="608"/>
    </contour>
  </outline>
</glyph>
<glyph name="Dcroat" format="2">
  <advance width="722"/>
  <unicode hex="0110"/>
  <outline>
    <contour>
      <point x="16" y="0" type="line"/>
      <point x="16" y="19" type="line"/>
      <point x="88" y="21"/>
      <point x="104" y="38"/>
      <point x="104" y="109" type="curve" smooth="yes"/>
      <point x="104" y="315" type="line"/>
      <point x="88.1679" y="315"/>
      <point x="43.1238" y="315"/>
      <point x="21" y="315" type="curve"/>
      <point x="21" y="359" type="line"/>
      <point x="104" y="359" type="line"/>
      <point x="104" y="398.946"/>
      <point x="104" y="517.378"/>
      <point x="104" y="553" type="curve" smooth="yes"/>
      <point x="104" y="627"/>
      <point x="90" y="639"/>
      <point x="16" y="643" type="curve"/>
      <point x="16" y="662" type="line"/>
      <point x="286" y="662" type="line" smooth="yes"/>
      <point x="504" y="662"/>
      <point x="685" y="570"/>
      <point x="685" y="329" type="curve" smooth="yes"/>
      <point x="685" y="105"/>
      <point x="508" y="0"/>
      <point x="300" y="0" type="curve" smooth="yes"/>
    </contour>
    <contour>
      <point x="204" y="78" type="line" smooth="yes"/>
      <point x="204" y="38"/>
      <point x="227" y="37"/>
      <point x="260" y="37" type="curve"/>
      <point x="261.154" y="37"/>
      <point x="264.984" y="37"/>
      <point x="266" y="37" type="curve"/>
      <point x="456" y="37"/>
      <point x="576" y="123"/>
      <point x="576" y="328" type="curve"/>
      <point x="575.611" y="328"/>
      <point x="574.276" y="328"/>
      <point x="574" y="328" type="curve"/>
      <point x="574" y="417"/>
      <point x="548" y="494"/>
      <point x="481" y="555" type="curve" smooth="yes"/>
      <point x="415" y="615"/>
      <point x="337" y="625"/>
      <point x="251" y="625" type="curve" smooth="yes"/>
      <point x="218" y="625"/>
      <point x="204" y="619"/>
      <point x="204" y="586" type="curve" smooth="yes"/>
      <point x="204" y="359" type="line"/>
      <point x="350" y="359" type="line"/>
      <point x="350" y="315" type="line"/>
      <point x="204" y="315" type="line"/>
    </contour>
  </outline>
</glyph>
<glyph name="Edotaccent" format="1">
  <advance width="611"/>
  <unicode hex="0116"/>
  <outline>
    <contour>
      <point x="12" y="0" type="line"/>
      <point x="12" y="19" type="line"/>
      <point x="85" y="24"/>
      <point x="99" y="39"/>
      <point x="99" y="109" type="curve" smooth="yes"/>
      <point x="99" y="553" type="line" smooth="yes"/>
      <point x="99" y="623"/>
      <point x="86" y="637"/>
      <point x="12" y="643" type="curve"/>
      <point x="12" y="662" type="line"/>
      <point x="543" y="662" type="line"/>
      <point x="546" y="516" type="line"/>
      <point x="521" y="516" type="line"/>
      <point x="504" y="606"/>
      <point x="482" y="624"/>
      <point x="369" y="624" type="curve" smooth="yes"/>
      <point x="234" y="624" type="line" smooth="yes"/>
      <point x="207" y="624"/>
      <point x="201" y="615"/>
      <point x="201" y="587" type="curve" smooth="yes"/>
      <point x="201" y="368" type="line"/>
      <point x="355" y="368" type="line"/>
      <point x="355" y="367" type="line"/>
      <point x="449" y="367"/>
      <point x="454" y="396"/>
      <point x="465" y="462" type="curve"/>
      <point x="488" y="462" type="line"/>
      <point x="488" y="230" type="line"/>
      <point x="465" y="230" type="line"/>
      <point x="452" y="313"/>
      <point x="437" y="326"/>
      <point x="355" y="326" type="curve" smooth="yes"/>
      <point x="201" y="326" type="line"/>
      <point x="201" y="83" type="line"/>
      <point x="201" y="80" type="line" smooth="yes"/>
      <point x="201" y="45"/>
      <point x="202" y="38"/>
      <point x="256" y="38" type="curve" smooth="yes"/>
      <point x="333" y="38" type="line" smooth="yes"/>
      <point x="476" y="38"/>
      <point x="519" y="61"/>
      <point x="569" y="169" type="curve"/>
      <point x="597" y="169" type="line"/>
      <point x="552" y="0" type="line"/>
    </contour>
    <contour>
      <point x="258" y="784" type="curve" smooth="yes"/>
      <point x="258" y="810"/>
      <point x="281" y="833"/>
      <point x="306" y="833" type="curve" smooth="yes"/>
      <point x="334" y="833"/>
      <point x="357" y="810"/>
      <point x="357" y="783" type="curve" smooth="yes"/>
      <point x="357" y="756"/>
      <point x="334" y="734"/>
      <point x="306" y="734" type="curve" smooth="yes"/>
      <point x="279" y="734"/>
      <point x="258" y="756"/>
    </contour>
  </outline>
</glyph>
<glyph name="eogonek" format="1">
  <advance width="444"/>
  <unicode hex="0119"/>
  <outline>
    <contour>
      <point x="25" y="214" type="curve" smooth="yes"/>
      <point x="25" y="363"/>
      <point x="113" y="460"/>
      <point x="234" y="460" type="curve" smooth="yes"/>
      <point x="286" y="460"/>
      <point x="332" y="439"/>
      <point x="362" y="403" type="curve" smooth="yes"/>
      <point x="387" y="371"/>
      <point x="397" y="342"/>
      <point x="405" y="277" type="curve"/>
      <point x="97" y="277" type="line"/>
      <point x="99" y="216"/>
      <point x="106" y="183"/>
      <point x="124" y="145" type="curve" smooth="yes"/>
      <point x="153" y="88"/>
      <point x="196" y="59"/>
      <point x="253" y="59" type="curve" smooth="yes"/>
      <point x="317" y="59"/>
      <point x="360" y="88"/>
      <point x="408" y="164" type="curve"/>
      <point x="424" y="157" type="line"/>
      <point x="408" y="113"/>
      <point x="386" y="81"/>
      <point x="330" y="22" type="curve" smooth="yes"/>
      <point x="288" y="-22"/>
      <point x="275" y="-44"/>
      <point x="275" y="-70" type="curve" smooth="yes"/>
      <point x="275" y="-93"/>
      <point x="291" y="-109"/>
      <point x="313" y="-109" type="curve" smooth="yes"/>
      <point x="335" y="-109"/>
      <point x="354" y="-99"/>
      <point x="385" y="-73" type="curve"/>
      <point x="405" y="-89" type="line"/>
      <point x="367" y="-142"/>
      <point x="334" y="-165"/>
      <point x="292" y="-165" type="curve" smooth="yes"/>
      <point x="251" y="-165"/>
      <point x="219" y="-132"/>
      <point x="219" y="-89" type="curve" smooth="yes"/>
      <point x="219" y="-57"/>
      <point x="234" y="-31"/>
      <point x="272" y="-1" type="curve"/>
      <point x="249" y="-8"/>
      <point x="234" y="-10"/>
      <point x="213" y="-10" type="curve" smooth="yes"/>
      <point x="97" y="-10"/>
      <point x="25" y="76"/>
    </contour>
    <contour>
      <point x="99" y="309" type="curve"/>
      <point x="303" y="309" type="line"/>
      <point x="290" y="396"/>
      <point x="266" y="424"/>
      <point x="205" y="424" type="curve" smooth="yes"/>
      <point x="144" y="424"/>
      <point x="110" y="387"/>
    </contour>
  </outline>
</glyph>
<glyph name="gcedilla" format="1">
  <advance width="500"/>
  <unicode hex="0123"/>
  <outline>
    <contour>
      <point x="27" y="-121" type="curve" smooth="yes"/>
      <point x="27" y="-70"/>
      <point x="88" y="-25"/>
      <point x="125" y="1" type="curve"/>
      <point x="103" y="12"/>
      <point x="72" y="25"/>
      <point x="72" y="54" type="curve" smooth="yes"/>
      <point x="72" y="91"/>
      <point x="137" y="142"/>
      <point x="161" y="163" type="curve"/>
      <point x="107" y="187"/>
      <point x="68" y="231"/>
      <point x="68" y="293" type="curve" smooth="yes"/>
      <point x="68" y="393"/>
      <point x="142" y="460"/>
      <point x="240" y="460" type="curve" smooth="yes"/>
      <point x="278" y="460"/>
      <point x="302" y="449"/>
      <point x="337" y="437" type="curve" smooth="yes"/>
      <point x="362" y="428"/>
      <point x="389" y="426"/>
      <point x="416" y="426" type="curve" smooth="yes"/>
      <point x="434" y="426"/>
      <point x="452" y="427"/>
      <point x="470" y="427" type="curve"/>
      <point x="470" y="388" type="line"/>
      <point x="386" y="388" type="line"/>
      <point x="401" y="354"/>
      <point x="405" y="333"/>
      <point x="405" y="296" type="curve" smooth="yes"/>
      <point x="405" y="209"/>
      <point x="329" y="149"/>
      <point x="246" y="149" type="curve" smooth="yes"/>
      <point x="228" y="149"/>
      <point x="210" y="154"/>
      <point x="192" y="154" type="curve" smooth="yes"/>
      <point x="173" y="154"/>
      <point x="132" y="110"/>
      <point x="132" y="91" type="curve" smooth="yes"/>
      <point x="132" y="66"/>
      <point x="193" y="65"/>
      <point x="210" y="64" type="curve" smooth="yes"/>
      <point x="339" y="58" type="line" smooth="yes"/>
      <point x="403" y="55"/>
      <point x="460" y="21"/>
      <point x="460" y="-49" type="curve" smooth="yes"/>
      <point x="460" y="-161"/>
      <point x="296" y="-218"/>
      <point x="204" y="-218" type="curve" smooth="yes"/>
      <point x="149" y="-218"/>
      <point x="27" y="-196"/>
    </contour>
    <contour>
      <point x="97" y="-88" type="curve" smooth="yes"/>
      <point x="97" y="-132"/>
      <point x="155" y="-161"/>
      <point x="243" y="-161" type="curve" smooth="yes"/>
      <point x="356" y="-161"/>
      <point x="432" y="-122"/>
      <point x="432" y="-64" type="curve" smooth="yes"/>
      <point x="432" y="-28"/>
      <point x="399" y="-15"/>
      <point x="308" y="-15" type="curve" smooth="yes"/>
      <point x="259" y="-15"/>
      <point x="179" y="-9"/>
      <point x="146" y="-2" type="curve"/>
      <point x="104" y="-52"/>
      <point x="97" y="-65"/>
    </contour>
    <contour>
      <point x="151" y="342" type="curve" smooth="yes"/>
      <point x="151" y="276"/>
      <point x="171" y="174"/>
      <point x="255" y="174" type="curve" smooth="yes"/>
      <point x="310" y="174"/>
      <point x="328" y="223"/>
      <point x="328" y="270" type="curve" smooth="yes"/>
      <point x="328" y="329"/>
      <point x="299" y="432"/>
      <point x="226" y="432" type="curve" smooth="yes"/>
      <point x="174" y="432"/>
      <point x="151" y="390"/>
    </contour>
    <contour>
      <point x="182" y="596" type="curve" smooth="yes"/>
      <point x="182" y="659"/>
      <point x="224" y="702"/>
      <point x="294" y="727" type="curve"/>
      <point x="303" y="708" type="line"/>
      <point x="248" y="686"/>
      <point x="221" y="657"/>
      <point x="221" y="625" type="curve" smooth="yes"/>
      <point x="221" y="617"/>
      <point x="227" y="611"/>
      <point x="235" y="611" type="curve" smooth="yes"/>
      <point x="236" y="611"/>
      <point x="240" y="611"/>
      <point x="247" y="613" type="curve" smooth="yes"/>
      <point x="253" y="614"/>
      <point x="255" y="615"/>
      <point x="261" y="615" type="curve" smooth="yes"/>
      <point x="294" y="615"/>
      <point x="320" y="596"/>
      <point x="320" y="564" type="curve" smooth="yes"/>
      <point x="320" y="531"/>
      <point x="294" y="507"/>
      <point x="261" y="507" type="curve" smooth="yes"/>
      <point x="216" y="507"/>
      <point x="182" y="546"/>
    </contour>
  </outline>
</glyph>
<glyph name="Hcircumflex" format="1">
  <advance width="722"/>
  <unicode hex="0124"/>
  <outline>
    <contour>
      <point x="12" y="0" type="line"/>
      <point x="12" y="19" type="line"/>
      <point x="90" y="24"/>
      <point x="100" y="36"/>
      <point x="100" y="120" type="curve" smooth="yes"/>
      <point x="100" y="553" type="line" smooth="yes"/>
      <point x="100" y="625"/>
      <point x="89" y="636"/>
      <point x="12" y="643" type="curve"/>
      <point x="12" y="662" type="line"/>
      <point x="290" y="662" type="line"/>
      <point x="290" y="643" type="line"/>
      <point x="213" y="636"/>
      <point x="202" y="625"/>
      <point x="202" y="553" type="curve" smooth="yes"/>
      <point x="202" y="359" type="line"/>
      <point x="505" y="359" type="line"/>
      <point x="505" y="553" type="line" smooth="yes"/>
      <point x="505" y="625"/>
      <point x="494" y="636"/>
      <point x="417" y="643" type="curve"/>
      <point x="417" y="662" type="line"/>
      <point x="695" y="662" type="line"/>
      <point x="695" y="643" type="line"/>
      <point x="618" y="636"/>
      <point x="607" y="625"/>
      <point x="607" y="553" type="curve" smooth="yes"/>
      <point x="607" y="109" type="line" smooth="yes"/>
      <point x="607" y="38"/>
      <point x="620" y="25"/>
      <point x="695" y="19" type="curve"/>
      <point x="695" y="0" type="line"/>
      <point x="417" y="0" type="line"/>
      <point x="417" y="19" type="line"/>
      <point x="495" y="24"/>
      <point x="505" y="36"/>
      <point x="505" y="120" type="curve" smooth="yes"/>
      <point x="505" y="318" type="line"/>
      <point x="202" y="318" type="line"/>
      <point x="202" y="109" type="line" smooth="yes"/>
      <point x="202" y="38"/>
      <point x="215" y="25"/>
      <point x="290" y="19" type="curve"/>
      <point x="290" y="0" type="line"/>
    </contour>
    <contour>
      <point x="199" y="719" type="line"/>
      <point x="323" y="886" type="line"/>
      <point x="385" y="886" type="line"/>
      <point x="510" y="719" type="line"/>
      <point x="476" y="719" type="line"/>
      <point x="354" y="822" type="line"/>
      <point x="233" y="719" type="line"/>
    </contour>
  </outline>
</glyph>
<glyph name="Hbar" format="2">
  <advance width="722"/>
  <unicode hex="0126"/>
  <outline>
    <contour>
      <point x="19" y="0" type="line"/>
      <point x="19" y="19" type="line"/>
      <point x="101" y="23"/>
      <point x="107" y="44"/>
      <point x="107" y="120" type="curve" smooth="yes"/>
      <point x="107" y="446" type="line"/>
      <point x="61" y="446" type="line"/>
      <point x="61" y="490" type="line"/>
      <point x="107" y="490" type="line"/>
      <point x="107" y="553" type="line" smooth="yes"/>
      <point x="107" y="628"/>
      <point x="92" y="637"/>
      <point x="19" y="643" type="curve"/>
      <point x="19" y="662" type="line"/>
      <point x="297" y="662" type="line"/>
      <point x="297" y="643" type="line"/>
      <point x="218" y="637"/>
      <point x="207" y="610"/>
      <point x="207" y="560" type="curve" smooth="yes"/>
      <point x="207" y="540"/>
      <point x="209" y="517"/>
      <point x="209" y="490" type="curve"/>
      <point x="512" y="490" type="line"/>
      <point x="512" y="553" type="line" smooth="yes"/>
      <point x="512" y="628"/>
      <point x="497" y="637"/>
      <point x="424" y="643" type="curve"/>
      <point x="424" y="662" type="line"/>
      <point x="702" y="662" type="line"/>
      <point x="702" y="643" type="line"/>
      <point x="623" y="637"/>
      <point x="612" y="610"/>
      <point x="612" y="560" type="curve" smooth="yes"/>
      <point x="612" y="540"/>
      <point x="614" y="517"/>
      <point x="614" y="490" type="curve"/>
      <point x="659" y="490" type="line"/>
      <point x="659" y="446" type="line"/>
      <point x="614" y="446" type="line"/>
      <point x="614" y="109" type="line" smooth="yes"/>
      <point x="614" y="37"/>
      <point x="630" y="23"/>
      <point x="702" y="19" type="curve"/>
      <point x="702" y="0" type="line"/>
      <point x="424" y="0" type="line"/>
      <point x="424" y="19" type="line"/>
      <point x="506" y="23"/>
      <point x="512" y="44"/>
      <point x="512" y="120" type="curve" smooth="yes"/>
      <point x="512" y="315" type="line"/>
      <point x="209" y="315" type="line"/>
      <point x="209" y="109" type="line" smooth="yes"/>
      <point x="209" y="37"/>
      <point x="225" y="23"/>
      <point x="297" y="19" type="curve"/>
      <point x="297" y="0" type="line"/>
    </contour>
    <contour>
      <point x="209" y="359" type="line"/>
      <point x="512" y="359" type="line"/>
      <point x="512" y="446" type="line"/>
      <point x="209" y="446" type="line"/>
    </contour>
  </outline>
</glyph>
<glyph name="hbar" format="1">
  <advance width="500"/>
  <unicode hex="0127"/>
  <outline>
    <contour>
      <point x="9" y="0" type="line"/>
      <point x="9" y="15" type="line"/>
      <point x="72" y="23"/>
      <point x="73" y="41"/>
      <point x="73" y="102" type="curve" smooth="yes"/>
      <point x="73" y="519" type="line"/>
      <point x="12" y="519" type="line"/>
      <point x="12" y="563" type="line"/>
      <point x="73" y="563" type="line"/>
      <point x="73" y="573" type="line" smooth="yes"/>
      <point x="73" y="609"/>
      <point x="63" y="626"/>
      <point x="34" y="626" type="curve" smooth="yes"/>
      <point x="27" y="626"/>
      <point x="19" y="625"/>
      <point x="10" y="623" type="curve"/>
      <point x="10" y="639" type="line"/>
      <point x="58" y="653"/>
      <point x="105" y="666"/>
      <point x="152" y="683" type="curve"/>
      <point x="157" y="680" type="line"/>
      <point x="157" y="563" type="line"/>
      <point x="267" y="563" type="line"/>
      <point x="267" y="519" type="line"/>
      <point x="157" y="519" type="line"/>
      <point x="157" y="378" type="line"/>
      <point x="159" y="378" type="line"/>
      <point x="193" y="427"/>
      <point x="242" y="460"/>
      <point x="303" y="460" type="curve" smooth="yes"/>
      <point x="402" y="460"/>
      <point x="427" y="385"/>
      <point x="427" y="301" type="curve" smooth="yes"/>
      <point x="427" y="102" type="line" smooth="yes"/>
      <point x="427" y="43"/>
      <point x="427" y="25"/>
      <point x="487" y="15" type="curve"/>
      <point x="487" y="0" type="line"/>
      <point x="275" y="0" type="line"/>
      <point x="275" y="15" type="line"/>
      <point x="337" y="21"/>
      <point x="343" y="40"/>
      <point x="343" y="102" type="curve" smooth="yes"/>
      <point x="343" y="300" type="line" smooth="yes"/>
      <point x="343" y="353"/>
      <point x="329" y="406"/>
      <point x="266" y="406" type="curve" smooth="yes"/>
      <point x="222" y="406"/>
      <point x="184" y="374"/>
      <point x="157" y="343" type="curve"/>
      <point x="157" y="102" type="line" smooth="yes"/>
      <point x="157" y="40"/>
      <point x="163" y="21"/>
      <point x="225" y="15" type="curve"/>
      <point x="225" y="0" type="line"/>
    </contour>
  </outline>
</glyph>
<glyph name="Itilde" format="1">
  <advance width="333"/>
  <unicode hex="0128"/>
  <outline>
    <contour>
      <point x="-5" y="744" type="line"/>
      <point x="10" y="809"/>
      <point x="46" y="845"/>
      <point x="96" y="845" type="curve" smooth="yes"/>
      <point x="118" y="845"/>
      <point x="143" y="839"/>
      <point x="166" y="827" type="curve" smooth="yes"/>
      <point x="190" y="815" type="line" smooth="yes"/>
      <point x="209" y="806"/>
      <point x="228" y="800"/>
      <point x="243" y="800" type="curve" smooth="yes"/>
      <point x="266" y="800"/>
      <point x="279" y="812"/>
      <point x="296" y="850" type="curve"/>
      <point x="325" y="850" type="line"/>
      <point x="304" y="774"/>
      <point x="275" y="744"/>
      <point x="220" y="744" type="curve" smooth="yes"/>
      <point x="195" y="744"/>
      <point x="180" y="748"/>
      <point x="139" y="768" type="curve" smooth="yes"/>
      <point x="116" y="779" type="line" smooth="yes"/>
      <point x="101" y="786"/>
      <point x="87" y="790"/>
      <point x="75" y="790" type="curve" smooth="yes"/>
      <point x="52" y="790"/>
      <point x="35" y="775"/>
      <point x="24" y="744" type="curve"/>
    </contour>
    <contour>
      <point x="12" y="0" type="line"/>
      <point x="12" y="19" type="line"/>
      <point x="96" y="22"/>
      <point x="109" y="34"/>
      <point x="109" y="109" type="curve" smooth="yes"/>
      <point x="109" y="553" type="line" smooth="yes"/>
      <point x="109" y="627"/>
      <point x="97" y="638"/>
      <point x="12" y="643" type="curve"/>
      <point x="12" y="662" type="line"/>
      <point x="309" y="662" type="line"/>
      <point x="309" y="643" type="line"/>
      <point x="225" y="639"/>
      <point x="211" y="626"/>
      <point x="211" y="553" type="curve" smooth="yes"/>
      <point x="211" y="109" type="line" smooth="yes"/>
      <point x="211" y="36"/>
      <point x="227" y="22"/>
      <point x="309" y="19" type="curve"/>
      <point x="309" y="0" type="line"/>
    </contour>
  </outline>
</glyph>
<glyph name="itilde" format="1">
  <advance width="278"/>
  <unicode hex="0129"/>
  <outline>
    <contour>
      <point x="-26" y="532" type="line"/>
      <point x="-11" y="597"/>
      <point x="25" y="633"/>
      <point x="75" y="633" type="curve" smooth="yes"/>
      <point x="97" y="633"/>
      <point x="122" y="627"/>
      <point x="145" y="615" type="curve" smooth="yes"/>
      <point x="169" y="603" type="line" smooth="yes"/>
      <point x="188" y="594"/>
      <point x="207" y="588"/>
      <point x="222" y="588" type="curve" smooth="yes"/>
      <point x="245" y="588"/>
      <point x="258" y="600"/>
      <point x="275" y="638" type="curve"/>
      <point x="304" y="638" type="line"/>
      <point x="283" y="562"/>
      <point x="254" y="532"/>
      <point x="199" y="532" type="curve" smooth="yes"/>
      <point x="174" y="532"/>
      <point x="159" y="536"/>
      <point x="118" y="556" type="curve" smooth="yes"/>
      <point x="95" y="567" type="line" smooth="yes"/>
      <point x="80" y="574"/>
      <point x="66" y="578"/>
      <point x="54" y="578" type="curve" smooth="yes"/>
      <point x="31" y="578"/>
      <point x="14" y="563"/>
      <point x="3" y="532" type="curve"/>
    </contour>
    <contour>
      <point x="16" y="0" type="line"/>
      <point x="16" y="15" type="line"/>
      <point x="85" y="19"/>
      <point x="95" y="30"/>
      <point x="95" y="102" type="curve" smooth="yes"/>
      <point x="95" y="334" type="line" smooth="yes"/>
      <point x="95" y="378"/>
      <point x="86" y="394"/>
      <point x="62" y="394" type="curve" smooth="yes"/>
      <point x="53" y="394"/>
      <point x="40" y="393"/>
      <point x="28" y="391" type="curve" smooth="yes"/>
      <point x="20" y="390" type="line"/>
      <point x="20" y="405" type="line"/>
      <point x="175" y="460" type="line"/>
      <point x="179" y="457" type="line"/>
      <point x="179" y="102" type="line" smooth="yes"/>
      <point x="179" y="30"/>
      <point x="187" y="20"/>
      <point x="253" y="15" type="curve"/>
      <point x="253" y="0" type="line"/>
    </contour>
  </outline>
</glyph>
<glyph name="ibreve" format="1">
  <advance width="278"/>
  <unicode hex="012D"/>
  <outline>
    <contour>
      <point x="-1" y="664" type="curve"/>
      <point x="28" y="664" type="line"/>
      <point x="38" y="603"/>
      <point x="77" y="567"/>
      <point x="139" y="567" type="curve" smooth="yes"/>
      <point x="209" y="567"/>
      <point x="229" y="605"/>
      <point x="251" y="664" type="curve"/>
      <point x="280" y="664" type="line"/>
      <point x="272" y="578"/>
      <point x="233" y="507"/>
      <point x="137" y="507" type="curve" smooth="yes"/>
      <point x="43" y="507"/>
      <point x="-1" y="577"/>
    </contour>
    <contour>
      <point x="16" y="0" type="line"/>
      <point x="16" y="15" type="line"/>
      <point x="85" y="19"/>
      <point x="95" y="30"/>
      <point x="95" y="102" type="curve" smooth="yes"/>
      <point x="95" y="334" type="line" smooth="yes"/>
      <point x="95" y="378"/>
      <point x="86" y="394"/>
      <point x="62" y="394" type="curve" smooth="yes"/>
      <point x="53" y="394"/>
      <point x="40" y="393"/>
      <point x="28" y="391" type="curve" smooth="yes"/>
      <point x="20" y="390" type="line"/>
      <point x="20" y="405" type="line"/>
      <point x="175" y="460" type="line"/>
      <point x="179" y="457" type="line"/>
      <point x="179" y="102" type="line" smooth="yes"/>
      <point x="179" y="30"/>
      <point x="187" y="20"/>
      <point x="253" y="15" type="curve"/>
      <point x="253" y="0" type="line"/>
    </contour>
  </outline>
</glyph>
<glyph name="iogonek" format="1">
  <advance width="278"/>
  <unicode hex="012F"/>
  <outline>
    <contour>
      <point x="16" y="0" type="line"/>
      <point x="16" y="15" type="line"/>
      <point x="85" y="19"/>
      <point x="95" y="30"/>
      <point x="95" y="102" type="curve" smooth="yes"/>
      <point x="95" y="334" type="line" smooth="yes"/>
      <point x="95" y="378"/>
      <point x="86" y="394"/>
      <point x="62" y="394" type="curve" smooth="yes"/>
      <point x="53" y="394"/>
      <point x="40" y="393"/>
      <point x="28" y="391" type="curve" smooth="yes"/>
      <point x="20" y="390" type="line"/>
      <point x="20" y="405" type="line"/>
      <point x="175" y="460" type="line"/>
      <point x="179" y="457" type="line"/>
      <point x="179" y="102" type="line" smooth="yes"/>
      <point x="179" y="30"/>
      <point x="187" y="20"/>
      <point x="253" y="15" type="curve"/>
      <point x="253" y="0" type="line"/>
      <point x="220" y="0" type="line" smooth="yes"/>
      <point x="182" y="0"/>
      <point x="149" y="-33"/>
      <point x="149" y="-70" type="curve" smooth="yes"/>
      <point x="149" y="-92"/>
      <point x="165" y="-109"/>
      <point x="187" y="-109" type="curve" smooth="yes"/>
      <point x="208" y="-109"/>
      <point x="227" y="-99"/>
      <point x="258" y="-73" type="curve"/>
      <point x="278" y="-89" type="line"/>
      <point x="241" y="-142"/>
      <point x="207" y="-165"/>
      <point x="166" y="-165" type="curve" smooth="yes"/>
      <point x="125" y="-165"/>
      <point x="93" y="-132"/>
      <point x="93" y="-89" type="curve" smooth="yes"/>
      <point x="93" y="-56"/>
      <point x="108" y="-31"/>
      <point x="147" y="0" type="curve"/>
    </contour>
    <contour>
      <point x="78" y="632" type="curve" smooth="yes"/>
      <point x="78" y="660"/>
      <point x="101" y="683"/>
      <point x="128" y="683" type="curve" smooth="yes"/>
      <point x="157" y="683"/>
      <point x="180" y="660"/>
      <point x="180" y="632" type="curve" smooth="yes"/>
      <point x="180" y="603"/>
      <point x="157" y="581"/>
      <point x="128" y="581" type="curve" smooth="yes"/>
      <point x="100" y="581"/>
      <point x="78" y="604"/>
    </contour>
  </outline>
</glyph>
<glyph name="dotlessi" format="2">
  <advance width="278"/>
  <unicode hex="0131"/>
  <outline>
    <contour>
      <point x="16" y="0" type="line"/>
      <point x="16" y="15" type="line"/>
      <point x="85" y="19"/>
      <point x="95" y="30"/>
      <point x="95" y="102" type="curve" smooth="yes"/>
      <point x="95" y="389" type="line" smooth="yes"/>
      <point x="95" y="422.583"/>
      <point x="72.3917" y="439.464"/>
      <point x="20" y="445" type="curve"/>
      <point x="20" y="460" type="line"/>
      <point x="179" y="460" type="line"/>
      <point x="179" y="102" type="line" smooth="yes"/>
      <point x="179" y="30"/>
      <point x="187" y="20"/>
      <point x="253" y="15" type="curve"/>
      <point x="253" y="0" type="line"/>
    </contour>
  </outline>
</glyph>
<glyph name="IJ" format="1">
  <advance width="694"/>
  <unicode hex="0132"/>
  <outline>
    <contour>
      <point x="12" y="0" type="line"/>
      <point x="12" y="19" type="line"/>
      <point x="96" y="22"/>
      <point x="109" y="34"/>
      <point x="109" y="109" type="curve" smooth="yes"/>
      <point x="109" y="553" type="line" smooth="yes"/>
      <point x="109" y="627"/>
      <point x="97" y="638"/>
      <point x="12" y="643" type="curve"/>
      <point x="12" y="662" type="line"/>
      <point x="309" y="662" type="line"/>
      <point x="309" y="643" type="line"/>
      <point x="225" y="639"/>
      <point x="211" y="626"/>
      <point x="211" y="553" type="curve" smooth="yes"/>
      <point x="211" y="109" type="line" smooth="yes"/>
      <point x="211" y="36"/>
      <point x="227" y="22"/>
      <point x="309" y="19" type="curve"/>
      <point x="309" y="0" type="line"/>
    </contour>
    <contour>
      <point x="313" y="58" type="curve" smooth="yes"/>
      <point x="313" y="85"/>
      <point x="335" y="108"/>
      <point x="362" y="108" type="curve" smooth="yes"/>
      <point x="388" y="108"/>
      <point x="404" y="92"/>
      <point x="414" y="57" type="curve" smooth="yes"/>
      <point x="421" y="32"/>
      <point x="427" y="24"/>
      <point x="441" y="24" type="curve" smooth="yes"/>
      <point x="467" y="24"/>
      <point x="479" y="45"/>
      <point x="479" y="90" type="curve" smooth="yes"/>
      <point x="479" y="553" type="line" smooth="yes"/>
      <point x="479" y="626"/>
      <point x="468" y="637"/>
      <point x="386" y="643" type="curve"/>
      <point x="386" y="662" type="line"/>
      <point x="673" y="662" type="line"/>
      <point x="673" y="643" type="line"/>
      <point x="592" y="637"/>
      <point x="581" y="626"/>
      <point x="581" y="553" type="curve" smooth="yes"/>
      <point x="581" y="183" type="line" smooth="yes"/>
      <point x="581" y="58"/>
      <point x="520" y="-14"/>
      <point x="412" y="-14" type="curve" smooth="yes"/>
      <point x="354" y="-14"/>
      <point x="313" y="16"/>
    </contour>
  </outline>
</glyph>
<glyph name="ij" format="1">
  <advance width="396"/>
  <unicode hex="0133"/>
  <outline>
    <contour>
      <point x="16" y="0" type="line"/>
      <point x="16" y="15" type="line"/>
      <point x="85" y="19"/>
      <point x="95" y="30"/>
      <point x="95" y="102" type="curve" smooth="yes"/>
      <point x="95" y="334" type="line" smooth="yes"/>
      <point x="95" y="378"/>
      <point x="86" y="394"/>
      <point x="62" y="394" type="curve" smooth="yes"/>
      <point x="53" y="394"/>
      <point x="40" y="393"/>
      <point x="28" y="391" type="curve" smooth="yes"/>
      <point x="20" y="390" type="line"/>
      <point x="20" y="405" type="line"/>
      <point x="175" y="460" type="line"/>
      <point x="179" y="457" type="line"/>
      <point x="179" y="102" type="line" smooth="yes"/>
      <point x="179" y="30"/>
      <point x="187" y="20"/>
      <point x="253" y="15" type="curve"/>
      <point x="253" y="0" type="line"/>
    </contour>
    <contour>
      <point x="79" y="633" type="curve" smooth="yes"/>
      <point x="79" y="659"/>
      <point x="102" y="682"/>
      <point x="127" y="682" type="curve" smooth="yes"/>
      <point x="155" y="682"/>
      <point x="178" y="659"/>
      <point x="178" y="632" type="curve" smooth="yes"/>
      <point x="178" y="605"/>
      <point x="155" y="583"/>
      <point x="127" y="583" type="curve" smooth="yes"/>
      <point x="100" y="583"/>
      <point x="79" y="605"/>
    </contour>
    <contour>
      <point x="116" y="-159" type="curve" smooth="yes"/>
      <point x="116" y="-137"/>
      <point x="134" y="-120"/>
      <point x="157" y="-120" type="curve" smooth="yes"/>
      <point x="173" y="-120"/>
      <point x="187" y="-129"/>
      <point x="205" y="-152" type="curve" smooth="yes"/>
      <point x="222" y="-173"/>
      <point x="232" y="-180"/>
      <point x="247" y="-180" type="curve" smooth="yes"/>
      <point x="261" y="-180"/>
      <point x="275" y="-172"/>
      <point x="281" y="-162" type="curve" smooth="yes"/>
      <point x="292" y="-142"/>
      <point x="295" y="-117"/>
      <point x="295" y="-41" type="curve" smooth="yes"/>
      <point x="295" y="338" type="line" smooth="yes"/>
      <point x="295" y="381"/>
      <point x="286" y="398"/>
      <point x="263" y="398" type="curve" smooth="yes"/>
      <point x="253" y="398"/>
      <point x="238" y="397"/>
      <point x="223" y="395" type="curve" smooth="yes"/>
      <point x="218" y="394" type="line"/>
      <point x="218" y="410" type="line"/>
      <point x="277" y="428"/>
      <point x="315" y="441"/>
      <point x="374" y="464" type="curve"/>
      <point x="379" y="461" type="line"/>
      <point x="379" y="4" type="line" smooth="yes"/>
      <point x="379" y="-138"/>
      <point x="320" y="-214"/>
      <point x="210" y="-214" type="curve" smooth="yes"/>
      <point x="156" y="-214"/>
      <point x="116" y="-191"/>
    </contour>
    <contour>
      <point x="278" y="637" type="curve" smooth="yes"/>
      <point x="278" y="663"/>
      <point x="301" y="686"/>
      <point x="326" y="686" type="curve" smooth="yes"/>
      <point x="354" y="686"/>
      <point x="377" y="663"/>
      <point x="377" y="636" type="curve" smooth="yes"/>
      <point x="377" y="609"/>
      <point x="354" y="587"/>
      <point x="326" y="587" type="curve" smooth="yes"/>
      <point x="299" y="587"/>
      <point x="278" y="609"/>
    </contour>
  </outline>
</glyph>
<glyph name="Lacute" format="1">
  <advance width="611"/>
  <unicode hex="0139"/>
  <outline>
    <contour>
      <point x="12" y="0" type="line"/>
      <point x="12" y="19" type="line"/>
      <point x="85" y="24"/>
      <point x="99" y="39"/>
      <point x="99" y="109" type="curve" smooth="yes"/>
      <point x="99" y="553" type="line" smooth="yes"/>
      <point x="99" y="623"/>
      <point x="86" y="637"/>
      <point x="12" y="643" type="curve"/>
      <point x="12" y="662" type="line"/>
      <point x="294" y="662" type="line"/>
      <point x="294" y="643" type="line"/>
      <point x="215" y="638"/>
      <point x="201" y="624"/>
      <point x="201" y="553" type="curve" smooth="yes"/>
      <point x="201" y="80" type="line" smooth="yes"/>
      <point x="201" y="45"/>
      <point x="214" y="39"/>
      <point x="287" y="39" type="curve" smooth="yes"/>
      <point x="354" y="39" type="line" smooth="yes"/>
      <point x="437" y="39"/>
      <point x="492" y="57"/>
      <point x="527" y="96" type="curve" smooth="yes"/>
      <point x="542" y="113"/>
      <point x="556" y="136"/>
      <point x="573" y="174" type="curve"/>
      <point x="598" y="174" type="line"/>
      <point x="550" y="0" type="line"/>
    </contour>
    <contour>
      <point x="123" y="719" type="line"/>
      <point x="270" y="867" type="line" smooth="yes"/>
      <point x="288" y="885"/>
      <point x="297" y="890"/>
      <point x="312" y="890" type="curve" smooth="yes"/>
      <point x="334" y="890"/>
      <point x="347" y="878"/>
      <point x="347" y="858" type="curve" smooth="yes"/>
      <point x="347" y="842"/>
      <point x="338" y="829"/>
      <point x="317" y="816" type="curve" smooth="yes"/>
      <point x="163" y="719" type="line"/>
    </contour>
  </outline>
</glyph>
<glyph name="Lcaron" format="1">
  <advance width="611"/>
  <unicode hex="013D"/>
  <outline>
    <contour>
      <point x="12" y="0" type="line"/>
      <point x="12" y="19" type="line"/>
      <point x="85" y="24"/>
      <point x="99" y="39"/>
      <point x="99" y="109" type="curve" smooth="yes"/>
      <point x="99" y="553" type="line" smooth="yes"/>
      <point x="99" y="623"/>
      <point x="86" y="637"/>
      <point x="12" y="643" type="curve"/>
      <point x="12" y="662" type="line"/>
      <point x="294" y="662" type="line"/>
      <point x="294" y="643" type="line"/>
      <point x="215" y="638"/>
      <point x="201" y="624"/>
      <point x="201" y="553" type="curve" smooth="yes"/>
      <point x="201" y="80" type="line" smooth="yes"/>
      <point x="201" y="45"/>
      <point x="214" y="39"/>
      <point x="287" y="39" type="curve" smooth="yes"/>
      <point x="354" y="39" type="line" smooth="yes"/>
      <point x="437" y="39"/>
      <point x="492" y="57"/>
      <point x="527" y="96" type="curve" smooth="yes"/>
      <point x="542" y="113"/>
      <point x="556" y="136"/>
      <point x="573" y="174" type="curve"/>
      <point x="598" y="174" type="line"/>
      <point x="550" y="0" type="line"/>
    </contour>
    <contour>
      <point x="378" y="640" type="curve" smooth="yes"/>
      <point x="378" y="673"/>
      <point x="404" y="697"/>
      <point x="437" y="697" type="curve" smooth="yes"/>
      <point x="482" y="697"/>
      <point x="516" y="658"/>
      <point x="516" y="608" type="curve" smooth="yes"/>
      <point x="516" y="545"/>
      <point x="474" y="502"/>
      <point x="404" y="477" type="curve"/>
      <point x="395" y="496" type="line"/>
      <point x="450" y="518"/>
      <point x="477" y="547"/>
      <point x="477" y="579" type="curve" smooth="yes"/>
      <point x="477" y="587"/>
      <point x="471" y="593"/>
      <point x="463" y="593" type="curve" smooth="yes"/>
      <point x="462" y="593"/>
      <point x="458" y="593"/>
      <point x="451" y="591" type="curve" smooth="yes"/>
      <point x="445" y="590"/>
      <point x="443" y="589"/>
      <point x="437" y="589" type="curve" smooth="yes"/>
      <point x="404" y="589"/>
      <point x="378" y="608"/>
    </contour>
  </outline>
</glyph>
<glyph name="lcaron" format="1">
  <advance width="360"/>
  <unicode hex="013E"/>
  <outline>
    <contour>
      <point x="19" y="623" type="line"/>
      <point x="19" y="639" type="line"/>
      <point x="88" y="656"/>
      <point x="126" y="666"/>
      <point x="178" y="683" type="curve"/>
      <point x="182" y="681" type="line"/>
      <point x="182" y="84" type="line" smooth="yes"/>
      <point x="182" y="29"/>
      <point x="194" y="19"/>
      <point x="257" y="15" type="curve"/>
      <point x="257" y="0" type="line"/>
      <point x="21" y="0" type="line"/>
      <point x="21" y="15" type="line"/>
      <point x="84" y="20"/>
      <point x="98" y="33"/>
      <point x="98" y="87" type="curve" smooth="yes"/>
      <point x="98" y="564" type="line" smooth="yes"/>
      <point x="98" y="611"/>
      <point x="88" y="625"/>
      <point x="56" y="625" type="curve" smooth="yes"/>
      <point x="48" y="625"/>
      <point x="36" y="624"/>
      <point x="25" y="623" type="curve" smooth="yes"/>
    </contour>
    <contour>
      <point x="210" y="640" type="curve" smooth="yes"/>
      <point x="210" y="673"/>
      <point x="236" y="697"/>
      <point x="269" y="697" type="curve" smooth="yes"/>
      <point x="314" y="697"/>
      <point x="348" y="658"/>
      <point x="348" y="608" type="curve" smooth="yes"/>
      <point x="348" y="545"/>
      <point x="306" y="502"/>
      <point x="236" y="477" type="curve"/>
      <point x="227" y="496" type="line"/>
      <point x="282" y="518"/>
      <point x="309" y="547"/>
      <point x="309" y="579" type="curve" smooth="yes"/>
      <point x="309" y="587"/>
      <point x="303" y="593"/>
      <point x="295" y="593" type="curve" smooth="yes"/>
      <point x="294" y="593"/>
      <point x="290" y="593"/>
      <point x="283" y="591" type="curve" smooth="yes"/>
      <point x="277" y="590"/>
      <point x="275" y="589"/>
      <point x="269" y="589" type="curve" smooth="yes"/>
      <point x="236" y="589"/>
      <point x="210" y="608"/>
    </contour>
  </outline>
</glyph>
<glyph name="Lslash" format="1">
  <advance width="611"/>
  <unicode hex="0141"/>
  <outline>
    <contour>
      <point x="12" y="0" type="line"/>
      <point x="12" y="19" type="line"/>
      <point x="85" y="24"/>
      <point x="99" y="39"/>
      <point x="99" y="109" type="curve" smooth="yes"/>
      <point x="99" y="276" type="line"/>
      <point x="12" y="226" type="line"/>
      <point x="12" y="275" type="line"/>
      <point x="99" y="325" type="line"/>
      <point x="99" y="553" type="line" smooth="yes"/>
      <point x="99" y="623"/>
      <point x="86" y="637"/>
      <point x="12" y="643" type="curve"/>
      <point x="12" y="662" type="line"/>
      <point x="294" y="662" type="line"/>
      <point x="294" y="643" type="line"/>
      <point x="215" y="638"/>
      <point x="201" y="624"/>
      <point x="201" y="553" type="curve" smooth="yes"/>
      <point x="201" y="384" type="line"/>
      <point x="356" y="473" type="line"/>
      <point x="356" y="424" type="line"/>
      <point x="201" y="335" type="line"/>
      <point x="201" y="80" type="line" smooth="yes"/>
      <point x="201" y="45"/>
      <point x="214" y="39"/>
      <point x="287" y="39" type="curve" smooth="yes"/>
      <point x="354" y="39" type="line" smooth="yes"/>
      <point x="437" y="39"/>
      <point x="492" y="57"/>
      <point x="527" y="96" type="curve" smooth="yes"/>
      <point x="542" y="113"/>
      <point x="556" y="136"/>
      <point x="573" y="174" type="curve"/>
      <point x="598" y="174" type="line"/>
      <point x="550" y="0" type="line"/>
    </contour>
  </outline>
</glyph>
<glyph name="Eng" format="1">
  <advance width="722"/>
  <unicode hex="014A"/>
  <outline>
    <contour>
      <point x="12" y="0" type="line"/>
      <point x="12" y="19" type="line"/>
      <point x="95" y="25"/>
      <point x="109" y="44"/>
      <point x="109" y="147" type="curve" smooth="yes"/>
      <point x="109" y="588" type="line"/>
      <point x="69" y="635"/>
      <point x="55" y="643"/>
      <point x="12" y="643" type="curve"/>
      <point x="12" y="662" type="line"/>
      <point x="183" y="662" type="line"/>
      <point x="568" y="178" type="line"/>
      <point x="568" y="515" type="line" smooth="yes"/>
      <point x="568" y="577"/>
      <point x="559" y="613"/>
      <point x="539" y="627" type="curve" smooth="yes"/>
      <point x="524" y="636"/>
      <point x="510" y="640"/>
      <point x="472" y="643" type="curve"/>
      <point x="472" y="662" type="line"/>
      <point x="707" y="662" type="line"/>
      <point x="707" y="643" type="line"/>
      <point x="669" y="639"/>
      <point x="655" y="635"/>
      <point x="641" y="625" type="curve" smooth="yes"/>
      <point x="622" y="612"/>
      <point x="612" y="575"/>
      <point x="612" y="515" type="curve" smooth="yes"/>
      <point x="612" y="0" type="line" smooth="yes"/>
      <point x="612" y="-142"/>
      <point x="592" y="-218"/>
      <point x="482" y="-218" type="curve" smooth="yes"/>
      <point x="428" y="-218"/>
      <point x="388" y="-195"/>
      <point x="388" y="-163" type="curve" smooth="yes"/>
      <point x="388" y="-141"/>
      <point x="406" y="-124"/>
      <point x="429" y="-124" type="curve" smooth="yes"/>
      <point x="445" y="-124"/>
      <point x="459" y="-133"/>
      <point x="477" y="-156" type="curve" smooth="yes"/>
      <point x="494" y="-177"/>
      <point x="504" y="-184"/>
      <point x="519" y="-184" type="curve" smooth="yes"/>
      <point x="533" y="-184"/>
      <point x="547" y="-176"/>
      <point x="553" y="-166" type="curve" smooth="yes"/>
      <point x="564" y="-146"/>
      <point x="567" y="-121"/>
      <point x="567" y="-45" type="curve" smooth="yes"/>
      <point x="567" y="22" type="line"/>
      <point x="153" y="539" type="line"/>
      <point x="153" y="147" type="line" smooth="yes"/>
      <point x="153" y="46"/>
      <point x="170" y="23"/>
      <point x="247" y="19" type="curve"/>
      <point x="247" y="0" type="line"/>
    </contour>
  </outline>
</glyph>
<glyph name="eng" format="1">
  <advance width="500"/>
  <unicode hex="014B"/>
  <outline>
    <contour>
      <point x="16" y="398" type="curve"/>
      <point x="16" y="415" type="line"/>
      <point x="71" y="431"/>
      <point x="105" y="442"/>
      <point x="154" y="460" type="curve"/>
      <point x="161" y="458" type="line"/>
      <point x="161" y="379" type="line"/>
      <point x="229" y="443"/>
      <point x="260" y="460"/>
      <point x="306" y="460" type="curve" smooth="yes"/>
      <point x="380" y="460"/>
      <point x="424" y="404"/>
      <point x="424" y="310" type="curve" smooth="yes"/>
      <point x="424" y="0" type="line" smooth="yes"/>
      <point x="424" y="-142"/>
      <point x="365" y="-218"/>
      <point x="255" y="-218" type="curve" smooth="yes"/>
      <point x="201" y="-218"/>
      <point x="161" y="-195"/>
      <point x="161" y="-163" type="curve" smooth="yes"/>
      <point x="161" y="-141"/>
      <point x="179" y="-124"/>
      <point x="202" y="-124" type="curve" smooth="yes"/>
      <point x="218" y="-124"/>
      <point x="232" y="-133"/>
      <point x="250" y="-156" type="curve" smooth="yes"/>
      <point x="267" y="-177"/>
      <point x="277" y="-184"/>
      <point x="292" y="-184" type="curve" smooth="yes"/>
      <point x="306" y="-184"/>
      <point x="320" y="-176"/>
      <point x="326" y="-166" type="curve" smooth="yes"/>
      <point x="337" y="-146"/>
      <point x="340" y="-121"/>
      <point x="340" y="-45" type="curve" smooth="yes"/>
      <point x="340" y="308" type="line" smooth="yes"/>
      <point x="340" y="374"/>
      <point x="316" y="405"/>
      <point x="267" y="405" type="curve" smooth="yes"/>
      <point x="234" y="405"/>
      <point x="212" y="393"/>
      <point x="164" y="348" type="curve"/>
      <point x="164" y="67" type="line" smooth="yes"/>
      <point x="164" y="31"/>
      <point x="179" y="19"/>
      <point x="230" y="15" type="curve"/>
      <point x="230" y="0" type="line"/>
      <point x="18" y="0" type="line"/>
      <point x="18" y="15" type="line"/>
      <point x="69" y="19"/>
      <point x="80" y="33"/>
      <point x="80" y="90" type="curve" smooth="yes"/>
      <point x="80" y="338" type="line" smooth="yes"/>
      <point x="80" y="387"/>
      <point x="71" y="402"/>
      <point x="43" y="402" type="curve" smooth="yes"/>
      <point x="32" y="402"/>
      <point x="22" y="401"/>
    </contour>
  </outline>
</glyph>
<glyph name="omacron" format="1">
  <advance width="500"/>
  <unicode hex="014D"/>
  <outline>
    <contour>
      <point x="29" y="228" type="curve" smooth="yes"/>
      <point x="29" y="354"/>
      <point x="114" y="460"/>
      <point x="245" y="460" type="curve" smooth="yes"/>
      <point x="384" y="460"/>
      <point x="470" y="365"/>
      <point x="470" y="228" type="curve" smooth="yes"/>
      <point x="470" y="103"/>
      <point x="378" y="-10"/>
      <point x="248" y="-10" type="curve" smooth="yes"/>
      <point x="113" y="-10"/>
      <point x="29" y="99"/>
    </contour>
    <contour>
      <point x="95" y="547" type="line"/>
      <point x="95" y="601" type="line"/>
      <point x="406" y="601" type="line"/>
      <point x="406" y="547" type="line"/>
    </contour>
    <contour>
      <point x="119" y="276" type="curve" smooth="yes"/>
      <point x="119" y="188"/>
      <point x="147" y="18"/>
      <point x="262" y="18" type="curve" smooth="yes"/>
      <point x="356" y="18"/>
      <point x="380" y="124"/>
      <point x="380" y="199" type="curve" smooth="yes"/>
      <point x="380" y="285"/>
      <point x="348" y="432"/>
      <point x="237" y="432" type="curve" smooth="yes"/>
      <point x="152" y="432"/>
      <point x="119" y="349"/>
    </contour>
  </outline>
</glyph>
<glyph name="Obreve" format="1">
  <advance width="722"/>
  <unicode hex="014E"/>
  <outline>
    <contour>
      <point x="34" y="330" type="curve" smooth="yes"/>
      <point x="34" y="524"/>
      <point x="162" y="676"/>
      <point x="361" y="676" type="curve" smooth="yes"/>
      <point x="560" y="676"/>
      <point x="688" y="524"/>
      <point x="688" y="330" type="curve" smooth="yes"/>
      <point x="688" y="136"/>
      <point x="560" y="-14"/>
      <point x="361" y="-14" type="curve" smooth="yes"/>
      <point x="162" y="-14"/>
      <point x="34" y="136"/>
    </contour>
    <contour>
      <point x="148" y="331" type="curve" smooth="yes"/>
      <point x="148" y="195"/>
      <point x="195" y="22"/>
      <point x="361" y="22" type="curve" smooth="yes"/>
      <point x="527" y="22"/>
      <point x="574" y="195"/>
      <point x="574" y="331" type="curve" smooth="yes"/>
      <point x="574" y="465"/>
      <point x="525" y="640"/>
      <point x="361" y="640" type="curve" smooth="yes"/>
      <point x="197" y="640"/>
      <point x="148" y="465"/>
    </contour>
    <contour>
      <point x="222" y="876" type="curve"/>
      <point x="251" y="876" type="line"/>
      <point x="261" y="815"/>
      <point x="300" y="779"/>
      <point x="362" y="779" type="curve" smooth="yes"/>
      <point x="432" y="779"/>
      <point x="452" y="817"/>
      <point x="474" y="876" type="curve"/>
      <point x="503" y="876" type="line"/>
      <point x="495" y="790"/>
      <point x="456" y="719"/>
      <point x="360" y="719" type="curve" smooth="yes"/>
      <point x="266" y="719"/>
      <point x="222" y="789"/>
    </contour>
  </outline>
</glyph>
<glyph name="oe" format="2">
  <advance width="722"/>
  <unicode hex="0153"/>
  <outline>
    <contour>
      <point x="30" y="230.614" type="curve" smooth="yes"/>
      <point x="30" y="372.948"/>
      <point x="102.234" y="460"/>
      <point x="229.663" y="460" type="curve" smooth="yes"/>
      <point x="307.021" y="460"/>
      <point x="358.431" y="427.919"/>
      <point x="384" y="383.379" type="curve"/>
      <point x="414.536" y="434.643"/>
      <point x="461.646" y="460"/>
      <point x="516.995" y="460" type="curve" smooth="yes"/>
      <point x="610.766" y="460"/>
      <point x="674" y="387.222"/>
      <point x="674" y="277" type="curve"/>
      <point x="419.553" y="277" type="line"/>
      <point x="419.553" y="253.016" type="line" smooth="yes"/>
      <point x="419.553" y="128.985"/>
      <point x="464.153" y="57"/>
      <point x="537.788" y="57" type="curve" smooth="yes"/>
      <point x="588.216" y="57"/>
      <point x="641.158" y="90.7605"/>
      <point x="679" y="145" type="curve"/>
      <point x="690" y="139" type="line"/>
      <point x="639.683" y="31.1785"/>
      <point x="593.53" y="-10"/>
      <point x="523" y="-10" type="curve" smooth="yes"/>
      <point x="457.289" y="-10"/>
      <point x="407.48" y="23.799"/>
      <point x="383" y="85" type="curve"/>
      <point x="352.086" y="23.1728"/>
      <point x="302.153" y="-10"/>
      <point x="230.731" y="-10" type="curve" smooth="yes"/>
      <point x="116.5" y="-10"/>
      <point x="30" y="74.8571"/>
    </contour>
    <contour>
      <point x="120" y="230" type="curve" smooth="yes"/>
      <point x="120" y="145"/>
      <point x="130" y="16"/>
      <point x="223" y="16" type="curve" smooth="yes"/>
      <point x="316" y="16"/>
      <point x="343" y="145"/>
      <point x="343" y="225" type="curve" smooth="yes"/>
      <point x="343" y="305"/>
      <point x="316" y="430"/>
      <point x="221.062" y="430" type="curve" smooth="yes"/>
      <point x="130" y="430"/>
      <point x="120" y="315"/>
    </contour>
    <contour>
      <point x="419.553" y="307" type="line"/>
      <point x="579" y="307" type="line"/>
      <point x="579" y="333.782" type="line" smooth="yes"/>
      <point x="579" y="385.331"/>
      <point x="548" y="430"/>
      <point x="501.04" y="430" type="curve" smooth="yes"/>
      <point x="454.935" y="430"/>
      <point x="419.553" y="386.944"/>
      <point x="419.553" y="319.3" type="curve" smooth="yes"/>
    </contour>
  </outline>
</glyph>
<glyph name="racute" format="1">
  <advance width="333"/>
  <unicode hex="0155"/>
  <outline>
    <contour>
      <point x="16" y="0" type="line"/>
      <point x="16" y="15" type="line"/>
      <point x="80" y="27"/>
      <point x="87" y="34"/>
      <point x="87" y="84" type="curve" smooth="yes"/>
      <point x="87" y="334" type="line" smooth="yes"/>
      <point x="87" y="378"/>
      <point x="78" y="394"/>
      <point x="53" y="394" type="curve" smooth="yes"/>
      <point x="41" y="394"/>
      <point x="32" y="393"/>
      <point x="18" y="390" type="curve"/>
      <point x="18" y="406" type="line"/>
      <point x="77" y="425"/>
      <point x="113" y="438"/>
      <point x="166" y="460" type="curve"/>
      <point x="171" y="458" type="line"/>
      <point x="171" y="366" type="line"/>
      <point x="220" y="437"/>
      <point x="249" y="460"/>
      <point x="291" y="460" type="curve" smooth="yes"/>
      <point x="325" y="460"/>
      <point x="346" y="440"/>
      <point x="346" y="407" type="curve" smooth="yes"/>
      <point x="346" y="379"/>
      <point x="331" y="362"/>
      <point x="307" y="362" type="curve" smooth="yes"/>
      <point x="294" y="362"/>
      <point x="283" y="368"/>
      <point x="267" y="382" type="curve" smooth="yes"/>
      <point x="256" y="392"/>
      <point x="247" y="397"/>
      <point x="241" y="397" type="curve" smooth="yes"/>
      <point x="214" y="397"/>
      <point x="171" y="347"/>
      <point x="171" y="315" type="curve" smooth="yes"/>
      <point x="171" y="90" type="line" smooth="yes"/>
      <point x="171" y="33"/>
      <point x="188" y="18"/>
      <point x="256" y="15" type="curve"/>
      <point x="256" y="0" type="line"/>
    </contour>
    <contour>
      <point x="125" y="507" type="line"/>
      <point x="272" y="655" type="line" smooth="yes"/>
      <point x="290" y="673"/>
      <point x="299" y="678"/>
      <point x="314" y="678" type="curve" smooth="yes"/>
      <point x="336" y="678"/>
      <point x="349" y="666"/>
      <point x="349" y="646" type="curve" smooth="yes"/>
      <point x="349" y="630"/>
      <point x="340" y="617"/>
      <point x="319" y="604" type="curve" smooth="yes"/>
      <point x="165" y="507" type="line"/>
    </contour>
  </outline>
</glyph>
<glyph name="Rcaron" format="1">
  <advance width="662"/>
  <unicode hex="0158"/>
  <outline>
    <contour>
      <point x="12" y="0" type="line"/>
      <point x="12" y="19" type="line"/>
      <point x="87" y="25"/>
      <point x="97" y="37"/>
      <point x="97" y="120" type="curve" smooth="yes"/>
      <point x="97" y="553" type="line" smooth="yes"/>
      <point x="97" y="624"/>
      <point x="87" y="635"/>
      <point x="12" y="643" type="curve"/>
      <point x="12" y="662" type="line"/>
      <point x="288" y="662" type="line" smooth="yes"/>
      <point x="382" y="662"/>
      <point x="542" y="638"/>
      <point x="542" y="486" type="curve" smooth="yes"/>
      <point x="542" y="362"/>
      <point x="428" y="332"/>
      <point x="361" y="319" type="curve"/>
      <point x="567" y="66" type="line" smooth="yes"/>
      <point x="596" y="32"/>
      <point x="616" y="22"/>
      <point x="654" y="19" type="curve"/>
      <point x="654" y="0" type="line"/>
      <point x="493" y="0" type="line"/>
      <point x="255" y="308" type="line"/>
      <point x="199" y="306" type="line"/>
      <point x="199" y="109" type="line" smooth="yes"/>
      <point x="199" y="37"/>
      <point x="212" y="24"/>
      <point x="289" y="19" type="curve"/>
      <point x="289" y="0" type="line"/>
    </contour>
    <contour>
      <point x="139" y="886" type="line"/>
      <point x="173" y="886" type="line"/>
      <point x="294" y="783" type="line"/>
      <point x="416" y="886" type="line"/>
      <point x="450" y="886" type="line"/>
      <point x="325" y="719" type="line"/>
      <point x="263" y="719" type="line"/>
    </contour>
    <contour>
      <point x="199" y="343" type="line"/>
      <point x="295" y="345"/>
      <point x="433" y="346"/>
      <point x="433" y="488" type="curve" smooth="yes"/>
      <point x="433" y="582"/>
      <point x="375" y="625"/>
      <point x="250" y="625" type="curve" smooth="yes"/>
      <point x="210" y="625"/>
      <point x="199" y="617"/>
      <point x="199" y="589" type="curve" smooth="yes"/>
    </contour>
  </outline>
</glyph>
<glyph name="Sacute" format="1">
  <advance width="556"/>
  <unicode hex="015A"/>
  <outline>
    <contour>
      <point x="42" y="199" type="line"/>
      <point x="65" y="199" type="line"/>
      <point x="102" y="107"/>
      <point x="159" y="22"/>
      <point x="270" y="22" type="curve" smooth="yes"/>
      <point x="335" y="22"/>
      <point x="390" y="65"/>
      <point x="390" y="133" type="curve" smooth="yes"/>
      <point x="390" y="307"/>
      <point x="71" y="299"/>
      <point x="71" y="506" type="curve" smooth="yes"/>
      <point x="71" y="611"/>
      <point x="151" y="676"/>
      <point x="252" y="676" type="curve" smooth="yes"/>
      <point x="306" y="676"/>
      <point x="358" y="642"/>
      <point x="391" y="642" type="curve" smooth="yes"/>
      <point x="411" y="642"/>
      <point x="425" y="657"/>
      <point x="426" y="676" type="curve"/>
      <point x="447" y="676" type="line"/>
      <point x="469" y="463" type="line"/>
      <point x="444" y="463" type="line"/>
      <point x="425" y="554"/>
      <point x="356" y="635"/>
      <point x="258" y="635" type="curve" smooth="yes"/>
      <point x="203" y="635"/>
      <point x="157" y="600"/>
      <point x="157" y="542" type="curve" smooth="yes"/>
      <point x="157" y="391"/>
      <point x="490" y="372"/>
      <point x="491" y="167" type="curve" smooth="yes"/>
      <point x="491" y="52"/>
      <point x="387" y="-13"/>
      <point x="280" y="-13" type="curve" smooth="yes"/>
      <point x="215" y="-13"/>
      <point x="159" y="21"/>
      <point x="125" y="21" type="curve" smooth="yes"/>
      <point x="107" y="21"/>
      <point x="94" y="7"/>
      <point x="94" y="-10" type="curve" smooth="yes"/>
      <point x="94" y="-13" type="line"/>
      <point x="72" y="-13" type="line"/>
    </contour>
    <contour>
      <point x="189" y="720" type="line"/>
      <point x="336" y="868" type="line" smooth="yes"/>
      <point x="354" y="886"/>
      <point x="363" y="891"/>
      <point x="378" y="891" type="curve" smooth="yes"/>
      <point x="400" y="891"/>
      <point x="413" y="879"/>
      <point x="413" y="859" type="curve" smooth="yes"/>
      <point x="413" y="843"/>
      <point x="404" y="830"/>
      <point x="383" y="817" type="curve" smooth="yes"/>
      <point x="229" y="720" type="line"/>
    </contour>
  </outline>
</glyph>
<glyph name="tcaron" format="2">
  <advance width="312"/>
  <unicode hex="0165"/>
  <outline>
    <contour>
      <point x="13" y="425" type="curve" smooth="yes"/>
      <point x="13" y="430"/>
      <point x="19" y="437"/>
      <point x="30" y="444" type="curve"/>
      <point x="59" y="451"/>
      <point x="128" y="554"/>
      <point x="147" y="579" type="curve"/>
      <point x="153" y="579"/>
      <point x="154" y="576"/>
      <point x="154" y="566" type="curve" smooth="yes"/>
      <point x="154" y="450" type="line"/>
      <point x="255" y="450" type="line"/>
      <point x="255" y="418" type="line"/>
      <point x="154" y="418" type="line"/>
      <point x="154" y="132" type="line" smooth="yes"/>
      <point x="154" y="69"/>
      <point x="169" y="42"/>
      <point x="206" y="42" type="curve" smooth="yes"/>
      <point x="228" y="42"/>
      <point x="245" y="52"/>
      <point x="266" y="77" type="curve"/>
      <point x="279" y="66" type="line"/>
      <point x="246" y="14"/>
      <point x="208" y="-10"/>
      <point x="159" y="-10" type="curve" smooth="yes"/>
      <point x="100" y="-10"/>
      <point x="70" y="33"/>
      <point x="70" y="117" type="curve" smooth="yes"/>
      <point x="70" y="418" type="line"/>
      <point x="17" y="418" type="line"/>
      <point x="14" y="420"/>
      <point x="13" y="422"/>
    </contour>
    <contour>
      <point x="162" y="640" type="curve" smooth="yes"/>
      <point x="162" y="673"/>
      <point x="188" y="697"/>
      <point x="221" y="697" type="curve" smooth="yes"/>
      <point x="266" y="697"/>
      <point x="300" y="658"/>
      <point x="300" y="608" type="curve" smooth="yes"/>
      <point x="300" y="545"/>
      <point x="258" y="502"/>
      <point x="188" y="477" type="curve"/>
      <point x="179" y="496" type="line"/>
      <point x="234" y="518"/>
      <point x="261" y="547"/>
      <point x="261" y="579" type="curve" smooth="yes"/>
      <point x="261" y="587"/>
      <point x="255" y="593"/>
      <point x="247" y="593" type="curve"/>
      <point x="246" y="593"/>
      <point x="242" y="593"/>
      <point x="235" y="591" type="curve"/>
      <point x="229" y="590"/>
      <point x="227" y="589"/>
      <point x="221" y="589" type="curve" smooth="yes"/>
      <point x="188" y="589"/>
      <point x="162" y="608"/>
    </contour>
  </outline>
</glyph>
<glyph name="Tbar" format="1">
  <advance width="611"/>
  <unicode hex="0166"/>
  <outline>
    <contour>
      <point x="17" y="492" type="line"/>
      <point x="23" y="662" type="line"/>
      <point x="587" y="662" type="line"/>
      <point x="593" y="492" type="line"/>
      <point x="568" y="492" type="line"/>
      <point x="546" y="610"/>
      <point x="504" y="621"/>
      <point x="419" y="621" type="curve" smooth="yes"/>
      <point x="400" y="621"/>
      <point x="379" y="620"/>
      <point x="356" y="620" type="curve"/>
      <point x="356" y="344" type="line"/>
      <point x="444" y="344" type="line"/>
      <point x="444" y="300" type="line"/>
      <point x="356" y="300" type="line"/>
      <point x="356" y="109" type="line" smooth="yes"/>
      <point x="356" y="33"/>
      <point x="377" y="21"/>
      <point x="452" y="19" type="curve"/>
      <point x="452" y="0" type="line"/>
      <point x="160" y="0" type="line"/>
      <point x="160" y="19" type="line"/>
      <point x="245" y="22"/>
      <point x="254" y="40"/>
      <point x="254" y="120" type="curve" smooth="yes"/>
      <point x="254" y="300" type="line"/>
      <point x="166" y="300" type="line"/>
      <point x="166" y="344" type="line"/>
      <point x="254" y="344" type="line"/>
      <point x="254" y="620" type="line"/>
      <point x="200" y="620" type="line" smooth="yes"/>
      <point x="90" y="620"/>
      <point x="63" y="601"/>
      <point x="41" y="492" type="curve"/>
    </contour>
  </outline>
</glyph>
<glyph name="ubreve" format="1">
  <advance width="500"/>
  <unicode hex="016D"/>
  <outline>
    <contour>
      <point x="9" y="436" type="curve"/>
      <point x="9" y="450" type="line"/>
      <point x="155" y="450" type="line"/>
      <point x="155" y="124" type="line" smooth="yes"/>
      <point x="155" y="82"/>
      <point x="187" y="48"/>
      <point x="226" y="48" type="curve" smooth="yes"/>
      <point x="256" y="48"/>
      <point x="287" y="60"/>
      <point x="314" y="82" type="curve" smooth="yes"/>
      <point x="328" y="93"/>
      <point x="333" y="107"/>
      <point x="333" y="135" type="curve" smooth="yes"/>
      <point x="333" y="370" type="line" smooth="yes"/>
      <point x="333" y="420"/>
      <point x="321" y="430"/>
      <point x="259" y="433" type="curve"/>
      <point x="259" y="450" type="line"/>
      <point x="417" y="450" type="line"/>
      <point x="417" y="107" type="line" smooth="yes"/>
      <point x="417" y="61"/>
      <point x="428" y="50"/>
      <point x="474" y="50" type="curve" smooth="yes"/>
      <point x="479" y="50" type="line"/>
      <point x="479" y="36" type="line"/>
      <point x="428" y="22"/>
      <point x="392" y="11"/>
      <point x="342" y="-9" type="curve"/>
      <point x="338" y="-7" type="line"/>
      <point x="338" y="76" type="line"/>
      <point x="295" y="33" type="line" smooth="yes"/>
      <point x="268" y="6"/>
      <point x="229" y="-10"/>
      <point x="192" y="-10" type="curve" smooth="yes"/>
      <point x="119" y="-10"/>
      <point x="71" y="41"/>
      <point x="71" y="120" type="curve" smooth="yes"/>
      <point x="71" y="372" type="line" smooth="yes"/>
      <point x="71" y="418"/>
      <point x="57" y="433"/>
    </contour>
    <contour>
      <point x="111" y="664" type="curve"/>
      <point x="140" y="664" type="line"/>
      <point x="150" y="603"/>
      <point x="189" y="567"/>
      <point x="251" y="567" type="curve" smooth="yes"/>
      <point x="321" y="567"/>
      <point x="341" y="605"/>
      <point x="363" y="664" type="curve"/>
      <point x="392" y="664" type="line"/>
      <point x="384" y="578"/>
      <point x="345" y="507"/>
      <point x="249" y="507" type="curve" smooth="yes"/>
      <point x="155" y="507"/>
      <point x="111" y="577"/>
    </contour>
  </outline>
</glyph>
<glyph name="Uring" format="1">
  <advance width="722"/>
  <unicode hex="016E"/>
  <outline>
    <contour>
      <point x="14" y="643" type="curve"/>
      <point x="14" y="662" type="line"/>
      <point x="297" y="662" type="line"/>
      <point x="297" y="643" type="line"/>
      <point x="217" y="636"/>
      <point x="206" y="625"/>
      <point x="206" y="553" type="curve" smooth="yes"/>
      <point x="206" y="233" type="line" smooth="yes"/>
      <point x="206" y="170"/>
      <point x="213" y="133"/>
      <point x="231" y="101" type="curve" smooth="yes"/>
      <point x="258" y="54"/>
      <point x="307" y="30"/>
      <point x="378" y="30" type="curve" smooth="yes"/>
      <point x="453" y="30"/>
      <point x="517" y="61"/>
      <point x="544" y="109" type="curve" smooth="yes"/>
      <point x="560" y="139"/>
      <point x="567" y="177"/>
      <point x="567" y="245" type="curve" smooth="yes"/>
      <point x="567" y="515" type="line" smooth="yes"/>
      <point x="567" y="615"/>
      <point x="551" y="637"/>
      <point x="473" y="643" type="curve"/>
      <point x="473" y="662" type="line"/>
      <point x="705" y="662" type="line"/>
      <point x="705" y="643" type="line"/>
      <point x="623" y="633"/>
      <point x="611" y="617"/>
      <point x="611" y="515" type="curve" smooth="yes"/>
      <point x="611" y="254" type="line" smooth="yes"/>
      <point x="611" y="177"/>
      <point x="602" y="131"/>
      <point x="578" y="89" type="curve" smooth="yes"/>
      <point x="539" y="21"/>
      <point x="464" y="-14"/>
      <point x="355" y="-14" type="curve" smooth="yes"/>
      <point x="185" y="-14"/>
      <point x="104" y="68"/>
      <point x="104" y="241" type="curve" smooth="yes"/>
      <point x="104" y="553" type="line" smooth="yes"/>
      <point x="104" y="626"/>
      <point x="93" y="637"/>
    </contour>
    <contour>
      <point x="279" y="824" type="curve" smooth="yes"/>
      <point x="279" y="878"/>
      <point x="324" y="923"/>
      <point x="378" y="923" type="curve" smooth="yes"/>
      <point x="433" y="923"/>
      <point x="478" y="878"/>
      <point x="478" y="823" type="curve" smooth="yes"/>
      <point x="478" y="768"/>
      <point x="433" y="724"/>
      <point x="378" y="724" type="curve" smooth="yes"/>
      <point x="322" y="724"/>
      <point x="279" y="768"/>
    </contour>
    <contour>
      <point x="313" y="824" type="curve" smooth="yes"/>
      <point x="313" y="788"/>
      <point x="342" y="758"/>
      <point x="377" y="758" type="curve" smooth="yes"/>
      <point x="414" y="758"/>
      <point x="444" y="787"/>
      <point x="444" y="823" type="curve" smooth="yes"/>
      <point x="444" y="859"/>
      <point x="414" y="889"/>
      <point x="379" y="889" type="curve" smooth="yes"/>
      <point x="343" y="889"/>
      <point x="313" y="860"/>
    </contour>
  </outline>
</glyph>
